<?xml version="1.0" standalone="no"?>
<!DOCTYPE svg PUBLIC "-//W3C//DTD SVG 20010904//EN"
 "http://www.w3.org/TR/2001/REC-SVG-20010904/DTD/svg10.dtd">
<svg version="1.0" xmlns="http://www.w3.org/2000/svg"
 width="900.000000pt" height="900.000000pt" viewBox="0 0 900.000000 900.000000"
 preserveAspectRatio="xMidYMid meet">
<metadata>
Created by potrace 1.10, written by Peter Selinger 2001-2011
</metadata>
<g transform="translate(0.000000,900.000000) scale(0.100000,-0.100000)"
fill="#000000" stroke="none">
<path d="M6635 7973 c-16 -2 -34 -9 -39 -14 -6 -5 -23 -9 -39 -9 -16 0 -45 -7
-65 -16 -99 -45 -188 -87 -192 -93 -3 -3 -32 -24 -65 -45 -67 -44 -295 -268
-338 -334 -16 -23 -31 -42 -35 -42 -4 0 -27 19 -52 41 -90 83 -113 86 -157 16
-26 -42 -27 -44 -31 -267 -3 -132 0 -254 6 -295 11 -71 5 -114 -27 -190 -16
-38 -11 -310 6 -340 7 -11 15 -41 18 -67 3 -26 10 -50 16 -53 5 -4 9 -16 9
-29 0 -12 7 -31 15 -42 8 -10 15 -25 15 -32 0 -15 39 -104 49 -112 8 -6 29
-40 38 -60 11 -26 100 -133 145 -176 54 -51 163 -134 176 -134 6 0 12 -4 14
-8 4 -10 136 -89 203 -121 28 -13 62 -30 77 -38 14 -7 34 -13 45 -13 10 0 27
-7 37 -15 11 -8 30 -15 42 -15 13 0 25 -4 29 -9 3 -6 27 -13 53 -16 26 -3 55
-10 65 -16 9 -5 52 -14 94 -20 43 -6 81 -13 85 -15 4 -2 82 -5 175 -5 192 -1
279 14 383 63 96 46 147 83 225 162 62 63 155 198 155 224 0 6 8 25 17 44 9
18 20 41 25 51 5 9 11 39 15 65 3 26 10 52 15 59 6 7 12 74 15 150 4 122 -1
193 -23 319 -10 57 8 64 171 64 85 0 146 4 150 10 3 6 15 10 25 10 25 0 86 42
126 87 30 34 40 50 82 138 18 40 14 317 -6 337 -6 6 -12 21 -12 33 0 11 -6 32
-14 47 -8 15 -17 40 -21 57 -4 17 -11 33 -16 36 -20 13 -9 92 21 148 39 74 40
119 1 158 -17 17 -40 29 -55 29 -35 0 -76 -46 -76 -87 0 -24 -7 -37 -27 -50
-14 -10 -44 -35 -65 -56 -56 -55 -54 -105 10 -236 11 -23 17 -59 17 -105 0
-80 -17 -114 -82 -163 -33 -25 -41 -27 -130 -25 -57 1 -101 6 -110 13 -9 8
-55 13 -127 13 l-112 1 -45 -34 c-71 -54 -109 -128 -119 -231 -14 -141 -27
-192 -54 -217 -36 -33 -67 -29 -93 10 -20 29 -23 46 -23 130 0 71 5 114 21
159 23 69 23 70 73 181 20 42 36 83 36 90 0 6 7 21 15 31 8 11 15 32 15 46 0
14 5 31 10 36 28 28 28 300 1 327 -6 6 -11 20 -11 32 0 20 -63 154 -78 165 -4
3 -22 24 -41 48 -62 80 -239 192 -302 192 -14 0 -31 6 -37 12 -13 13 -252 21
-317 11z m305 -64 c30 -6 67 -17 82 -25 14 -8 31 -14 38 -14 7 0 32 -13 57
-30 24 -16 46 -30 48 -30 12 0 113 -112 130 -144 11 -20 23 -36 27 -36 5 0 8
-7 8 -16 0 -9 7 -28 14 -42 23 -42 46 -152 46 -221 0 -65 -22 -173 -46 -228
-8 -17 -14 -33 -14 -36 0 -7 -57 -135 -76 -169 -7 -14 -14 -35 -14 -45 0 -10
-5 -24 -11 -30 -16 -16 -39 -140 -39 -209 0 -82 23 -147 65 -178 44 -34 87
-33 131 1 53 40 74 93 81 198 8 146 49 230 127 266 46 21 103 24 159 8 39 -10
165 -30 202 -30 34 -1 114 20 131 33 48 40 96 96 100 118 3 14 9 33 15 42 21
40 1 135 -48 227 -42 81 -28 124 60 184 17 11 32 37 43 72 18 55 30 65 52 43
19 -19 14 -51 -18 -114 -34 -67 -40 -140 -15 -188 8 -15 15 -33 15 -40 0 -6 7
-23 14 -38 8 -16 18 -48 22 -73 3 -25 10 -48 15 -51 12 -7 12 -230 0 -252 -6
-9 -20 -39 -33 -66 -13 -27 -45 -68 -72 -92 -64 -56 -122 -69 -266 -60 -94 5
-108 4 -138 -14 -51 -31 -57 -55 -42 -162 30 -225 10 -432 -56 -585 -8 -17
-14 -34 -14 -37 0 -6 -57 -102 -75 -124 -13 -18 -138 -144 -158 -159 -28 -23
-129 -74 -176 -90 -91 -31 -363 -55 -384 -34 -6 6 -36 11 -67 11 -30 1 -73 5
-95 10 -22 4 -67 14 -100 21 -33 6 -74 18 -92 25 -17 8 -38 14 -47 14 -8 0
-30 6 -48 14 -18 8 -51 22 -73 31 -40 17 -91 42 -175 86 -54 28 -158 98 -220
147 -49 39 -160 152 -160 163 0 3 -9 17 -20 30 -32 39 -34 42 -57 89 -42 87
-73 163 -73 177 0 8 -6 29 -14 46 -21 48 -40 172 -41 262 0 88 23 226 39 237
14 9 10 121 -4 149 -13 23 -15 373 -3 392 4 7 10 35 13 62 4 44 8 50 30 53 18
2 38 -10 73 -42 l48 -45 -23 -43 c-13 -24 -26 -45 -29 -48 -4 -3 -9 -16 -13
-30 -7 -25 -12 -36 -42 -103 -23 -52 -24 -110 -2 -115 12 -2 19 5 23 25 4 15
13 40 21 55 8 14 14 36 14 47 0 12 5 21 10 21 6 0 10 6 10 13 0 32 112 224
168 289 80 93 211 217 280 268 77 55 196 120 222 120 8 0 26 6 40 13 14 7 59
19 100 25 41 7 86 14 100 16 35 6 154 -2 220 -15z"/>
<path d="M6414 7733 c-25 -5 -124 -105 -124 -125 0 -8 -5 -19 -11 -25 -16 -16
-38 -118 -32 -145 3 -13 17 -33 31 -45 24 -20 26 -21 61 -5 39 19 131 109 131
130 0 7 7 23 15 35 16 26 24 152 10 166 -13 12 -55 20 -81 14z"/>
<path d="M6804 7580 c-45 -18 -154 -152 -154 -189 0 -9 -5 -22 -10 -27 -20
-20 -24 -108 -6 -143 21 -40 50 -51 94 -38 33 11 121 87 135 117 4 8 18 35 32
59 14 24 25 56 26 70 0 14 4 35 8 46 10 26 -6 86 -27 103 -18 14 -67 15 -98 2z"/>
<path d="M6310 7300 c-18 -44 -5 -96 36 -136 53 -51 90 -48 144 13 44 50 48
76 12 81 -16 3 -25 -4 -34 -25 -15 -34 -26 -43 -54 -43 -33 0 -56 35 -62 90
-5 57 -23 66 -42 20z"/>
<path d="M6650 7109 c-61 -25 -79 -84 -60 -204 6 -38 15 -108 21 -155 5 -47
14 -93 19 -102 6 -10 10 -24 10 -32 0 -20 23 -36 39 -26 11 6 12 23 7 71 -4
35 -11 78 -16 94 -5 17 -16 80 -25 142 -15 102 -15 114 0 142 25 50 63 43 128
-22 29 -29 68 -75 87 -102 19 -28 37 -51 42 -53 4 -2 8 -7 8 -12 0 -22 75
-120 91 -120 36 0 21 47 -47 147 -85 126 -173 216 -223 232 -45 13 -48 13 -81
0z"/>
<path d="M7636 6025 c-3 -9 -6 -26 -6 -38 0 -12 -7 -31 -15 -41 -8 -11 -15
-25 -15 -32 0 -43 -129 -207 -205 -260 -88 -62 -226 -105 -336 -105 -65 0
-192 23 -230 42 -20 9 -29 2 -29 -22 0 -21 29 -39 62 -39 13 0 30 -6 37 -12
17 -18 305 -18 323 0 7 7 20 12 30 12 16 0 58 18 136 59 134 71 299 304 290
409 -3 39 -30 57 -42 27z"/>
<path d="M2530 5371 c-61 -22 -82 -35 -172 -103 -42 -32 -80 -58 -83 -58 -10
0 -149 -106 -171 -131 -30 -34 -74 -106 -74 -121 1 -7 14 -24 30 -38 17 -13
30 -30 30 -37 0 -17 13 -16 58 3 46 20 180 28 287 17 91 -9 227 1 299 22 27 8
76 15 108 15 57 0 58 -1 58 -28 0 -58 -109 -88 -264 -72 -54 6 -166 10 -250 9
l-151 0 -80 -38 c-63 -31 -82 -36 -88 -25 -4 7 -2 22 5 33 25 41 -3 32 -52
-15 -61 -60 -66 -93 -17 -117 17 -9 43 -18 57 -22 35 -7 64 -31 57 -48 -3 -7
-31 -19 -63 -27 -33 -7 -63 -17 -69 -20 -46 -33 -152 -80 -178 -80 -18 0 -48
-9 -67 -20 -81 -46 -201 -100 -224 -100 -9 0 -24 -4 -34 -9 -72 -37 -132 -59
-160 -59 -48 -1 -96 -32 -100 -66 -4 -28 19 -110 44 -158 22 -42 17 -71 -17
-98 -17 -14 -60 -63 -95 -110 -35 -47 -68 -90 -74 -97 -5 -7 -10 -16 -10 -21
0 -5 -13 -27 -28 -48 -16 -21 -31 -46 -35 -54 -24 -48 -97 -150 -109 -150 -4
0 -8 -16 -8 -36 0 -41 -22 -66 -143 -163 -76 -62 -91 -82 -102 -131 -4 -19
-14 -57 -22 -83 -20 -63 -14 -294 8 -308 20 -12 24 -11 50 10 13 10 24 31 25
47 1 16 3 35 3 42 1 6 7 12 14 12 8 0 21 -26 31 -62 10 -35 25 -81 34 -103 20
-49 83 -115 111 -115 18 0 20 7 23 83 2 45 7 82 13 82 5 0 17 -27 25 -60 19
-73 26 -85 49 -85 37 0 89 90 101 174 24 162 44 216 79 216 10 0 30 -13 45
-29 15 -16 45 -36 66 -46 36 -16 40 -16 78 0 46 20 82 78 82 129 0 34 -27 57
-83 70 -39 9 -104 51 -117 75 -5 11 -10 31 -10 45 0 14 -4 26 -10 26 -5 0 -10
5 -10 10 0 18 27 10 42 -12 17 -25 38 -17 38 14 0 17 13 49 41 98 5 8 14 26
20 40 16 40 123 137 158 145 17 3 34 12 38 19 12 19 88 39 120 32 73 -18 81
-17 139 11 33 16 77 35 99 42 32 10 47 23 67 60 32 56 63 86 80 77 7 -3 25
-14 39 -24 114 -77 141 -92 167 -92 35 0 77 -38 161 -148 33 -42 78 -97 100
-121 45 -48 46 -49 29 -86 -9 -21 -18 -25 -51 -25 -27 0 -56 -10 -89 -30 -40
-25 -59 -30 -112 -30 -39 0 -70 -5 -78 -13 -32 -31 -105 -84 -131 -95 -15 -7
-52 -15 -81 -18 -49 -6 -59 -12 -120 -71 -65 -64 -66 -65 -66 -119 0 -48 -15
-90 -40 -114 -3 -3 -15 -19 -27 -37 -42 -60 -25 -151 47 -259 40 -60 46 -108
21 -180 -12 -32 -21 -77 -21 -99 0 -31 -7 -48 -29 -73 -17 -17 -34 -32 -38
-32 -13 1 -46 32 -85 80 -91 114 -152 164 -231 191 -111 39 -204 15 -275 -67
-23 -27 -42 -56 -42 -65 0 -8 -5 -20 -11 -26 -17 -17 -18 -318 -2 -334 7 -7
13 -21 13 -31 0 -10 9 -35 20 -55 11 -21 20 -43 20 -49 0 -7 33 -46 72 -87 69
-71 125 -112 351 -255 46 -29 120 -87 164 -130 105 -99 138 -117 223 -117 59
0 70 3 105 32 70 55 103 154 111 338 2 60 9 171 16 245 10 125 13 138 40 171
15 20 28 41 28 47 0 6 4 12 8 14 4 2 19 23 33 47 l26 43 114 2 c75 2 134 8
174 20 33 10 74 20 90 23 31 6 65 29 65 45 0 5 9 30 21 56 25 59 32 74 59 142
37 89 107 190 134 190 5 0 18 8 29 18 15 13 38 17 101 18 44 1 94 7 109 13 16
6 68 11 117 11 79 0 96 -3 142 -28 52 -28 167 -51 338 -67 81 -8 160 -45 214
-99 45 -46 97 -76 132 -76 12 0 35 -12 51 -28 73 -72 62 -69 270 -64 l188 5
40 31 c22 17 46 36 53 43 7 7 17 13 22 13 4 0 30 21 57 47 53 51 77 100 67
139 -7 25 15 101 52 181 23 51 33 150 17 167 -14 13 -43 101 -43 128 0 15 5
30 10 33 6 3 10 15 10 26 0 34 32 123 51 143 16 17 22 18 44 8 26 -12 26 -12
20 -100 l-7 -88 59 -75 c33 -41 82 -94 109 -117 42 -36 55 -42 94 -42 67 1
153 32 166 61 38 78 59 218 59 384 -1 245 -32 317 -215 495 -137 133 -167 177
-177 258 -6 54 -7 55 -75 67 -21 3 -38 10 -38 15 0 5 -10 12 -22 16 -13 4 -37
17 -54 30 -33 25 -63 30 -92 15 -9 -6 -38 -20 -64 -32 -33 -15 -51 -32 -64
-58 -9 -20 -21 -44 -26 -54 -5 -10 -13 -48 -18 -85 -6 -37 -14 -92 -20 -122
-6 -30 -9 -83 -8 -116 l2 -62 -65 -63 c-44 -43 -77 -87 -100 -134 -20 -38 -42
-71 -50 -73 -9 -2 -23 15 -36 40 -25 52 -99 138 -119 138 -8 0 -14 4 -14 9 0
5 -14 14 -32 20 l-32 11 47 47 c26 25 47 53 47 62 0 27 88 91 124 91 22 0 85
40 96 60 17 31 11 49 -24 88 -101 109 -119 130 -138 167 -25 49 -55 74 -89 75
-22 0 -44 22 -120 117 -111 139 -116 144 -152 160 -15 7 -37 29 -48 48 -15 25
-28 35 -46 35 -30 0 -142 51 -187 85 -25 19 -45 25 -82 25 -177 0 -313 36
-419 109 -85 59 -88 64 -80 116 6 40 3 52 -19 84 -67 96 -355 331 -460 375
-47 20 -107 19 -166 -3z m164 -62 c43 -23 214 -132 233 -149 7 -5 17 -10 23
-10 5 0 10 -7 10 -15 0 -19 -17 -19 -50 0 -53 30 -94 9 -52 -27 19 -17 85 -37
145 -45 29 -4 45 -14 70 -47 42 -53 60 -89 55 -112 -2 -15 -17 -21 -71 -28
-76 -10 -117 1 -117 33 0 14 8 21 28 23 38 4 36 32 -3 36 -21 2 -36 13 -51 35
-25 40 -58 41 -136 4 -30 -14 -67 -29 -83 -33 -17 -4 -36 -12 -44 -18 -20 -16
-276 -15 -292 2 -18 17 -91 15 -148 -4 -60 -19 -116 -16 -115 7 1 9 16 39 35
67 25 38 47 58 92 81 33 17 66 31 73 31 7 0 21 9 31 19 10 11 29 21 43 23 19
2 24 8 22 26 -2 14 3 25 15 29 10 4 40 20 67 36 98 60 157 70 220 36z m179
-324 c1 -5 -6 -11 -15 -13 -11 -2 -18 3 -18 13 0 17 30 18 33 0z m-537 -177
c11 -17 -42 -58 -75 -58 -15 0 -36 6 -46 14 -16 12 -17 16 -6 29 11 14 26 18
103 25 9 1 20 -3 24 -10z m860 -17 c72 -81 86 -179 36 -260 -17 -26 -31 -67
-34 -95 -3 -27 -10 -51 -15 -55 -13 -9 -70 -104 -88 -148 -9 -20 -17 -62 -20
-92 -2 -31 -8 -57 -13 -59 -6 -2 -33 13 -60 32 -27 20 -59 36 -71 36 -30 0
-27 12 20 80 38 55 64 144 53 175 -3 6 16 21 41 34 49 24 88 74 100 129 11 52
-19 40 -61 -23 -20 -30 -40 -55 -44 -55 -4 0 -20 7 -36 14 -15 8 -31 13 -34
11 -4 -2 -10 -42 -13 -87 -3 -46 -13 -97 -21 -113 -9 -17 -16 -34 -16 -39 0
-5 -18 -32 -39 -61 -27 -36 -57 -61 -96 -81 -40 -20 -66 -41 -83 -69 -35 -55
-61 -75 -98 -75 -31 0 -95 22 -118 40 -6 6 -31 25 -56 44 -72 56 -82 67 -76
83 3 8 0 27 -8 41 -8 15 -18 43 -24 62 l-9 35 -12 -28 -11 -28 -47 58 c-98
120 -96 115 -95 228 0 110 15 183 38 192 15 6 75 -32 128 -79 65 -60 126 -45
176 43 38 68 43 74 72 86 28 13 24 15 115 -53 35 -25 55 -11 51 33 l-3 38 65
8 c63 8 66 7 87 -20 13 -15 23 -38 23 -50 0 -28 36 -89 57 -97 28 -11 38 10
23 53 -15 46 -1 94 31 111 26 15 72 12 95 -5 26 -19 34 -19 34 3 0 40 21 42
56 3z m512 -172 c30 -7 52 -18 52 -26 0 -7 -4 -13 -9 -13 -19 0 -71 -52 -71
-71 0 -29 33 -23 63 11 24 26 34 30 80 30 69 0 99 -9 95 -28 -2 -8 -18 -20
-37 -27 -42 -14 -48 -26 -22 -49 19 -17 23 -17 61 -2 22 9 48 16 58 16 25 0
232 -207 232 -232 0 -15 -31 -8 -60 14 -25 18 -32 19 -45 8 -15 -12 -14 -16 8
-36 30 -27 115 -54 173 -54 33 0 46 -5 54 -20 6 -11 35 -48 65 -81 30 -34 55
-65 55 -70 0 -18 -33 -8 -70 21 -21 17 -42 30 -48 30 -6 0 -23 6 -39 14 -64
32 -149 49 -246 49 -100 -1 -116 -5 -225 -55 -41 -19 -102 -81 -126 -129 -7
-16 -22 -25 -41 -27 -17 -2 -42 -15 -57 -29 -28 -26 -116 -62 -154 -63 -12 0
-35 -7 -50 -15 -59 -30 -108 -18 -202 52 -42 31 -52 32 -97 12 -92 -40 -144
-47 -198 -24 -50 21 -64 19 -92 -11 -32 -34 -31 -69 1 -129 16 -30 23 -57 20
-71 -6 -24 3 -51 33 -99 11 -16 20 -38 20 -47 1 -9 21 -36 46 -59 45 -42 45
-43 27 -62 -28 -28 -89 -32 -140 -11 -55 24 -53 49 3 49 67 0 86 30 43 66 -26
23 -46 24 -70 3 -23 -22 -106 -30 -151 -15 -20 7 -57 36 -88 69 -68 73 -130
149 -129 159 0 5 19 8 43 8 30 0 42 4 45 16 4 22 -70 49 -133 49 -61 0 -165
28 -172 47 -3 8 -1 19 5 25 13 13 115 -6 147 -28 26 -19 85 -18 85 0 0 8 -9
18 -20 21 -11 4 -36 22 -54 41 l-34 35 -79 -11 c-43 -6 -98 -10 -123 -8 -37 2
-46 7 -48 25 -2 14 6 27 23 40 72 50 89 83 43 83 -19 0 -88 -44 -96 -60 -1 -4
-29 -47 -61 -96 -87 -134 -161 -180 -161 -102 0 55 -26 160 -53 218 -27 56
-102 140 -147 165 -106 57 -186 85 -246 85 -52 0 -61 11 -31 37 58 53 202 52
364 -2 45 -15 73 -11 73 10 0 18 -39 41 -85 49 -64 12 -84 38 -42 56 12 6 42
21 65 35 l44 24 41 -20 c23 -12 50 -28 59 -36 19 -17 58 -9 58 12 0 7 -14 25
-32 38 -27 22 -30 28 -19 41 7 8 28 18 47 22 19 3 37 10 40 15 3 5 14 13 24
19 17 9 22 4 39 -36 12 -26 21 -51 21 -57 0 -6 12 -24 28 -40 26 -27 27 -32
24 -116 -4 -79 -1 -94 22 -142 14 -30 32 -62 40 -71 19 -25 55 -22 82 7 21 22
26 24 51 13 15 -6 35 -17 43 -24 8 -6 24 -14 35 -18 11 -3 31 -16 45 -28 36
-33 112 -68 147 -68 78 0 99 12 180 108 25 29 41 41 52 37 9 -4 52 -10 96 -14
54 -5 99 -17 137 -35 32 -15 62 -25 68 -21 5 3 10 21 10 40 0 55 29 166 57
220 14 28 44 86 67 130 51 97 76 162 76 196 0 14 3 29 8 34 11 11 318 -1 380
-16z m-1586 -124 c-2 -27 -5 -52 -8 -54 -11 -11 -27 21 -32 64 -5 45 -4 47 19
43 22 -3 24 -7 21 -53z m167 -303 l24 -18 -45 -37 c-26 -21 -52 -35 -60 -32
-31 12 -73 156 -52 178 5 5 38 -17 133 -91z m2681 -58 c52 -18 101 -53 145
-103 16 -20 38 -43 48 -53 21 -22 7 -58 -22 -58 -29 0 -65 -34 -58 -53 9 -24
54 -21 69 3 7 11 19 20 28 20 22 0 224 -212 258 -272 53 -92 64 -134 69 -268
5 -119 0 -170 -27 -322 -12 -60 -16 -68 -44 -80 -89 -37 -190 7 -259 115 -25
38 -58 144 -50 162 8 22 37 35 78 35 47 0 70 13 84 48 7 16 23 34 37 40 25 12
34 52 12 52 -21 0 -91 -20 -125 -36 -17 -8 -37 -14 -45 -14 -7 0 -22 -7 -32
-15 -23 -17 -72 -20 -81 -4 -4 6 -9 27 -10 47 -16 192 -94 288 -245 301 l-65
6 1 35 c1 19 5 59 9 88 7 46 14 58 46 84 22 17 39 36 39 42 0 6 -14 19 -30 28
-30 17 -39 41 -20 53 6 3 10 14 10 23 0 35 37 86 71 98 45 17 56 16 109 -2z
m-3461 -3 c8 -5 11 -16 6 -30 -5 -16 -1 -23 17 -31 80 -36 155 -113 180 -183
10 -28 18 -57 18 -65 0 -7 -29 -43 -64 -80 -36 -37 -72 -75 -80 -84 -11 -13
-31 -18 -65 -18 -28 0 -53 -4 -56 -10 -10 -17 -35 -11 -35 8 -1 32 -109 132
-143 132 -8 0 -20 6 -27 14 -6 8 -21 16 -33 18 -32 4 -31 52 1 56 13 2 26 10
29 18 3 8 13 14 23 14 25 0 33 15 16 29 -12 10 -10 19 15 56 16 23 29 48 29
54 0 24 54 93 81 104 22 9 73 8 88 -2z m2583 -78 c55 -21 105 -58 127 -93 13
-22 20 -26 34 -19 12 7 22 4 37 -11 25 -25 28 -95 4 -108 -12 -7 -15 -18 -11
-38 13 -66 13 -69 -8 -69 -16 0 -21 8 -25 38 -6 46 -23 49 -30 6 -4 -26 -11
-34 -35 -41 -40 -11 -55 -4 -55 25 0 14 -7 30 -15 37 -8 7 -15 20 -15 29 -1
21 -47 77 -57 68 -4 -4 0 -22 9 -40 31 -62 48 -105 48 -121 0 -8 9 -24 21 -35
26 -24 17 -29 -51 -26 -30 2 -63 4 -72 4 -14 1 -18 10 -18 45 0 26 -6 48 -15
56 -8 7 -15 23 -15 35 0 13 -11 30 -25 39 -14 9 -25 12 -25 7 0 -19 31 -81 40
-81 6 0 10 -15 10 -33 0 -18 7 -43 16 -55 9 -14 14 -38 12 -65 -2 -34 -7 -42
-23 -42 -15 0 -19 6 -17 23 5 37 -13 25 -28 -20 -9 -25 -22 -44 -32 -46 -15
-3 -18 4 -18 42 0 25 -3 46 -7 46 -5 0 -20 -24 -34 -53 -20 -41 -31 -53 -52
-55 -19 -2 -27 1 -27 12 0 9 5 16 10 16 6 0 10 5 10 11 0 6 9 22 20 36 24 31
27 104 5 123 -8 7 -15 17 -15 23 0 16 -61 77 -77 77 -20 0 -15 -12 17 -44 17
-16 30 -37 30 -46 0 -10 7 -23 15 -30 18 -15 20 -80 3 -80 -20 1 -48 26 -48
43 0 9 -6 22 -13 29 -7 7 -16 21 -20 31 -4 10 -11 15 -17 12 -15 -10 -12 -35
5 -35 8 0 15 -9 15 -19 0 -11 7 -27 16 -35 19 -20 9 -38 -19 -34 -20 3 -23 -3
-27 -52 -4 -48 -9 -57 -32 -68 -16 -7 -28 -17 -28 -23 0 -5 -7 -9 -15 -9 -26
0 -16 35 15 53 22 13 30 26 30 45 0 37 -33 130 -52 145 -8 6 -18 19 -21 28 -8
24 31 12 44 -13 8 -14 14 -17 22 -9 7 7 7 14 -2 24 -6 8 -8 22 -5 32 6 15 4
15 -14 4 -31 -20 -38 -3 -11 26 17 17 35 25 60 25 23 0 39 6 43 15 3 8 15 15
26 15 11 0 23 8 27 18 11 32 36 52 65 52 21 0 28 5 28 20 0 17 4 18 24 10 18
-6 28 -5 36 6 16 19 45 18 76 -2 28 -19 48 -9 21 10 -9 7 -17 18 -17 25 0 21
42 11 80 -19 23 -18 41 -26 45 -20 3 5 4 14 0 19 -3 5 2 16 11 25 20 20 10 36
-23 36 -30 0 -96 38 -87 51 8 14 49 11 96 -8z m-912 -283 c11 -16 20 -35 20
-43 0 -8 13 -26 29 -40 21 -18 34 -42 46 -86 23 -91 76 -167 99 -144 17 17
-16 121 -44 138 -5 3 -10 20 -10 37 0 18 -11 45 -25 63 -38 51 -16 57 83 26
33 -11 74 -27 91 -35 59 -31 108 -121 96 -176 -7 -30 -76 -86 -136 -110 -78
-31 -143 -50 -170 -50 -15 0 -32 -7 -39 -15 -7 -8 -21 -15 -30 -15 -10 0 -33
-8 -50 -17 -31 -18 -31 -18 -54 10 -20 25 -24 26 -30 12 -3 -9 -6 -25 -6 -36
0 -25 -16 -24 -30 0 -16 32 -12 51 15 61 14 5 25 11 25 14 0 20 -16 36 -35 36
-15 0 -26 8 -30 20 -3 11 -17 23 -30 26 -19 5 -26 15 -30 43 -6 38 -8 41 -40
86 l-19 28 44 38 c25 22 50 39 55 39 17 0 105 81 105 96 0 17 37 33 62 26 10
-2 27 -17 38 -32z m-1985 10 c3 -5 17 -10 29 -10 13 0 29 -7 36 -15 7 -8 18
-15 24 -15 6 0 29 -17 50 -37 32 -29 37 -39 28 -53 -8 -13 -5 -23 14 -46 45
-56 25 -91 -25 -42 -17 17 -35 28 -39 24 -4 -4 0 -13 8 -19 16 -12 40 -60 40
-78 0 -6 -8 -9 -17 -8 -10 1 -31 -1 -47 -6 -22 -6 -31 -4 -38 9 -11 20 -38 21
-38 1 0 -8 7 -15 15 -15 18 0 19 -12 3 -29 -11 -10 -8 -16 15 -33 28 -20 35
-42 16 -53 -10 -7 -63 30 -116 79 -19 19 -20 23 -7 37 13 15 10 18 -35 33 -66
21 -78 21 -58 -2 10 -10 17 -29 17 -41 0 -20 -4 -22 -42 -19 -40 3 -43 5 -43
33 0 45 41 84 88 85 47 0 46 23 -1 28 -42 4 -44 32 -3 32 33 0 51 17 27 26 -9
3 -16 12 -16 20 0 20 76 19 84 -1 7 -18 60 -21 54 -3 -3 7 -13 15 -24 18 -24
6 -74 40 -74 50 0 4 9 19 21 34 21 27 43 33 54 16z m1735 -7 c62 -8 65 -11 40
-38 -29 -31 -84 -57 -104 -49 -20 8 -30 46 -22 80 6 21 11 25 29 19 12 -4 38
-9 57 -12z m1914 -234 c76 -54 113 -186 65 -238 -23 -25 -48 -22 -89 10 -14
11 -39 26 -55 33 -17 8 -48 39 -69 70 l-38 55 22 36 c21 34 66 62 102 64 10 1
37 -13 62 -30z m-629 -25 c28 -9 57 -20 65 -25 8 -5 26 -14 39 -19 31 -14 171
-155 171 -173 0 -8 13 -38 30 -68 26 -48 30 -64 30 -139 0 -47 -7 -112 -15
-143 -28 -107 -15 -197 28 -197 21 0 26 21 25 115 -1 144 12 266 30 272 19 8
63 -42 95 -105 26 -53 49 -68 71 -46 21 21 20 39 -4 90 -17 33 -35 50 -92 83
-39 23 -74 41 -78 41 -10 0 -90 89 -90 100 0 23 15 40 34 40 12 0 32 11 44 25
24 27 30 29 51 16 10 -6 11 -13 3 -27 -8 -14 -5 -25 10 -47 27 -38 148 -137
167 -137 21 0 51 -30 51 -52 0 -11 14 -60 31 -110 39 -111 37 -164 -9 -258
-18 -37 -36 -93 -40 -129 -9 -60 -12 -66 -69 -120 -116 -109 -90 -99 -291
-107 l-178 -7 -59 45 c-53 39 -101 64 -157 82 -24 7 -23 22 2 29 11 3 20 9 20
14 0 7 -76 34 -143 49 -15 3 -30 10 -33 15 -3 5 -14 9 -24 9 -11 0 -39 6 -62
14 -24 8 -96 22 -161 31 -118 17 -118 17 -115 44 3 24 -1 27 -42 33 -25 3 -82
7 -127 7 -80 1 -171 18 -209 40 -45 25 -112 49 -155 55 -39 6 -48 4 -53 -10
-9 -23 -1 -29 69 -48 90 -26 147 -50 146 -61 -1 -12 -93 -13 -138 -2 -30 8
-36 5 -67 -29 -38 -41 -57 -40 -38 1 17 36 15 45 -8 45 -19 0 -70 -66 -70 -89
0 -6 -12 -32 -28 -58 -15 -26 -38 -70 -50 -98 -13 -27 -27 -58 -33 -67 -5 -10
-9 -23 -9 -29 0 -6 -6 -25 -14 -42 -8 -18 -18 -45 -23 -62 -8 -26 -18 -32 -79
-50 -38 -11 -74 -23 -81 -28 -6 -4 -46 -14 -88 -23 -62 -13 -82 -13 -106 -4
-16 7 -29 18 -29 25 0 6 30 28 67 47 37 19 68 39 70 45 2 5 -5 18 -14 29 -36
40 -63 84 -63 101 -1 10 -7 29 -15 43 -8 14 -14 42 -15 62 0 29 -5 40 -24 50
-45 24 -246 212 -246 230 0 20 -25 4 -74 -49 -51 -54 -54 -56 -107 -57 -48 -1
-54 -4 -57 -24 -2 -15 4 -25 20 -32 20 -9 35 -6 88 21 63 31 145 42 159 21 3
-5 16 -14 27 -20 12 -6 24 -19 26 -29 4 -17 -4 -18 -101 -15 l-107 3 -37 -38
c-21 -21 -41 -50 -44 -65 -3 -16 -10 -28 -16 -28 -17 0 -47 32 -47 51 0 10 -4
20 -9 23 -14 9 -33 132 -26 168 10 49 46 98 72 98 12 0 25 -4 28 -10 11 -18
25 -10 25 14 0 13 -7 29 -15 36 -20 17 -19 80 2 110 55 80 181 115 253 71 43
-26 50 -26 50 -1 0 20 35 29 42 11 2 -5 15 -12 29 -16 20 -5 28 -2 33 11 12
32 -3 54 -39 54 -47 0 -65 9 -65 32 0 23 53 48 103 48 66 0 122 -29 202 -103
88 -81 112 -94 133 -74 12 13 12 16 -3 28 -48 41 -56 53 -40 62 24 13 51 -1
115 -60 57 -52 173 -120 281 -163 48 -19 76 -14 66 14 -7 17 -70 59 -107 71
-48 15 -139 67 -182 104 -78 68 -86 71 -173 71 -78 1 -81 1 -124 39 -90 77
-13 98 117 32 42 -21 111 -49 152 -61 41 -12 86 -26 100 -31 14 -5 41 -10 60
-11 78 -6 27 51 -60 67 -85 15 -228 67 -250 90 -38 41 -21 58 53 53 48 -4 73
-12 112 -37 44 -28 57 -32 106 -29 47 2 61 -1 90 -23 62 -47 95 -59 165 -59
92 0 172 28 324 113 48 28 102 54 164 83 55 25 220 26 256 1 41 -28 60 -23 60
18 0 31 5 39 37 58 41 24 126 54 158 56 11 1 43 -6 70 -15z m-3095 -84 c0 -5
-9 -10 -21 -10 -11 0 -17 5 -14 10 3 6 13 10 21 10 8 0 14 -4 14 -10z m-55
-30 c4 -6 21 -16 38 -24 47 -20 87 -61 87 -90 0 -14 5 -28 10 -31 6 -3 10 -17
10 -31 0 -38 85 -124 122 -124 45 0 68 -17 68 -50 0 -35 -23 -60 -55 -60 -13
0 -46 19 -76 45 -64 55 -102 59 -141 18 -28 -30 -58 -129 -58 -193 0 -46 -39
-152 -54 -147 -21 7 -36 53 -35 112 0 58 5 93 28 180 6 22 8 48 5 58 -7 22
-34 22 -34 -1 0 -10 -6 -26 -13 -37 -28 -43 -77 -238 -77 -305 0 -27 -4 -50
-10 -50 -16 0 -41 71 -47 138 -4 43 -10 62 -19 62 -8 0 -14 -4 -14 -10 0 -5
-7 -10 -16 -10 -14 0 -16 14 -11 113 3 61 9 125 13 141 7 29 7 29 -16 13 -26
-18 -60 -97 -60 -138 0 -33 -29 -119 -41 -119 -23 0 -24 161 -1 207 9 18 26
64 43 118 6 19 26 40 54 58 24 15 72 59 107 97 l63 69 62 1 c34 0 65 -5 68
-10z m2290 -90 c3 -5 -7 -12 -22 -16 -15 -4 -34 -11 -40 -16 -18 -14 -115 -15
-120 -2 -2 7 11 15 29 18 18 4 51 11 73 15 57 12 73 12 80 1z m-1087 -693 c2
-10 -3 -17 -12 -17 -10 0 -16 9 -16 21 0 24 23 21 28 -4z m-91 -41 c4 -7 24
-18 43 -25 22 -7 48 -28 68 -53 28 -36 32 -49 32 -102 0 -89 -29 -172 -67
-189 -31 -14 -65 -2 -106 35 -19 18 -63 44 -98 58 -47 18 -68 33 -82 58 -18
30 -18 35 -3 66 9 19 16 39 16 45 0 16 68 63 103 70 17 4 33 13 33 21 1 8 2
18 3 23 2 13 50 8 58 -7z m-765 -207 c29 -11 68 -32 86 -45 37 -29 112 -126
112 -147 0 -7 4 -17 9 -22 5 -6 26 -59 46 -120 54 -164 117 -287 145 -282 20
3 26 58 7 72 -19 13 -57 85 -57 106 0 8 -3 19 -7 23 -4 4 -13 26 -19 49 -7 23
-19 62 -28 86 -9 24 -15 46 -12 48 6 6 64 -24 103 -53 63 -48 85 -25 54 56
-11 29 -18 57 -15 61 3 5 23 14 44 20 117 35 300 -88 300 -201 0 -20 -7 -33
-21 -41 -20 -10 -21 -16 -14 -85 8 -84 12 -80 -76 -64 -94 18 -189 -4 -189
-43 0 -15 225 -10 253 5 30 16 32 -19 3 -60 -24 -35 -25 -42 -16 -88 5 -27 13
-62 18 -79 5 -16 6 -38 3 -48 -6 -16 -8 -16 -29 -2 -12 9 -22 22 -22 29 0 21
-124 149 -164 170 -29 16 -39 17 -49 7 -10 -10 6 -29 75 -94 105 -99 138 -145
144 -206 4 -36 0 -55 -19 -91 -21 -39 -31 -46 -67 -53 -23 -5 -53 -6 -66 -3
-21 6 -24 12 -24 56 0 27 5 52 10 55 6 3 10 13 10 21 0 8 -4 14 -10 14 -5 0
-10 -7 -10 -15 0 -8 -9 -19 -20 -25 -11 -6 -20 -21 -20 -34 0 -13 -6 -29 -14
-35 -12 -10 -21 -6 -46 16 l-31 28 90 89 c50 49 91 92 91 96 0 13 -27 19 -55
12 -32 -9 -96 -70 -121 -117 -10 -19 -22 -35 -26 -35 -4 0 -47 29 -94 65 -48
36 -93 65 -100 65 -8 0 -14 3 -14 8 0 4 -17 16 -37 27 -62 33 -226 160 -258
201 -46 57 -90 135 -103 179 -6 22 -17 59 -23 82 -15 49 -8 61 24 45 12 -6 43
-13 70 -17 51 -7 84 -21 111 -48 24 -23 61 -21 96 5 36 26 37 36 8 91 -12 23
-25 50 -30 59 -4 10 -8 42 -8 72 0 58 -12 78 -65 106 -22 12 -27 11 -45 -5
-11 -10 -20 -22 -20 -27 0 -13 -41 -70 -70 -96 -31 -28 -59 -37 -72 -24 -17
17 29 111 77 160 39 38 47 42 94 42 27 0 74 -9 103 -21z m1017 -18 c10 -7 11
-13 2 -30 -15 -26 -38 -27 -46 -1 -11 34 12 51 44 31z m-1064 -151 c6 -47 16
-95 24 -108 7 -13 10 -30 7 -38 -6 -16 -7 -15 -100 41 -32 19 -44 21 -68 13
-24 -8 -32 -8 -39 3 -14 23 -11 28 39 53 41 21 49 31 65 76 15 43 22 51 40 48
19 -3 23 -12 32 -88z"/>
<path d="M3146 4751 c-8 -12 3 -41 15 -41 12 0 12 37 0 45 -5 3 -12 1 -15 -4z"/>
<path d="M3024 4716 c-3 -7 -4 -40 -2 -72 3 -54 5 -59 27 -62 17 -3 30 4 43
20 24 32 22 53 -6 72 -14 8 -27 25 -31 36 -7 23 -23 26 -31 6z"/>
<path d="M2517 4653 c-4 -3 -7 -22 -7 -40 0 -33 2 -34 33 -31 25 2 33 8 35 26
6 38 -37 69 -61 45z"/>
<path d="M2187 4603 c-14 -13 -7 -110 8 -123 8 -7 15 -18 15 -26 0 -22 37 -36
60 -24 17 9 22 5 40 -29 24 -49 45 -61 104 -61 33 0 52 6 74 25 35 29 36 30
59 10 10 -8 37 -28 61 -45 42 -30 58 -66 25 -56 -10 2 -54 12 -99 21 -79 17
-81 17 -121 -3 -43 -22 -60 -49 -44 -65 7 -7 16 -5 27 4 20 17 169 18 200 1
10 -5 49 -13 87 -17 62 -7 67 -6 67 12 0 20 -82 110 -139 153 -68 51 -101 82
-101 96 0 8 -9 14 -20 14 -17 0 -20 -7 -20 -38 0 -40 -28 -82 -55 -82 -28 0
-55 38 -55 78 0 58 -7 62 -70 46 -30 -8 -60 -14 -67 -14 -18 0 -16 25 2 40 20
17 19 60 -2 76 -21 15 -27 17 -36 7z"/>
<path d="M2752 4532 c-45 -74 -46 -83 -12 -130 16 -23 30 -50 30 -60 0 -26 25
-56 38 -48 20 12 13 72 -15 125 l-26 52 26 27 c33 34 37 82 8 82 -12 0 -30
-18 -49 -48z"/>
<path d="M2510 4533 c0 -26 66 -73 103 -73 25 0 57 28 57 48 0 13 2 13 -60 16
-25 2 -57 6 -72 11 -16 4 -28 3 -28 -2z"/>
<path d="M3592 4473 c-20 -8 -62 -79 -78 -132 -7 -25 -14 -80 -14 -121 -1 -71
-10 -136 -24 -170 -9 -24 8 -40 50 -47 22 -3 51 -17 67 -31 24 -23 29 -24 41
-12 25 28 46 105 48 180 3 63 0 75 -14 78 -12 2 -20 -10 -32 -51 -9 -31 -16
-69 -16 -86 0 -35 -17 -46 -54 -37 -38 9 -40 38 -8 108 40 86 45 110 26 137
-15 21 -14 26 15 86 26 52 30 68 21 85 -6 11 -12 20 -13 19 -1 0 -8 -3 -15 -6z"/>
<path d="M2707 3932 c-22 -24 -21 -35 3 -57 39 -35 96 9 76 60 -8 21 -59 19
-79 -3z"/>
<path d="M2610 3907 c0 -11 55 -159 72 -194 21 -45 64 -83 93 -83 12 0 15 6
10 23 -4 12 -12 27 -19 32 -11 10 -76 136 -76 149 0 15 -53 76 -66 76 -8 0
-14 -1 -14 -3z"/>
<path d="M4883 3874 c-11 -30 11 -49 62 -52 51 -3 69 6 60 29 -13 35 -110 53
-122 23z"/>
<path d="M5115 3760 c-8 -13 11 -42 67 -101 23 -25 61 -82 83 -127 27 -55 46
-81 58 -82 13 0 17 8 17 32 0 52 -55 150 -125 222 -62 64 -87 77 -100 56z"/>
<path d="M1427 4013 c-15 -14 -6 -31 19 -37 20 -5 24 -11 18 -28 -4 -12 -1
-24 7 -29 7 -4 10 -11 6 -16 -4 -4 -17 -2 -27 5 -26 16 -63 16 -58 0 3 -7 13
-15 24 -17 10 -2 23 -9 27 -17 4 -8 13 -14 19 -14 7 0 31 -21 55 -47 28 -29
47 -43 53 -37 6 6 1 19 -15 36 -30 33 -31 38 -5 38 11 0 20 3 20 8 0 17 -33
54 -57 63 -25 9 -23 29 3 29 27 0 14 25 -26 48 -41 23 -53 26 -63 15z"/>
<path d="M1555 4000 c-8 -13 15 -24 27 -12 6 6 4 11 -6 15 -8 3 -18 2 -21 -3z"/>
<path d="M1260 3852 c0 -8 95 -82 105 -82 4 0 21 -11 39 -25 37 -28 56 -32 56
-10 0 17 -69 70 -117 91 -17 8 -34 18 -38 24 -7 12 -45 14 -45 2z"/>
<path d="M1385 3850 c-3 -6 2 -13 12 -17 9 -4 30 -19 45 -35 28 -28 48 -36 48
-18 0 15 -33 50 -46 50 -7 0 -14 7 -18 15 -6 17 -32 20 -41 5z"/>
<path d="M4130 3965 c0 -8 5 -15 10 -15 6 0 15 -11 20 -25 9 -25 30 -35 30
-15 0 14 -42 70 -52 70 -4 0 -8 -7 -8 -15z"/>
<path d="M3920 3897 c39 -31 90 -129 90 -171 0 -38 14 -55 24 -30 15 38 5 87
-26 135 -18 27 -41 52 -50 55 -10 3 -18 10 -18 15 0 5 -8 9 -17 9 -16 -1 -16
-2 -3 -13z"/>
<path d="M4190 3868 c0 -7 5 -20 10 -28 8 -12 10 -9 10 13 0 15 -4 27 -10 27
-5 0 -10 -6 -10 -12z"/>
<path d="M4134 3846 c-8 -21 -1 -49 14 -54 8 -2 12 7 12 27 0 33 -17 51 -26
27z"/>
<path d="M3775 3840 c3 -5 11 -10 16 -10 11 0 57 -51 76 -84 10 -19 12 -19 18
-4 8 20 -40 88 -61 88 -8 0 -14 5 -14 10 0 6 -9 10 -21 10 -11 0 -17 -4 -14
-10z"/>
<path d="M3806 3761 c-7 -11 3 -41 14 -41 5 0 10 -14 12 -32 2 -17 9 -33 16
-36 18 -6 16 57 -3 64 -8 4 -15 14 -15 24 0 21 -16 35 -24 21z"/>
<path d="M1195 3720 c3 -5 12 -10 20 -10 7 0 15 -7 19 -15 3 -8 14 -15 25 -15
11 0 23 -4 26 -10 3 -5 11 -10 16 -10 17 0 -25 49 -43 50 -9 0 -20 5 -23 10
-3 6 -15 10 -26 10 -11 0 -17 -4 -14 -10z"/>
<path d="M1136 3611 c-3 -5 8 -14 24 -20 17 -5 30 -15 30 -20 0 -6 5 -11 11
-11 6 0 28 -13 49 -30 43 -34 50 -36 50 -15 0 8 -4 15 -10 15 -5 0 -10 5 -10
11 0 15 -42 48 -61 49 -9 0 -22 7 -29 15 -14 17 -46 20 -54 6z"/>
<path d="M1126 3551 c-3 -5 1 -11 9 -15 15 -6 29 7 18 18 -9 9 -21 8 -27 -3z"/>
<path d="M1170 3515 c0 -8 6 -15 14 -15 22 0 28 17 10 24 -22 9 -24 8 -24 -9z"/>
<path d="M4010 3008 c-25 -12 -68 -38 -95 -59 -85 -62 -166 -100 -245 -115
-41 -8 -81 -21 -89 -28 -23 -24 22 -40 90 -32 59 6 104 26 234 106 65 40 76
44 153 48 74 4 85 7 103 30 11 14 19 35 17 46 -5 32 -107 34 -168 4z"/>
<path d="M4610 3016 c0 -8 6 -27 14 -43 46 -91 48 -99 44 -158 -3 -33 -11 -74
-18 -92 -22 -50 -5 -87 42 -91 32 -3 39 1 52 27 10 18 16 56 16 96 0 54 -6 80
-33 138 -45 96 -117 172 -117 123z"/>
<path d="M3846 2747 c-19 -14 -19 -14 0 -24 25 -13 91 -29 182 -43 78 -13 148
-7 176 13 17 12 16 14 -1 36 -16 20 -23 22 -41 12 -26 -14 -87 -14 -112 -1
-10 5 -56 12 -102 16 -65 5 -87 3 -102 -9z"/>
<path d="M941 3334 c-26 -30 -27 -44 -3 -44 20 0 52 29 52 47 0 22 -29 21 -49
-3z"/>
<path d="M836 3133 c-3 -4 -6 -31 -6 -62 0 -31 -5 -73 -11 -95 -8 -27 -8 -41
0 -49 18 -18 38 12 51 73 24 115 24 115 -3 127 -14 7 -28 9 -31 6z"/>
<path d="M2004 1475 c-10 -25 4 -47 28 -43 28 4 33 21 13 42 -20 20 -34 20
-41 1z"/>
<path d="M1970 1386 c0 -8 -7 -17 -16 -20 -9 -4 -14 -9 -11 -12 8 -9 58 27 51
37 -8 14 -24 11 -24 -5z"/>
<path d="M5485 2170 c-3 -5 -21 -10 -38 -10 -18 0 -44 -6 -59 -14 -15 -8 -40
-17 -57 -21 -17 -4 -33 -11 -36 -16 -4 -5 -16 -9 -28 -9 -12 0 -35 -7 -51 -15
-15 -8 -37 -15 -48 -15 -11 0 -34 -6 -51 -13 -42 -18 -123 -43 -164 -52 -18
-4 -35 -11 -38 -16 -4 -5 -15 -9 -25 -9 -21 0 -323 -95 -352 -111 -10 -5 -26
-9 -35 -9 -10 0 -31 -7 -47 -15 -15 -8 -35 -15 -43 -15 -8 0 -29 -6 -46 -14
-18 -8 -66 -24 -107 -36 -41 -12 -79 -26 -85 -31 -5 -5 -18 -9 -30 -9 -11 0
-33 -7 -49 -15 -15 -8 -36 -15 -45 -15 -9 0 -29 -7 -45 -15 -15 -8 -33 -15
-40 -15 -6 0 -23 -6 -37 -14 -14 -7 -42 -16 -61 -20 -20 -4 -39 -13 -42 -21
-3 -8 -14 -15 -25 -15 -11 0 -37 -7 -58 -16 -101 -43 -151 -62 -198 -73 -17
-4 -39 -12 -50 -18 -26 -13 -81 -33 -124 -43 -18 -5 -38 -13 -44 -19 -6 -6
-21 -11 -34 -11 -16 0 -27 -8 -33 -26 -8 -19 -15 -24 -29 -19 -22 7 -150 -12
-166 -24 -5 -5 -29 -12 -52 -16 -24 -4 -45 -11 -49 -16 -3 -5 -13 -9 -22 -9
-9 0 -30 -7 -46 -15 -15 -8 -36 -15 -45 -15 -9 -1 -34 -9 -56 -20 -22 -11 -48
-19 -57 -20 -9 0 -20 -5 -23 -10 -3 -5 -14 -10 -23 -10 -9 0 -30 -7 -46 -15
-15 -8 -36 -15 -45 -15 -9 0 -29 -7 -45 -15 -15 -8 -35 -15 -43 -15 -8 0 -29
-6 -46 -14 -18 -8 -61 -24 -97 -35 -36 -12 -74 -25 -85 -30 -11 -5 -54 -19
-95 -31 -41 -13 -79 -27 -85 -31 -5 -5 -18 -9 -30 -9 -11 0 -32 -6 -47 -14
-15 -8 -41 -17 -59 -21 -19 -4 -40 -11 -49 -15 -8 -5 -44 -18 -80 -30 -36 -12
-74 -26 -85 -31 -11 -5 -45 -18 -75 -29 -59 -22 -74 -28 -133 -54 -21 -9 -66
-19 -100 -22 -34 -4 -85 -17 -112 -29 -28 -13 -63 -27 -78 -30 -15 -4 -30 -11
-33 -16 -3 -5 -13 -9 -22 -9 -9 0 -30 -7 -46 -15 -15 -8 -33 -15 -38 -15 -6 0
-24 -6 -41 -14 -58 -26 -157 -56 -184 -56 -69 0 -144 -53 -116 -81 10 -10 151
17 168 32 5 5 18 9 30 9 11 0 31 6 45 13 14 7 54 24 90 37 36 12 69 27 75 32
5 4 18 8 28 8 10 0 33 6 50 14 30 13 48 18 160 47 23 6 51 15 62 19 11 5 36
12 55 16 19 3 40 10 45 14 6 4 24 10 40 14 29 7 145 52 212 82 17 8 38 14 46
14 9 0 19 5 22 10 3 6 14 10 23 10 9 0 29 6 44 14 15 8 40 17 57 21 17 4 33
11 36 16 4 5 16 9 28 9 12 0 35 7 50 15 15 8 43 17 63 21 19 3 37 10 40 15 3
5 12 9 21 9 8 0 29 6 46 14 49 21 202 76 213 76 5 0 22 7 37 15 15 8 43 17 63
21 19 3 37 10 40 15 3 5 13 9 22 9 9 0 30 7 46 15 15 8 36 15 45 15 9 0 28 6
43 14 15 8 42 17 60 21 18 4 38 11 43 15 6 4 26 11 45 15 19 4 41 11 50 15 42
21 128 50 148 50 16 0 22 -6 22 -22 0 -13 9 -38 20 -56 11 -18 20 -35 20 -37
0 -3 -17 -5 -37 -5 -39 0 -117 -21 -166 -46 -16 -8 -37 -14 -47 -14 -9 0 -23
-7 -30 -15 -7 -8 -22 -15 -34 -15 -11 0 -30 -7 -40 -15 -11 -8 -31 -15 -45
-15 -14 -1 -37 -7 -51 -15 -14 -8 -37 -14 -51 -15 -15 0 -40 -7 -55 -15 -16
-8 -36 -15 -44 -15 -17 0 -65 -23 -115 -55 -85 -53 -97 -88 -38 -105 42 -13
112 1 213 40 30 12 84 30 120 41 191 60 234 68 243 45 4 -9 4 -22 1 -29 -2 -7
2 -21 10 -32 12 -17 28 -20 106 -21 83 -2 97 1 150 27 33 16 65 29 72 29 8 0
23 7 34 15 17 11 120 35 157 35 4 0 7 -9 7 -20 0 -28 22 -34 57 -17 15 8 47
18 70 22 24 4 45 11 49 16 3 5 22 9 43 9 21 0 57 6 82 14 24 8 74 17 111 20
66 5 68 4 81 -22 8 -18 19 -26 32 -24 66 11 103 20 122 30 12 7 29 12 37 12 9
0 45 20 82 45 36 25 68 45 71 45 3 0 22 12 42 28 20 15 45 32 56 38 28 16 30
39 5 64 -24 24 -22 44 6 48 18 3 62 21 116 49 14 7 33 13 41 13 8 0 20 7 27
15 7 8 23 15 35 15 12 0 28 7 35 15 7 8 23 15 35 15 12 0 28 7 35 15 7 8 26
15 42 15 16 0 31 6 34 15 4 8 18 15 34 15 15 0 33 7 40 15 7 8 22 15 34 15 12
0 31 7 42 15 10 8 29 15 40 15 12 0 27 7 34 15 7 8 25 15 40 15 15 0 33 7 40
15 7 8 23 15 35 15 12 0 28 7 35 15 7 8 25 15 41 15 19 0 29 5 29 15 0 11 -11
15 -35 15 -22 0 -38 -6 -41 -15 -4 -8 -18 -15 -34 -15 -16 0 -30 -7 -34 -15
-3 -9 -18 -15 -36 -15 -18 0 -33 -6 -36 -15 -4 -9 -19 -15 -40 -15 -22 0 -37
-6 -40 -15 -4 -8 -18 -15 -34 -15 -15 0 -33 -7 -40 -15 -7 -8 -25 -15 -40 -15
-15 0 -33 -7 -40 -15 -7 -8 -23 -15 -36 -15 -12 0 -29 -7 -38 -15 -8 -8 -23
-15 -33 -15 -10 0 -27 -7 -37 -15 -11 -8 -29 -15 -40 -15 -12 0 -30 -7 -40
-15 -11 -8 -28 -15 -38 -15 -10 0 -26 -4 -36 -10 -9 -5 -39 -19 -67 -30 -27
-11 -57 -25 -65 -30 -8 -6 -25 -15 -38 -20 -13 -6 -30 -17 -39 -26 -17 -17
-54 -15 -60 3 -2 6 8 22 23 36 36 34 24 47 -36 40 -46 -5 -50 -4 -50 16 0 12
8 24 18 27 9 4 33 13 52 21 54 22 71 29 120 48 47 17 79 31 143 59 21 9 44 16
52 16 50 0 225 122 225 157 0 29 -17 28 -265 -7 -55 -8 -133 -26 -180 -42 -16
-5 -43 -14 -60 -18 -48 -14 -119 -39 -137 -50 -10 -6 -24 -10 -33 -10 -8 0
-29 -6 -47 -14 -18 -8 -53 -22 -78 -31 -25 -10 -59 -24 -76 -33 -24 -11 -35
-12 -52 -3 -11 6 -40 11 -64 11 -59 0 -118 11 -118 21 0 16 64 49 93 49 15 0
35 4 45 9 9 6 51 20 92 32 41 12 82 26 90 30 8 4 110 37 225 74 116 37 218 71
227 76 10 5 26 9 35 9 10 0 30 6 45 14 14 8 45 17 67 21 23 4 43 11 47 16 3 5
15 9 27 9 12 0 35 7 51 15 15 8 38 15 50 15 11 0 34 7 50 15 15 8 38 15 50 15
11 0 34 7 50 15 15 8 36 15 45 15 9 0 29 7 45 15 15 8 37 15 48 15 11 0 34 6
51 13 18 8 59 22 92 32 147 43 185 63 185 101 0 16 -16 19 -25 4z m-1233 -738
c-3 -56 28 -113 58 -105 21 6 28 -11 10 -22 -8 -5 -7 -11 1 -21 19 -23 -4 -59
-57 -90 -52 -31 -88 -33 -245 -19 -60 6 -82 4 -107 -9 -17 -9 -52 -16 -77 -16
-26 0 -55 -5 -66 -10 -11 -6 -83 -16 -162 -21 -147 -11 -211 -23 -238 -46 -8
-7 -26 -13 -40 -13 -13 -1 -35 -7 -49 -15 -33 -19 -66 -19 -74 0 -3 8 -16 15
-30 15 -29 0 -44 33 -25 56 7 9 35 27 61 40 29 15 54 36 61 52 13 30 42 76 72
112 12 15 40 30 70 38 28 7 68 21 90 31 70 32 198 70 257 77 43 5 63 3 89 -11
20 -10 65 -19 109 -22 62 -4 88 0 150 21 41 14 91 24 110 23 35 -2 35 -2 32
-45z"/>
<path d="M5505 1840 c-3 -5 -15 -10 -25 -10 -10 0 -25 -6 -33 -14 -8 -8 -32
-22 -53 -31 -37 -15 -52 -20 -156 -46 -24 -5 -47 -14 -52 -20 -6 -5 -17 -9
-25 -9 -9 0 -29 -7 -45 -15 -15 -8 -33 -15 -38 -15 -11 0 -134 -53 -200 -87
-14 -7 -33 -13 -41 -13 -8 0 -20 -6 -27 -14 -6 -8 -23 -16 -37 -18 -15 -2 -28
-9 -31 -17 -3 -10 4 -12 29 -8 32 5 183 56 204 69 6 3 26 10 45 16 19 6 60 20
90 32 30 12 66 24 80 27 14 3 34 12 45 19 11 8 29 14 41 14 12 0 27 7 34 15 7
8 23 15 35 15 12 0 28 7 36 16 8 10 21 13 36 9 13 -3 38 1 56 9 18 8 42 17 55
21 24 7 46 40 37 55 -8 13 -52 13 -60 0z"/>
<path d="M5390 1715 c0 -17 2 -18 24 -9 18 7 12 24 -10 24 -8 0 -14 -7 -14
-15z"/>
<path d="M5480 1683 c-21 -7 -99 -42 -133 -59 -16 -8 -35 -14 -42 -14 -7 0
-26 -6 -42 -14 -45 -23 -100 -46 -111 -46 -6 0 -23 -6 -39 -14 -31 -16 -39
-19 -168 -71 -49 -21 -99 -41 -110 -45 -11 -5 -42 -18 -70 -30 -27 -11 -57
-25 -65 -30 -16 -11 -30 -17 -55 -25 -28 -8 -15 -25 20 -25 19 0 35 5 35 10 0
6 9 10 21 10 21 0 66 17 122 46 16 8 34 14 40 14 7 1 30 9 52 20 22 11 44 19
49 20 5 0 37 13 70 29 34 15 79 36 101 45 22 9 52 24 67 32 14 7 33 14 42 14
9 0 16 4 16 9 0 5 15 12 34 15 19 4 39 13 46 21 8 9 30 15 59 15 55 0 107 34
96 63 -7 18 -11 19 -35 10z"/>
<path d="M4693 1513 c-7 -2 -13 -9 -13 -15 0 -14 43 -6 48 10 4 12 -12 15 -35
5z"/>
<path d="M3513 973 c-35 -7 -27 -23 11 -23 38 0 55 14 30 24 -9 3 -16 5 -17 5
-1 -1 -12 -4 -24 -6z"/>
<path d="M3320 900 c0 -5 -15 -10 -34 -10 -18 0 -39 -7 -46 -15 -7 -8 -21 -15
-31 -15 -10 0 -35 -8 -54 -17 -35 -17 -38 -17 -67 0 -33 19 -60 22 -86 8 -40
-22 -86 -41 -98 -41 -7 0 -30 -9 -51 -19 -21 -11 -69 -33 -108 -50 -38 -18
-77 -36 -86 -41 -9 -5 -33 -12 -53 -15 -20 -4 -39 -11 -42 -16 -3 -5 -16 -9
-30 -9 -56 0 -144 -58 -144 -95 0 -23 32 -18 98 15 34 16 66 30 72 30 7 0 28
7 48 16 21 8 51 21 67 28 17 7 59 27 95 44 36 18 70 32 77 32 6 0 18 6 26 14
8 8 49 19 93 25 43 6 83 16 88 21 6 6 32 10 58 10 27 0 56 4 66 10 37 20 112
50 126 50 9 0 16 7 16 15 0 8 9 15 19 15 11 0 23 5 26 10 4 6 -5 10 -19 10
-14 0 -26 -4 -26 -10z"/>
</g>
</svg>
