<?xml version="1.0" standalone="no"?>
<!DOCTYPE svg PUBLIC "-//W3C//DTD SVG 20010904//EN"
 "http://www.w3.org/TR/2001/REC-SVG-20010904/DTD/svg10.dtd">
<svg version="1.0" xmlns="http://www.w3.org/2000/svg"
 width="342.000000pt" height="135.000000pt" viewBox="0 0 342.000000 135.000000"
 preserveAspectRatio="xMidYMid meet">
<metadata>
Created by potrace 1.10, written by Peter Selinger 2001-2011
</metadata>
<g transform="translate(0.000000,135.000000) scale(0.100000,-0.100000)"
fill="#000000" stroke="none">
<path d="M1134 888 c-10 -14 -3 -372 7 -382 3 -3 28 -7 55 -8 45 -3 49 -1 52
20 3 21 0 23 -25 20 l-28 -3 -1 171 c-1 94 -4 176 -8 183 -10 15 -41 14 -52
-1z"/>
<path d="M1563 872 l-21 -28 23 -22 c29 -28 36 -28 65 3 l23 25 -23 25 c-29
31 -40 31 -67 -3z"/>
<path d="M2154 859 c-4 -7 -6 -66 -5 -131 2 -94 -1 -124 -13 -143 -9 -13 -17
-39 -18 -57 -3 -28 1 -34 20 -36 38 -6 49 14 57 94 6 62 10 75 23 72 10 -2 18
-15 20 -30 2 -15 10 -32 18 -38 8 -7 14 -23 14 -35 0 -29 43 -65 70 -58 14 4
20 14 20 32 0 15 7 36 15 47 8 10 15 29 15 40 0 12 7 27 15 34 8 7 15 21 15
31 0 27 19 33 25 7 3 -13 6 -61 7 -108 3 -83 3 -85 28 -85 23 0 25 4 28 59 2
39 -2 70 -13 93 -12 26 -16 57 -14 120 3 70 0 88 -12 96 -24 15 -49 1 -49 -26
0 -14 -7 -30 -15 -37 -8 -7 -15 -25 -15 -40 0 -15 -7 -33 -15 -40 -8 -7 -15
-25 -15 -40 0 -16 -7 -30 -15 -34 -8 -3 -15 -17 -15 -31 0 -16 -6 -25 -15 -25
-9 0 -15 9 -15 24 0 13 -7 29 -15 36 -8 7 -15 28 -15 47 0 21 -6 36 -15 39 -8
4 -15 18 -15 34 0 15 -6 30 -14 33 -8 3 -16 18 -18 34 -3 30 -39 45 -54 22z"/>
<path d="M890 820 c0 -27 -5 -43 -15 -46 -8 -4 -15 -18 -15 -34 0 -16 -7 -35
-15 -44 -8 -8 -15 -26 -15 -41 0 -14 -7 -28 -15 -31 -9 -4 -15 -19 -15 -39 0
-22 -7 -37 -22 -47 -27 -18 -18 -48 15 -48 29 0 67 42 67 75 0 24 2 25 75 25
l75 0 0 -34 c0 -37 12 -51 52 -61 21 -5 29 -3 34 10 5 11 1 21 -9 27 -11 6
-17 22 -17 44 0 22 -6 37 -15 40 -8 4 -15 18 -15 33 0 14 -7 35 -15 45 -8 11
-15 32 -15 47 0 15 -7 29 -15 33 -10 3 -15 19 -15 46 l0 40 -45 0 -45 0 0 -40z
m60 -73 c0 -18 7 -43 16 -55 23 -33 12 -53 -28 -48 -18 3 -36 5 -40 5 -14 2
-8 48 7 61 8 7 15 25 15 40 0 14 3 30 6 33 13 13 24 -5 24 -36z"/>
<path d="M1287 773 c-4 -3 -7 -57 -7 -120 0 -102 2 -115 21 -134 17 -17 34
-22 84 -21 75 0 105 21 105 76 0 18 7 39 15 46 10 9 15 32 15 77 0 56 -3 65
-22 72 -24 8 -68 3 -68 -9 0 -4 7 -13 15 -20 19 -16 19 -79 0 -104 -8 -11 -15
-29 -15 -41 0 -12 -11 -32 -25 -45 l-25 -24 -21 23 c-18 19 -20 32 -18 114 2
51 -1 98 -5 105 -8 13 -38 16 -49 5z"/>
<path d="M1579 763 c-2 -22 3 -258 6 -261 2 -2 19 -5 40 -7 41 -4 60 19 32 40
-14 10 -17 31 -17 124 l0 111 -30 0 c-16 0 -30 -3 -31 -7z"/>
<path d="M1700 636 c0 -127 1 -135 20 -141 37 -12 48 9 42 81 -4 51 -2 67 11
77 8 7 17 21 19 32 3 16 11 20 43 20 l40 0 1 -99 c1 -82 4 -102 17 -110 12 -8
22 -8 35 0 15 10 17 25 14 110 -2 68 -8 109 -20 132 -16 30 -20 32 -70 32 -38
0 -54 -4 -58 -15 -4 -8 -17 -15 -30 -15 -14 0 -27 7 -30 15 -4 8 -12 15 -20
15 -11 0 -14 -26 -14 -134z"/>
<path d="M2572 558 c-29 -29 -3 -72 40 -66 19 2 23 9 23 38 0 30 -4 35 -25 38
-14 2 -31 -3 -38 -10z"/>
</g>
</svg>
