<?xml version="1.0" standalone="no"?>
<!DOCTYPE svg PUBLIC "-//W3C//DTD SVG 20010904//EN"
 "http://www.w3.org/TR/2001/REC-SVG-20010904/DTD/svg10.dtd">
<svg version="1.0" xmlns="http://www.w3.org/2000/svg"
 width="300.000000pt" height="348.000000pt" viewBox="0 0 300.000000 348.000000"
 preserveAspectRatio="xMidYMid meet">
<metadata>
Created by potrace 1.10, written by Peter Selinger 2001-2011
</metadata>
<g transform="translate(0.000000,348.000000) scale(0.100000,-0.100000)"
fill="#000000" stroke="none">
<path d="M1714 3448 c-48 -42 -140 -166 -179 -241 -17 -33 -35 -55 -42 -52
-24 9 -187 -16 -257 -39 l-70 -24 -48 42 c-57 50 -191 132 -231 142 -25 6 -35
0 -81 -48 -89 -92 -145 -236 -130 -336 8 -51 19 -60 46 -35 26 23 50 71 78
158 13 39 38 103 56 143 l33 73 28 -18 c29 -18 117 -85 166 -126 l28 -23 -24
-11 c-48 -22 -146 -124 -174 -181 -24 -48 -28 -69 -27 -137 0 -51 6 -94 16
-117 16 -36 16 -37 -8 -53 -117 -76 -71 -252 99 -381 61 -46 208 -124 234
-124 18 0 16 -7 -8 -42 -12 -16 -30 -51 -39 -76 l-18 -47 -109 3 c-127 3 -405
30 -413 40 -3 4 -24 30 -45 57 -53 67 -206 225 -217 225 -6 0 41 -54 104 -119
62 -66 121 -134 131 -153 l19 -33 -34 36 c-84 91 -233 265 -233 274 0 21 -66
53 -122 59 -72 8 -224 -9 -235 -26 -32 -51 81 -108 213 -108 53 0 119 22 119
39 0 26 27 1 155 -144 75 -85 137 -155 138 -155 1 0 38 -7 82 -15 125 -25 292
-45 365 -45 l67 0 7 -57 c17 -148 120 -254 277 -286 l61 -12 -61 -73 c-85
-101 -235 -301 -253 -337 -13 -26 -15 -78 -10 -367 l5 -338 -56 0 c-110 0
-217 -62 -217 -125 0 -62 59 -87 142 -60 76 25 168 75 185 102 14 20 13 54 -2
313 -9 159 -16 322 -13 362 l3 73 86 85 c47 47 104 108 126 137 l40 51 6 -106
c13 -221 87 -403 216 -533 120 -121 283 -187 526 -214 l60 -6 3 -122 c4 -194
12 -264 32 -282 18 -16 113 -36 165 -34 20 1 13 4 -20 9 -27 4 -69 13 -93 19
-54 15 -65 40 -60 143 2 42 -1 74 -5 71 -5 -3 -7 37 -7 89 1 51 0 100 -3 108
-3 8 -8 98 -11 200 -3 102 -11 214 -17 250 -17 93 -17 114 2 118 25 5 30 -21
40 -203 4 -93 11 -197 14 -230 3 -33 8 -125 10 -205 3 -130 14 -212 28 -227 3
-2 14 0 25 6 15 8 22 8 25 -2 3 -7 6 -5 6 6 1 9 8 17 17 17 14 0 15 -2 3 -17
-13 -16 -12 -17 3 -4 10 7 15 17 12 22 -8 13 10 11 25 -3 11 -11 13 -10 7 5
-5 16 -2 18 27 12 24 -5 28 -4 17 4 -20 14 61 15 112 1 44 -12 53 -32 33 -70
-27 -52 -94 -84 -195 -93 -19 -1 6 -6 57 -11 112 -10 157 6 186 66 17 34 17
39 2 68 -9 18 -31 38 -50 46 -68 28 -213 11 -281 -33 -24 -15 -21 -27 -40 198
l-6 76 131 5 c119 5 137 8 189 34 90 45 113 93 133 264 18 163 -11 330 -87
489 -138 292 -372 449 -676 454 -60 1 -107 4 -105 7 1 3 16 30 32 60 27 50 30
64 30 150 0 71 -4 104 -17 129 -10 19 -18 35 -18 37 0 10 340 204 450 258 18
9 41 49 93 166 125 284 113 264 139 246 50 -35 227 -8 309 47 18 12 40 34 48
49 13 23 13 28 1 43 -13 16 -28 17 -125 12 -63 -3 -136 -14 -170 -24 -51 -16
-65 -26 -97 -68 -45 -59 -160 -287 -185 -367 l-18 -56 -85 -33 c-101 -38 -308
-140 -367 -181 l-43 -29 -30 22 c-16 13 -30 25 -30 29 0 3 12 13 28 22 49 29
132 122 159 177 31 63 41 151 23 206 -14 42 -75 115 -96 115 -11 0 -14 18 -14
80 0 98 -25 170 -80 232 -44 51 -132 101 -205 118 -27 7 -56 14 -63 16 -15 4
30 94 94 189 67 99 58 95 110 45 25 -25 82 -89 125 -142 72 -88 144 -148 177
-148 23 0 11 68 -23 138 -55 108 -193 226 -291 247 -27 5 -38 1 -70 -27z m124
-10 c118 -58 213 -172 218 -261 1 -21 5 -41 9 -45 5 -4 6 -2 2 3 -3 6 -2 17 4
25 6 11 9 8 9 -12 0 -16 -2 -28 -5 -28 -21 0 -90 59 -136 116 -55 68 -188 204
-199 204 -13 0 -132 -192 -165 -265 -45 -102 -49 -108 -63 -113 -24 -8 -11 51
25 116 73 133 196 292 225 292 5 0 40 -15 76 -32z m-850 -230 c43 -28 60 -44
53 -51 -8 -8 -18 -4 -33 10 -13 11 -44 34 -70 52 l-47 31 -34 -52 c-36 -57
-64 -121 -92 -208 -22 -66 -46 -112 -63 -118 -15 -5 -16 40 -1 55 12 12 14 21
24 98 4 35 4 37 -6 15 -6 -14 -13 -43 -15 -64 -5 -51 -14 -59 -14 -13 0 71 87
246 119 239 7 -1 10 2 7 7 -4 5 6 19 21 31 36 28 69 21 151 -32z m129 -94 c62
-53 88 -88 78 -104 -5 -8 -34 15 -80 61 -64 63 -80 89 -58 89 3 0 30 -21 60
-46z m372 -2 c-11 -29 6 -64 29 -60 9 2 26 21 37 43 16 31 25 39 43 37 12 -2
20 -7 17 -12 -3 -4 4 -6 14 -3 29 7 123 -39 174 -86 24 -22 52 -59 62 -81 10
-21 21 -38 24 -36 3 2 7 -6 8 -17 1 -12 5 -57 9 -99 5 -63 4 -78 -7 -78 -8 -1
2 -9 21 -18 85 -41 105 -184 42 -308 -36 -72 -131 -164 -217 -212 -33 -18 -49
-30 -35 -26 14 4 43 19 65 34 22 15 54 33 72 41 17 7 34 21 36 31 3 10 13 18
22 18 9 0 13 5 10 10 -3 6 1 13 9 16 9 3 16 12 16 20 0 8 5 14 11 14 5 0 7 5
4 10 -3 6 -2 10 2 10 5 0 16 23 26 50 10 28 21 50 25 50 9 0 7 134 -2 149 -4
6 -3 11 3 11 6 0 13 -17 17 -37 4 -21 10 -44 14 -52 23 -44 -53 -207 -122
-263 -23 -18 -57 -47 -77 -64 -42 -36 -58 -45 -132 -74 -30 -12 -48 -16 -41
-9 6 7 12 20 12 28 0 9 -11 0 -24 -19 -22 -32 -107 -109 -114 -102 -1 1 -9 -4
-18 -12 -8 -8 -21 -13 -29 -10 -8 4 -15 1 -15 -4 0 -29 -135 9 -220 62 -14 9
-50 25 -81 36 -219 79 -385 283 -325 398 15 28 78 82 95 82 6 0 11 4 11 9 0 5
-8 8 -17 7 -35 -3 -55 138 -32 230 8 29 17 44 28 44 12 0 13 2 4 8 -19 12 38
85 105 132 30 22 59 40 64 40 5 0 22 -13 38 -30 33 -34 42 -36 60 -15 11 13
11 20 0 40 -7 14 -17 25 -22 25 -4 0 -8 4 -8 9 0 4 33 17 73 29 101 29 104 30
179 29 65 -1 66 -1 57 -25z m1475 -238 c64 -24 -56 -102 -193 -126 -62 -11
-79 -10 -116 3 -41 15 -46 15 -59 0 -18 -20 -86 -167 -142 -303 -21 -54 -43
-98 -47 -98 -9 0 1 42 12 50 4 3 8 16 9 30 0 14 6 26 12 28 5 2 8 7 5 12 -7
11 119 259 150 294 14 16 25 34 25 40 0 17 49 43 95 51 22 4 37 4 33 1 -6 -8
-30 -14 -58 -15 -8 -1 -26 -11 -40 -22 l-25 -20 31 15 c17 8 43 17 58 20 54
10 70 17 55 27 -9 7 4 9 38 7 29 -1 56 1 59 5 9 9 77 9 98 1z m-575 -531 c0
-5 -50 -32 -111 -62 -151 -73 -328 -176 -356 -207 -12 -14 -27 -22 -34 -18 -6
4 -8 3 -5 -3 8 -12 -14 -23 -44 -23 -75 0 87 116 313 225 100 48 207 92 231
94 4 1 7 -2 6 -6z m-2095 -79 c9 -3 16 -11 16 -16 0 -7 -5 -7 -13 0 -7 6 -62
13 -123 15 l-109 3 107 2 c58 1 113 -1 122 -4z m-241 -11 c3 -5 57 -8 121 -7
64 1 119 -3 122 -8 3 -5 11 -4 19 2 18 15 29 -4 15 -29 -28 -53 -225 -49 -291
6 -29 25 -31 43 -4 43 8 0 16 -3 18 -7z m1801 -107 l29 -24 -37 -32 c-70 -62
-25 -100 61 -50 l31 18 6 -24 c4 -13 7 -27 7 -31 0 -5 4 -12 8 -18 5 -5 7 -46
6 -90 -1 -69 -6 -91 -37 -156 -70 -147 -235 -249 -402 -249 -56 0 -53 11 9 30
57 19 166 86 224 139 66 60 112 149 101 196 -4 19 -6 36 -3 39 5 5 -22 49 -52
85 -11 13 -34 30 -52 37 -35 15 -122 17 -163 4 -15 -5 2 -6 41 -3 85 7 130 -8
173 -59 42 -48 53 -102 35 -166 -25 -91 -201 -232 -334 -267 -73 -19 -79 -19
-142 0 -67 20 -144 89 -171 152 -41 99 -33 214 24 308 42 72 37 69 80 43 113
-71 203 -65 304 22 33 28 84 58 128 75 40 16 75 32 78 37 8 12 16 9 48 -16z
m-1015 -251 c85 -8 192 -15 238 -15 63 0 84 -3 80 -12 -7 -23 -276 -6 -442 26
-11 3 -30 5 -42 5 -13 1 -23 6 -23 12 0 6 8 8 18 5 9 -3 86 -12 171 -21z
m1180 -233 c20 7 22 5 16 -15 -19 -63 -90 -161 -109 -150 -6 3 -8 3 -4 -1 4
-5 -2 -17 -12 -29 -11 -11 -21 -19 -23 -16 -37 45 -37 51 -7 86 24 27 30 42
29 76 l-2 42 -6 -43 c-9 -52 -61 -112 -83 -95 -7 6 -24 13 -38 15 -22 3 -25
-1 -26 -31 0 -30 -5 -37 -35 -49 -18 -8 -64 -15 -101 -16 -57 -1 -71 2 -90 22
l-22 22 40 0 c92 0 226 59 315 139 50 45 55 47 95 41 23 -4 51 -3 63 2z m116
-8 c61 -7 135 -27 135 -36 0 -5 4 -7 10 -3 5 3 25 -3 45 -13 l35 -20 -41 -81
c-55 -111 -191 -280 -216 -270 -5 2 -53 49 -106 105 l-96 101 29 28 c17 16 38
29 47 30 10 1 45 7 77 14 84 16 124 14 192 -9 48 -17 56 -18 43 -5 -9 9 -22
17 -30 18 -8 2 -18 5 -24 8 -31 16 -189 6 -246 -16 -12 -5 -6 17 25 79 38 80
43 85 66 80 14 -4 39 -8 55 -10z m268 -104 c14 -11 30 -20 35 -20 6 0 20 -12
31 -26 12 -15 21 -24 21 -21 0 3 14 -7 31 -22 43 -40 89 -111 89 -139 0 -35
-41 -124 -55 -118 -8 3 -10 -4 -8 -18 6 -31 -67 -137 -155 -223 -41 -40 -70
-73 -64 -73 18 0 177 176 211 233 28 48 57 113 86 192 6 17 11 11 35 -35 16
-30 37 -77 46 -105 9 -27 19 -54 23 -60 11 -19 41 -185 41 -223 0 -15 -1 -61
0 -102 0 -85 -4 -110 -19 -139 -14 -25 -14 -34 -1 -26 34 21 -41 -97 -78 -124
-34 -24 -50 -26 -216 -36 l-119 -7 5 31 c2 17 0 32 -6 34 -6 2 6 12 26 21 100
48 235 162 292 248 41 62 96 176 96 198 -1 8 -14 -15 -30 -52 -16 -37 -47 -94
-69 -126 -51 -75 -171 -187 -252 -235 l-64 -37 -7 82 c-3 46 -9 135 -12 198
-10 181 -5 170 -153 337 l-51 59 47 47 c26 26 51 45 54 42 4 -3 5 -2 3 1 -3 3
16 33 40 67 25 34 60 92 77 129 17 37 35 68 38 68 3 0 18 -9 32 -20z m-545
-87 c65 -65 190 -203 185 -203 -3 0 32 -34 76 -76 45 -42 81 -81 81 -86 0 -6
-7 -5 -15 2 -30 25 -14 3 22 -31 34 -31 36 -31 13 -4 -22 27 -21 26 13 -5 l38
-35 -30 -14 c-29 -14 -32 -13 -87 29 -78 59 -244 227 -309 314 -50 66 -85 130
-85 156 0 27 46 5 98 -47z m-257 -43 c23 0 69 7 102 17 49 13 60 14 67 3 5 -8
6 -18 3 -24 -3 -5 -1 -6 4 -3 6 4 14 0 17 -9 14 -36 -177 -70 -264 -47 -32 9
-35 12 -36 49 -2 53 3 58 36 34 18 -13 44 -20 71 -20z m-125 -26 c-5 -36 -19
-62 -67 -122 -107 -135 -190 -214 -205 -199 -8 8 85 135 256 348 22 27 23 24
16 -27z m356 -42 c9 -15 53 -66 97 -113 l80 -87 -62 -30 c-126 -62 -181 -75
-317 -76 l-124 -1 -8 40 c-4 22 -10 94 -14 159 -7 115 -7 119 12 111 10 -5 62
-10 114 -12 74 -2 106 1 145 16 28 10 52 19 55 20 3 0 13 -11 22 -27z m251
-268 c34 -31 81 -67 105 -81 45 -26 55 -48 56 -118 1 -39 0 -41 -61 -73 -78
-41 -193 -71 -303 -78 -108 -7 -159 3 -179 38 -48 79 -71 121 -71 127 0 4 -12
31 -26 60 -14 29 -24 55 -22 57 2 1 44 8 93 14 107 13 200 40 275 80 30 16 59
29 63 30 5 0 37 -25 70 -56z m-878 -46 c-12 -36 -14 -316 -3 -531 l10 -198
-23 -26 c-28 -29 -117 -76 -176 -92 -52 -14 -88 -2 -97 33 -8 34 4 57 46 80
l33 18 -37 -32 c-21 -17 -38 -36 -38 -42 0 -5 13 4 29 21 16 17 37 31 46 31
12 0 15 5 11 16 -4 12 -2 15 9 10 8 -3 15 -1 15 4 0 5 15 7 33 4 25 -4 29 -3
17 5 -11 8 1 10 48 7 l62 -5 -4 157 c-4 126 -6 305 -5 545 0 9 7 17 16 17 11
0 13 -6 8 -22z m367 -39 c10 -29 79 -170 116 -236 20 -36 45 -43 166 -43 103
0 234 31 328 79 l75 37 7 -119 c3 -66 6 -139 6 -162 l0 -43 -64 -12 c-36 -7
-69 -9 -75 -5 -6 3 -11 1 -11 -4 0 -6 -5 -11 -11 -11 -5 0 -7 5 -4 10 3 6 -1
10 -10 10 -10 0 -14 -5 -10 -12 4 -7 1 -6 -7 2 -7 9 -47 21 -88 28 -213 35
-378 194 -459 441 -12 35 -21 66 -21 68 0 1 11 3 26 3 19 0 28 -7 36 -31z
m698 -514 c0 -11 -11 -15 -42 -15 -44 0 -43 15 2 23 14 2 28 5 33 6 4 0 7 -6
7 -14z m418 -402 c-15 -32 -46 -48 -108 -57 l-45 -6 46 19 c44 17 89 52 89 69
0 4 6 14 13 21 18 18 22 -11 5 -46z"/>
<path d="M1787 3433 c-4 -3 23 -38 61 -77 37 -39 84 -91 104 -116 20 -25 37
-42 38 -38 0 4 -14 23 -31 43 -17 19 -29 35 -26 35 3 0 -27 33 -66 73 -40 39
-71 75 -69 80 3 9 -2 9 -11 0z"/>
<path d="M779 3163 c-1 -5 -1 -11 0 -15 0 -5 -3 -8 -8 -8 -5 0 -17 -14 -25
-32 -19 -36 -19 -38 -7 -38 5 0 12 14 16 30 4 17 11 28 16 24 5 -3 9 -2 10 3
0 4 2 16 4 26 2 9 1 17 -1 17 -2 0 -5 -3 -5 -7z"/>
<path d="M1320 3117 c-25 -6 -38 -12 -30 -14 8 -1 38 3 65 11 58 17 31 19 -35
3z"/>
<path d="M1233 3090 c-34 -14 -28 -21 7 -9 17 6 30 13 30 15 0 6 -12 4 -37 -6z"/>
<path d="M1064 3001 c-69 -51 -109 -89 -102 -96 4 -4 22 8 41 27 19 18 54 48
77 66 24 17 39 32 33 32 -5 0 -28 -13 -49 -29z"/>
<path d="M1645 2986 c-63 -28 -107 -90 -126 -175 -14 -66 8 -148 55 -198 28
-31 40 -37 87 -40 40 -3 63 1 89 15 39 21 103 98 94 113 -3 5 -1 9 3 9 5 0 10
28 11 62 2 34 6 66 8 70 3 4 0 8 -7 8 -6 0 -9 8 -6 20 3 12 1 18 -5 14 -6 -4
-9 -1 -6 7 5 16 -47 76 -84 95 -33 17 -74 17 -113 0z m138 -49 c131 -123 3
-412 -153 -347 -122 51 -130 247 -15 348 30 27 44 32 85 32 41 0 54 -5 83 -33z"/>
<path d="M1653 2870 c-105 -64 -85 -260 27 -260 69 0 120 64 120 152 0 51 -30
105 -66 118 -35 14 -44 13 -81 -10z m87 -23 c56 -45 50 -158 -12 -201 -88 -62
-163 77 -91 166 15 18 32 36 38 40 15 11 48 9 65 -5z"/>
<path d="M1697 2800 c6 -22 -15 -28 -35 -8 -8 8 -14 5 -22 -16 -24 -65 -1
-126 49 -126 38 0 62 30 68 83 4 36 1 49 -16 66 -27 27 -51 28 -44 1z m28 -20
c-3 -5 -2 -10 4 -10 6 0 10 -16 9 -35 -1 -21 -6 -34 -12 -32 -6 3 -21 -5 -34
-17 -20 -17 -24 -18 -32 -6 -5 8 -10 30 -10 48 0 29 3 32 29 32 16 0 31 6 35
15 3 8 8 15 11 15 4 0 3 -4 0 -10z m0 -100 c3 -5 -1 -10 -9 -10 -9 0 -16 5
-16 10 0 6 4 10 9 10 6 0 13 -4 16 -10z"/>
<path d="M1040 2878 c-106 -54 -121 -209 -31 -312 47 -54 131 -68 187 -31 52
34 82 151 58 227 -14 47 -57 98 -98 118 -53 25 -62 25 -116 -2z m132 -29 c39
-28 78 -111 78 -167 0 -121 -102 -189 -191 -129 -106 71 -111 257 -9 310 41
21 79 16 122 -14z"/>
<path d="M1077 2784 c-15 -14 -29 -42 -33 -61 -8 -43 19 -116 53 -143 82 -64
171 39 127 149 -31 79 -98 104 -147 55z m93 -21 c49 -29 63 -88 35 -143 -40
-77 -144 -24 -132 67 13 97 34 113 97 76z"/>
<path d="M1119 2741 c8 -5 11 -16 7 -26 -5 -14 -9 -15 -21 -5 -13 11 -15 7
-15 -27 0 -87 108 -118 112 -32 3 64 -22 99 -69 99 -20 0 -24 -3 -14 -9z m63
-46 c10 -22 9 -28 -10 -41 -12 -8 -20 -20 -17 -25 4 -5 -3 -9 -14 -9 -14 0
-21 6 -21 18 0 10 -5 23 -11 29 -8 8 -6 13 9 17 11 4 23 13 26 21 8 23 25 18
38 -10z m8 -61 c0 -8 -4 -12 -10 -9 -5 3 -10 10 -10 16 0 5 5 9 10 9 6 0 10
-7 10 -16z"/>
<path d="M1770 2515 c0 -12 6 -27 13 -34 10 -10 8 -15 -8 -27 -59 -45 -224
-110 -251 -100 -8 3 -12 2 -9 -3 18 -31 -311 -36 -423 -7 l-73 18 6 32 6 31
-19 -31 c-11 -18 -31 -39 -43 -48 -13 -9 -19 -16 -13 -16 5 0 19 7 31 15 20
14 24 11 76 -53 209 -255 372 -312 521 -180 58 50 88 94 161 235 56 108 59
111 79 97 23 -16 36 -18 36 -6 0 4 -14 13 -30 19 -19 7 -36 24 -45 45 -10 24
-14 28 -15 13z m-10 -101 c0 -3 -14 -33 -32 -66 -19 -35 -36 -57 -44 -54 -60
23 -170 11 -233 -26 -19 -10 -43 -17 -53 -14 -38 9 -129 -30 -165 -73 l-23
-26 -42 45 c-56 59 -118 133 -114 137 1 2 16 -1 32 -7 47 -16 182 -25 279 -19
116 7 226 34 312 75 72 34 83 38 83 28z m-83 -143 c28 -15 -95 -161 -162 -192
-77 -36 -190 -17 -270 44 -20 15 -20 16 5 42 37 40 93 65 145 65 49 0 53 -4
28 -32 -9 -10 -14 -21 -11 -24 3 -3 15 10 27 29 29 47 44 58 99 73 45 12 113
10 139 -5z"/>
<path d="M1615 2230 c-3 -5 -3 -14 0 -20 3 -5 2 -10 -2 -10 -5 0 -14 -10 -22
-22 l-13 -23 23 22 c12 12 23 31 24 43 2 22 -1 25 -10 10z"/>
<path d="M1358 2333 c6 -2 18 -2 25 0 6 3 1 5 -13 5 -14 0 -19 -2 -12 -5z"/>
<path d="M1200 1930 c-21 -74 -18 -197 7 -250 11 -25 28 -54 37 -65 9 -11 3 8
-14 42 -26 53 -30 74 -30 140 0 43 5 95 11 116 6 21 8 44 6 50 -2 7 -10 -8
-17 -33z"/>
<path d="M2402 1393 c43 -45 91 -104 108 -130 16 -26 30 -44 30 -40 0 27 -125
179 -190 232 -14 11 10 -17 52 -62z"/>
<path d="M2586 1108 c23 -63 43 -148 44 -185 0 -17 4 -34 9 -38 11 -6 5 70
-10 135 -12 47 -46 130 -54 130 -2 0 3 -19 11 -42z"/>
<path d="M2630 833 c0 -21 3 -24 9 -14 5 8 7 20 4 28 -8 21 -13 15 -13 -14z"/>
<path d="M2590 688 c-12 -22 -12 -22 6 -6 10 10 15 20 12 24 -4 3 -12 -5 -18
-18z"/>
<path d="M2525 613 c-29 -26 -39 -40 -25 -33 14 7 29 19 33 27 5 7 14 10 20 7
7 -4 9 -3 4 1 -4 5 0 17 10 27 28 31 10 19 -42 -29z"/>
<path d="M2670 547 c-35 -38 -55 -65 -43 -59 23 13 118 120 112 126 -2 2 -33
-28 -69 -67z"/>
<path d="M2450 560 c-9 -6 -10 -10 -3 -10 6 0 15 5 18 10 8 12 4 12 -15 0z"/>
<path d="M2385 535 c-26 -12 -27 -14 -8 -15 12 0 25 5 28 10 4 6 11 7 17 4 7
-4 8 -2 4 4 -4 7 -8 12 -9 11 -1 0 -15 -7 -32 -14z"/>
<path d="M1897 1315 c23 -28 79 -86 124 -130 46 -44 72 -67 59 -50 -14 16 -49
53 -78 82 -29 29 -53 56 -52 60 0 4 -5 8 -11 8 -7 0 -15 8 -18 17 -3 9 -19 27
-36 40 -25 19 -24 15 12 -27z"/>
<path d="M2090 1197 c0 -2 15 -16 33 -33 l32 -29 -29 33 c-28 30 -36 37 -36
29z"/>
<path d="M1725 1400 c-3 -6 1 -7 9 -4 18 7 21 14 7 14 -6 0 -13 -4 -16 -10z"/>
<path d="M1520 1380 c8 -5 22 -9 30 -9 10 0 8 3 -5 9 -27 12 -43 12 -25 0z"/>
<path d="M1668 1373 c7 -3 16 -2 19 1 4 3 -2 6 -13 5 -11 0 -14 -3 -6 -6z"/>
<path d="M1618 1363 c6 -2 18 -2 25 0 6 3 1 5 -13 5 -14 0 -19 -2 -12 -5z"/>
<path d="M1418 1353 c-14 -21 -55 -75 -91 -120 -37 -46 -63 -83 -59 -83 4 0
18 14 32 31 14 17 37 45 53 62 15 17 27 34 27 38 0 3 9 17 20 30 11 13 23 29
28 34 9 12 23 45 18 45 -2 0 -15 -17 -28 -37z"/>
<path d="M1494 1280 c20 -100 27 -131 45 -180 26 -73 26 -46 0 35 -11 35 -18
69 -15 74 4 5 2 12 -4 16 -5 3 -10 16 -10 28 0 12 -5 29 -10 37 -8 12 -9 9 -6
-10z"/>
<path d="M1648 748 c6 -6 18 -8 28 -6 14 3 12 5 -9 10 -19 3 -25 2 -19 -4z"/>
<path d="M1738 693 c11 -15 42 -48 69 -73 l48 -45 -40 45 c-22 24 -43 46 -47
48 -5 2 -8 9 -8 15 0 7 -10 18 -21 26 l-22 13 21 -29z"/>
</g>
</svg>
