<?xml version="1.0" standalone="no"?>
<!DOCTYPE svg PUBLIC "-//W3C//DTD SVG 20010904//EN"
 "http://www.w3.org/TR/2001/REC-SVG-20010904/DTD/svg10.dtd">
<svg version="1.0" xmlns="http://www.w3.org/2000/svg"
 width="300.000000pt" height="237.000000pt" viewBox="0 0 300.000000 237.000000"
 preserveAspectRatio="xMidYMid meet">
<metadata>
Created by potrace 1.10, written by Peter Selinger 2001-2011
</metadata>
<g transform="translate(0.000000,237.000000) scale(0.100000,-0.100000)"
fill="#000000" stroke="none">
<path d="M2625 2341 c-76 -27 -193 -88 -255 -132 -60 -42 -148 -147 -201 -238
-33 -58 -35 -59 -84 -63 -27 -2 -63 -12 -78 -22 -34 -23 -30 -30 9 -16 16 6
43 9 61 5 l32 -6 -15 -32 -15 -32 -85 3 c-270 11 -484 -201 -484 -478 0 -69
22 -174 42 -198 10 -11 8 -16 -5 -24 -10 -5 -15 -13 -12 -18 3 -5 0 -12 -6
-16 -8 -4 -9 -3 -5 4 18 30 -87 37 -122 9 -7 -5 -13 -8 -15 -6 -1 2 -17 34
-36 72 -137 275 -616 429 -969 311 -136 -45 -274 -145 -301 -217 -15 -40 -14
-117 3 -165 42 -119 190 -278 365 -393 88 -58 108 -75 100 -88 -4 -9 -38 -76
-74 -149 -120 -245 -167 -300 -283 -326 -39 -9 -93 -16 -119 -16 -54 0 -79
-12 -68 -30 6 -10 41 -12 147 -7 138 6 172 15 162 42 -3 7 26 53 64 102 78 98
184 254 221 324 l24 45 90 -34 c50 -19 123 -41 162 -49 86 -18 233 -13 289 11
22 9 40 15 42 14 1 -2 -18 -46 -44 -98 -26 -52 -76 -155 -112 -229 -35 -73
-74 -139 -84 -147 -13 -9 -48 -14 -98 -14 -76 0 -109 -12 -65 -24 45 -12 123
-6 160 13 36 18 37 18 37 1 0 -13 -9 -20 -27 -23 -23 -3 -21 -4 9 -6 36 -1 37
0 36 32 -1 23 14 55 55 118 67 103 141 242 157 296 11 37 19 43 93 79 44 21
114 58 155 81 l74 42 42 -28 c37 -26 42 -35 52 -89 7 -33 33 -111 60 -174 26
-62 48 -131 49 -153 2 -39 3 -40 46 -47 65 -10 149 -9 149 1 0 5 -32 15 -70
21 -53 9 -74 17 -85 33 -7 12 -39 110 -69 217 -54 188 -58 196 -97 230 -36 31
-39 38 -33 68 6 30 9 32 34 27 16 -3 46 -23 67 -43 21 -20 94 -64 161 -97 111
-55 123 -63 133 -95 19 -56 76 -166 136 -259 31 -47 55 -97 55 -111 0 -42 8
-43 166 -24 64 8 50 24 -20 24 -110 0 -99 -11 -218 235 l-108 223 -113 55
c-63 31 -127 59 -144 62 l-30 7 25 -22 c23 -21 23 -21 2 -9 -38 23 -30 34 31
41 65 8 141 39 174 70 l23 22 28 -22 c95 -77 164 -126 212 -149 70 -33 165
-41 235 -19 l50 16 40 -45 c46 -52 62 -58 40 -15 -12 23 -12 30 -3 30 9 0 8 3
-2 10 -21 14 -32 12 -25 -3 4 -6 -3 -1 -14 12 -21 23 -23 23 -99 11 -86 -13
-170 -3 -219 25 -31 18 -37 19 62 -7 50 -12 158 -4 205 15 75 31 81 31 76 1
-6 -29 17 -56 40 -47 7 2 22 0 33 -6 13 -7 22 -8 26 -1 3 5 -14 20 -39 32 -46
22 -46 22 -25 41 22 20 43 66 34 75 -3 3 -15 -4 -28 -15 -12 -12 -49 -34 -82
-49 -53 -25 -72 -28 -165 -29 -95 0 -110 3 -158 28 -61 31 -66 32 -56 15 4 -8
3 -10 -2 -5 -5 5 -9 14 -9 20 0 5 -6 12 -14 15 -9 3 -11 0 -6 -9 5 -8 4 -11
-1 -6 -5 5 -9 14 -9 20 0 5 -6 12 -14 15 -10 3 -11 0 -5 -9 4 -8 -8 -2 -27 13
-18 15 -33 31 -32 37 2 6 0 10 -5 10 -19 -3 -33 2 -27 10 7 12 59 -5 75 -25
21 -24 75 -28 110 -7 31 18 110 126 110 150 0 8 13 13 33 13 55 0 138 30 169
60 28 29 28 30 13 67 -9 21 -30 60 -48 87 -25 39 -28 51 -17 54 8 3 34 24 57
48 93 95 96 258 8 362 -55 63 -144 80 -201 37 -17 -13 -15 -13 19 -4 21 6 44
8 50 5 7 -2 3 -5 -9 -5 -12 -1 -38 -12 -58 -26 -20 -14 -39 -25 -41 -25 -2 0
-6 12 -8 28 -3 19 -4 15 -5 -13 0 -22 -2 -60 -5 -85 -4 -30 -3 -38 3 -25 8 19
9 19 9 -2 1 -13 7 -23 14 -23 9 0 8 -3 -2 -9 -7 -5 -10 -14 -7 -20 4 -6 11 -9
15 -7 4 3 25 -31 46 -74 30 -62 42 -77 52 -68 7 6 13 7 13 4 0 -4 9 -2 20 4
29 15 25 27 -8 22 -16 -2 -33 2 -39 10 -14 17 -21 57 -9 57 5 -1 13 6 18 15 5
9 13 14 19 11 5 -3 6 0 3 8 -3 8 0 18 6 22 8 5 6 14 -5 32 -21 31 -13 40 20
23 32 -17 55 -68 54 -117 l-2 -38 -8 35 c-8 35 -8 35 -6 -7 2 -24 0 -43 -3
-43 -3 0 -16 -16 -29 -36 -13 -19 -30 -33 -37 -30 -8 3 -11 0 -7 -10 6 -17 7
-17 43 1 90 47 93 230 4 272 -38 19 -71 12 -112 -22 l-30 -25 -10 40 c-9 38
-8 41 24 69 78 69 186 45 233 -52 36 -75 23 -215 -27 -270 -9 -11 -34 -33 -56
-48 -37 -27 -56 -30 -56 -8 0 6 5 7 12 3 7 -5 8 -3 4 5 -5 7 -10 10 -14 7 -3
-3 -10 2 -17 10 -11 15 -12 15 -12 0 0 -9 3 -16 7 -16 6 0 39 -62 41 -78 0 -4
7 -11 15 -15 8 -4 14 -12 14 -17 0 -5 11 -26 25 -46 25 -37 34 -31 14 9 -10
21 -10 21 5 3 19 -24 20 -38 4 -54 -7 -7 -8 -12 -2 -12 5 0 -7 -10 -26 -21
-19 -12 -64 -26 -100 -31 -151 -21 -153 -21 -179 1 -13 12 -31 21 -40 21 -9 0
-42 14 -75 30 -37 19 -53 24 -45 13 15 -17 126 -73 147 -73 21 0 15 -77 -8
-100 -30 -30 -49 -15 -104 84 -27 47 -50 86 -52 86 -3 0 10 -27 27 -61 17 -34
28 -68 24 -77 -3 -9 -3 -13 1 -9 4 3 24 -9 46 -28 61 -56 104 -42 133 42 7 21
21 40 30 41 26 6 -30 -93 -73 -128 -28 -23 -39 -27 -63 -20 -15 5 -38 18 -51
29 -12 12 -28 19 -36 16 -7 -3 -28 -5 -44 -5 -17 0 -28 -3 -25 -6 13 -13 -80
-71 -138 -86 -91 -25 -142 -31 -150 -19 -3 6 -15 11 -26 11 -11 0 -18 3 -15 8
2 4 -13 7 -34 7 -23 0 -36 -4 -32 -10 10 -16 2 -68 -14 -93 -19 -29 -59 -45
-82 -33 -20 11 -129 -31 -125 -48 2 -6 -5 -7 -14 -4 -11 4 -14 3 -9 -5 4 -8 2
-10 -7 -6 -15 5 -34 -13 -24 -22 7 -8 142 54 140 63 -1 4 10 9 24 10 24 1 23
0 -8 -20 -19 -11 -75 -39 -125 -62 -78 -37 -92 -47 -103 -76 -18 -51 -124
-259 -131 -259 -4 0 13 42 38 93 46 92 48 98 51 118 0 5 6 7 12 4 6 -4 9 -1 8
6 -2 8 1 23 7 34 6 11 10 29 10 40 -1 12 16 33 42 54 23 18 51 49 63 67 20 34
21 34 95 34 44 0 74 4 74 10 0 6 10 8 24 4 23 -5 24 -4 28 56 3 60 2 63 -27
83 -16 11 -25 15 -18 7 9 -9 6 -23 -13 -58 -13 -25 -25 -47 -27 -48 -1 -1 -26
3 -56 10 -46 10 -57 17 -73 46 -10 19 -18 45 -18 57 0 16 -6 23 -20 23 -70 0
-212 81 -229 131 -5 16 -14 29 -18 29 -4 0 -14 12 -21 28 -28 61 -34 64 -102
52 -74 -13 -87 -8 -28 10 l43 13 -50 14 c-27 8 -54 19 -59 24 -13 12 -3 11 67
-5 32 -7 55 -11 52 -8 -13 14 -92 37 -113 34 -33 -5 -27 -29 13 -43 40 -15 44
-24 15 -32 -11 -3 -20 -10 -20 -17 0 -11 72 -8 120 6 10 2 23 -10 35 -33 11
-20 30 -49 43 -64 22 -27 23 -29 9 -108 l-14 -80 76 -16 c79 -17 195 -45 291
-70 30 -8 58 -14 61 -15 3 0 16 23 29 50 13 28 28 49 34 47 22 -8 -4 -101 -31
-111 -57 -22 -394 -6 -463 21 -14 6 -56 14 -94 18 -44 4 -64 10 -56 15 8 5 -5
6 -30 3 -34 -5 -41 -3 -35 7 6 9 4 11 -4 5 -7 -4 -37 -4 -66 0 -41 5 -53 10
-48 21 3 8 3 14 0 14 -2 0 -16 -38 -31 -83 -14 -46 -34 -95 -44 -108 -11 -13
-47 -69 -81 -124 -33 -55 -61 -92 -61 -83 0 9 6 23 12 30 7 7 14 20 16 28 2
14 10 34 35 87 5 12 13 20 17 18 4 -3 5 60 3 140 -4 110 -1 164 12 226 47 236
186 422 361 484 l50 18 91 -47 c54 -28 118 -71 155 -105 l62 -58 -39 -6 c-51
-8 -105 -53 -142 -117 -28 -47 -30 -49 -45 -33 -25 29 -78 159 -78 192 0 16
-4 32 -10 36 -12 8 -40 -47 -40 -81 0 -23 -3 -25 -23 -20 -50 15 -87 18 -87 8
0 -5 8 -8 18 -5 10 2 42 -5 70 -16 51 -20 52 -20 42 -2 -13 25 -13 43 2 78
l11 28 8 -41 c4 -23 24 -75 43 -117 64 -135 214 -236 371 -251 59 -5 59 -5
-14 9 -40 8 -75 16 -78 19 -10 10 11 79 38 121 27 43 49 53 100 47 4 -1 21 3
37 8 l31 8 -27 -41 c-22 -33 -27 -52 -27 -102 0 -45 5 -66 18 -79 21 -21 22
-10 2 24 -20 36 -18 87 6 137 20 42 39 56 39 31 0 -7 8 -1 18 15 9 15 19 27
22 27 3 0 14 -16 25 -36 44 -83 171 -160 291 -179 22 -3 5 5 -36 18 -121 37
-178 74 -228 147 -33 49 -42 71 -38 91 3 14 0 31 -6 37 -14 14 -38 118 -38
171 0 83 50 229 73 214 6 -3 7 -1 4 4 -9 15 43 83 94 125 52 42 126 81 138 73
5 -3 11 -1 13 5 4 12 147 20 154 8 3 -5 15 -1 27 9 11 10 17 13 13 6 -5 -9 4
-10 31 -7 29 4 34 3 23 -5 -8 -6 -13 -11 -10 -12 30 -6 50 -4 50 5 0 5 6 2 13
-8 8 -11 28 -20 48 -21 19 -1 45 -6 58 -10 23 -8 24 -9 5 -16 -14 -5 -11 -7
13 -6 38 0 35 9 -7 27 -17 7 -29 16 -28 20 8 19 155 141 201 166 51 27 56 28
257 35 227 7 262 14 287 62 15 29 14 32 -7 49 -30 25 -133 24 -261 -2 -184
-38 -266 -81 -418 -224 l-86 -81 -62 20 -61 20 16 32 c17 31 18 31 50 18 38
-16 43 -3 12 30 l-20 21 37 54 c57 87 109 145 145 163 18 10 103 35 188 57
190 50 252 78 274 125 18 37 15 55 -9 55 -10 0 -12 -6 -8 -17 5 -15 4 -16 -8
-7 -27 22 -92 25 -144 5z m143 -13 c33 -33 -58 -73 -291 -127 -48 -12 -97 -26
-108 -31 -10 -6 -19 -7 -19 -2 0 11 220 122 242 122 9 0 18 3 20 8 4 9 95 40
124 41 11 1 25 -4 32 -11z m206 -283 c16 -42 -127 -65 -334 -54 -93 4 -110 8
-75 14 6 1 30 7 54 14 24 7 60 15 80 17 20 2 54 8 76 12 22 4 74 9 116 10 60
1 78 -1 83 -13z m-626 -504 c8 -5 12 -21 10 -37 -3 -32 -38 -45 -64 -24 -40
34 9 90 54 61z m-1818 -62 c-11 -8 -6 -9 20 -4 19 4 55 9 80 10 112 6 343 -36
307 -56 -9 -6 -41 -3 -84 8 -44 10 -113 17 -198 17 -71 1 -133 5 -136 9 -9 13
-65 -19 -117 -66 -95 -88 -158 -223 -185 -401 l-12 -80 -28 43 c-15 23 -25 46
-22 52 4 5 1 8 -6 7 -7 -2 -17 11 -23 27 -6 17 -13 32 -16 35 -7 7 -6 33 3 47
4 6 2 15 -4 19 -8 4 -9 3 -5 -4 4 -7 3 -12 -1 -12 -7 0 -10 84 -3 103 1 4 3
11 4 17 3 23 86 96 134 117 20 9 51 22 67 29 17 8 50 19 74 25 23 5 41 12 39
14 -2 2 -31 -2 -63 -10 -33 -7 -61 -12 -63 -11 -5 6 89 38 161 56 88 22 96 23
77 9z m240 -46 c25 -4 52 -7 60 -8 27 0 22 -33 -7 -52 -15 -10 -46 -36 -68
-58 -21 -22 -43 -39 -48 -37 -5 1 -6 -2 -2 -8 3 -5 1 -10 -4 -10 -6 0 -11 -7
-11 -15 0 -7 -8 -19 -17 -24 -10 -6 -15 -11 -10 -11 4 0 -3 -17 -16 -37 -13
-21 -30 -55 -38 -75 -7 -21 -17 -38 -23 -38 -5 0 -7 -3 -3 -6 3 -3 1 -18 -5
-33 -13 -30 -29 -131 -30 -181 -1 -19 -4 -37 -8 -40 -4 -3 -4 -34 0 -70 4 -36
6 -66 5 -68 -4 -5 -79 40 -119 72 -22 17 -56 41 -75 53 -20 12 -32 23 -28 23
4 0 -9 15 -30 33 -53 45 -62 58 -61 90 1 30 7 33 28 15 8 -7 4 -1 -8 13 -19
22 -22 33 -16 70 4 24 11 50 17 57 5 7 11 27 13 45 1 17 7 33 13 35 6 2 11 8
11 13 0 6 -6 7 -12 4 -7 -4 -4 1 6 9 11 9 17 19 13 22 -9 9 12 46 23 39 4 -3
6 5 2 17 -3 14 -2 19 6 14 7 -4 12 -1 12 8 0 27 103 123 145 135 69 19 170 20
285 4z m1644 -209 c3 -8 2 -12 -4 -9 -6 3 -10 10 -10 16 0 14 7 11 14 -7z
m-1091 -51 c37 -61 56 -110 39 -99 -14 8 -51 -49 -64 -98 -7 -26 -19 -47 -27
-49 -19 -4 -111 50 -118 69 -3 8 -9 12 -14 9 -4 -3 -15 7 -23 23 -14 26 -13
30 10 60 14 18 23 32 19 32 -10 0 38 46 67 64 26 17 27 17 61 -16 19 -19 37
-43 41 -55 6 -20 36 -41 36 -25 0 4 -20 33 -45 65 -39 49 -42 57 -25 57 12 0
29 -14 43 -37z m1127 -4 c15 -28 5 -23 -15 7 -9 15 -12 23 -6 20 6 -4 16 -16
21 -27z m-240 -206 c0 -5 -5 -15 -10 -23 -8 -12 -10 -11 -10 8 0 12 5 22 10
22 6 0 10 -3 10 -7z m-1075 -63 c23 -16 69 -35 101 -43 l59 -13 -32 -33 c-18
-18 -37 -30 -43 -26 -5 3 -20 9 -32 11 -67 16 -114 26 -125 27 -7 0 -9 10 -6
26 5 24 10 54 12 74 2 14 23 7 66 -23z m1065 16 c0 -3 -4 -8 -10 -11 -5 -3
-10 -1 -10 4 0 6 5 11 10 11 6 0 10 -2 10 -4z m-145 -56 c3 -5 1 -10 -4 -10
-6 0 -11 5 -11 10 0 6 2 10 4 10 3 0 8 -4 11 -10z m-751 -65 c4 -11 -2 -15
-21 -15 -21 0 -24 2 -13 15 7 8 16 15 20 15 4 0 10 -7 14 -15z m-508 -49 c44
-8 116 -20 162 -27 l82 -11 0 -32 c0 -17 7 -58 15 -91 8 -33 14 -63 15 -68 0
-4 -33 -5 -72 -3 -113 8 -168 17 -162 27 3 5 -2 6 -10 3 -26 -10 -189 53 -181
71 2 6 14 40 26 78 13 37 28 67 35 67 6 0 47 -7 90 -14z m329 -66 c0 -2 29 -6
122 -16 l53 -5 -17 -27 c-32 -51 -67 -78 -95 -73 -5 0 -8 -4 -8 -10 0 -5 -4
-8 -9 -4 -5 3 -12 1 -16 -5 -3 -5 -20 -10 -36 -10 -22 0 -32 6 -39 25 -5 14
-9 29 -8 33 1 4 -2 24 -6 44 -10 46 -3 58 32 53 15 -2 27 -4 27 -5z m689 -19
c-2 -3 -12 3 -22 13 -16 17 -16 18 5 5 12 -7 20 -15 17 -18z m-194 -20 c10 -8
3 -7 -18 3 -18 9 -30 21 -26 27 4 7 10 5 17 -3 7 -7 19 -19 27 -27z m970 29
c8 -5 11 -10 5 -10 -5 0 -17 5 -25 10 -8 5 -10 10 -5 10 6 0 17 -5 25 -10z
m-733 -15 c0 -17 -13 -20 -21 -6 -4 5 0 12 6 14 7 3 13 6 14 6 0 1 1 -6 1 -14z
m43 -25 c8 -5 11 -10 5 -10 -5 0 -17 5 -25 10 -8 5 -10 10 -5 10 6 0 17 -5 25
-10z m88 -43 c6 -5 12 -15 12 -21 0 -6 -5 -3 -11 7 -5 9 -16 17 -23 17 -7 0
-21 7 -32 15 -17 14 -17 14 11 3 17 -6 36 -16 43 -21z m61 -116 c11 -25 21
-49 21 -55 0 -5 8 -18 17 -28 15 -16 15 -18 1 -13 -13 5 -66 107 -85 165 -9
26 23 -23 46 -69z m-339 -46 c0 -5 -5 -3 -10 5 -5 8 -10 20 -10 25 0 6 5 3 10
-5 5 -8 10 -19 10 -25z m-1248 -67 c-7 -7 -12 -8 -12 -2 0 6 3 14 7 17 3 4 9
5 12 2 2 -3 -1 -11 -7 -17z m1646 -23 c-3 -3 -9 2 -12 12 -6 14 -5 15 5 6 7
-7 10 -15 7 -18z m-1034 -150 c-9 -14 -18 -25 -20 -25 -2 0 2 11 8 25 6 14 15
25 20 25 5 0 1 -11 -8 -25z m-784 -70 c0 -9 -9 -15 -22 -15 -13 0 -34 -3 -48
-6 -16 -3 -10 2 15 15 50 24 55 25 55 6z m-187 -22 c-13 -2 -35 -2 -50 0 -16
2 -5 4 22 4 28 0 40 -2 28 -4z"/>
<path d="M296 915 c10 -8 24 -14 29 -14 6 0 1 6 -9 14 -11 8 -24 15 -30 15 -5
0 -1 -7 10 -15z"/>
<path d="M440 841 c14 -11 30 -21 35 -21 11 0 -7 14 -40 31 -13 7 -12 3 5 -10z"/>
<path d="M500 810 c0 -5 5 -10 11 -10 5 0 7 5 4 10 -3 6 -8 10 -11 10 -2 0 -4
-4 -4 -10z"/>
<path d="M2416 1848 c-17 -9 -11 -13 42 -30 43 -13 73 -30 97 -55 35 -36 36
-36 25 -9 -32 84 -107 127 -164 94z"/>
<path d="M1894 1707 c-98 -47 -161 -155 -152 -263 5 -61 26 -96 78 -131 61
-42 166 -23 235 43 17 16 35 27 40 25 6 -1 7 0 3 4 -3 4 5 30 18 58 83 179
-55 343 -222 264z m164 -17 c47 -29 76 -98 69 -161 -14 -117 -125 -229 -228
-229 -40 0 -101 34 -121 68 -79 133 42 342 196 342 34 0 62 -7 84 -20z"/>
<path d="M1905 1618 c-64 -35 -97 -90 -97 -162 0 -44 4 -54 32 -79 28 -25 39
-28 71 -24 79 10 139 85 139 172 0 38 -5 52 -29 76 -32 31 -78 38 -116 17z
m92 -26 c35 -22 36 -117 2 -161 -12 -14 -24 -25 -27 -23 -4 1 -14 -4 -22 -11
-23 -19 -49 -28 -55 -18 -2 5 -21 16 -41 26 -24 11 -34 21 -30 32 3 8 6 21 6
29 0 27 18 14 24 -19 3 -18 16 -38 27 -46 20 -12 21 -11 14 6 -4 10 -8 24 -8
31 0 6 -4 12 -9 12 -4 0 -8 5 -8 10 0 6 7 10 15 10 8 0 30 13 48 30 19 16 36
28 38 25 3 -2 5 5 5 15 0 10 -2 17 -4 15 -3 -2 -11 3 -20 11 -13 14 -13 17 -1
25 17 11 30 11 46 1z m-83 -15 c38 -27 -2 -95 -41 -71 -24 15 -28 48 -8 68 20
19 26 20 49 3z"/>
<path d="M2002 1500 c0 -14 2 -19 5 -12 2 6 2 18 0 25 -3 6 -5 1 -5 -13z"/>
<path d="M2151 1614 c0 -11 3 -14 6 -6 3 7 2 16 -1 19 -3 4 -6 -2 -5 -13z"/>
<path d="M976 1386 c21 -15 30 -14 19 3 -3 6 -14 11 -23 11 -13 0 -13 -2 4
-14z"/>
<path d="M1025 1367 c23 -16 55 -28 55 -22 0 6 -56 35 -67 35 -4 0 1 -6 12
-13z"/>
<path d="M1107 1322 c12 -12 26 -22 30 -22 4 0 24 -17 45 -37 21 -20 38 -32
38 -26 0 12 -53 57 -103 87 l-32 19 22 -21z"/>
<path d="M1866 1186 c17 -6 52 -33 78 -61 25 -27 46 -45 46 -40 0 6 -18 28
-40 50 -33 32 -37 40 -25 49 12 8 3 11 -37 12 -50 1 -51 0 -22 -10z"/>
<path d="M2122 970 c0 -14 2 -19 5 -12 2 6 2 18 0 25 -3 6 -5 1 -5 -13z"/>
<path d="M1928 873 c7 -3 16 -2 19 1 4 3 -2 6 -13 5 -11 0 -14 -3 -6 -6z"/>
<path d="M668 837 c-28 -30 -73 -110 -82 -147 -4 -14 14 14 39 62 55 103 62
106 201 89 102 -13 134 -13 84 0 -19 4 -76 11 -127 15 -89 7 -92 6 -115 -19z"/>
<path d="M1331 846 c2 -2 38 -6 79 -9 46 -4 65 -3 50 3 -24 8 -137 14 -129 6z"/>
<path d="M693 824 c10 -10 124 -12 139 -3 8 5 -19 9 -66 9 -44 0 -76 -3 -73
-6z"/>
<path d="M963 823 c9 -2 23 -2 30 0 6 3 -1 5 -18 5 -16 0 -22 -2 -12 -5z"/>
<path d="M2020 826 c0 -2 12 -12 28 -21 l27 -18 -19 21 c-17 20 -36 29 -36 18z"/>
<path d="M868 813 c12 -2 30 -2 40 0 9 3 -1 5 -23 4 -22 0 -30 -2 -17 -4z"/>
<path d="M948 803 c6 -2 18 -2 25 0 6 3 1 5 -13 5 -14 0 -19 -2 -12 -5z"/>
<path d="M718 783 c6 -2 18 -2 25 0 6 3 1 5 -13 5 -14 0 -19 -2 -12 -5z"/>
<path d="M2585 631 c-8 -14 31 -33 58 -29 20 3 19 5 -10 21 -37 20 -40 20 -48
8z"/>
</g>
</svg>
