<?xml version="1.0" standalone="no"?>
<!DOCTYPE svg PUBLIC "-//W3C//DTD SVG 20010904//EN"
 "http://www.w3.org/TR/2001/REC-SVG-20010904/DTD/svg10.dtd">
<svg version="1.0" xmlns="http://www.w3.org/2000/svg"
 width="300.000000pt" height="222.000000pt" viewBox="0 0 300.000000 222.000000"
 preserveAspectRatio="xMidYMid meet">
<metadata>
Created by potrace 1.10, written by Peter Selinger 2001-2011
</metadata>
<g transform="translate(0.000000,222.000000) scale(0.100000,-0.100000)"
fill="#000000" stroke="none">
<path d="M827 2188 c-32 -41 -115 -213 -123 -255 -5 -28 -11 -31 -78 -47 -39
-9 -106 -33 -148 -54 l-75 -37 -44 28 c-53 33 -189 87 -222 87 -68 0 -147
-183 -134 -310 8 -70 15 -90 34 -90 20 0 50 74 63 155 5 39 17 101 26 138 15
62 18 67 38 61 28 -9 112 -51 158 -80 l38 -24 -45 -41 c-25 -23 -59 -70 -76
-105 -29 -58 -31 -70 -27 -138 4 -53 12 -86 30 -118 l25 -45 -29 -32 c-58 -65
-25 -179 74 -252 70 -52 179 -99 274 -118 49 -10 102 -24 119 -30 39 -16 117
-16 146 -1 13 7 36 23 50 37 l27 24 10 -31 c10 -29 4 -46 -78 -222 -49 -104
-87 -194 -84 -199 2 -5 -2 -21 -10 -37 -11 -22 -27 -32 -60 -41 -61 -15 -96
-14 -102 4 -12 29 16 45 77 45 51 0 58 -2 53 -18 -4 -11 1 -8 15 8 23 28 27
45 9 33 -7 -4 -41 -7 -74 -8 -46 0 -67 -5 -83 -19 -27 -25 -27 -52 1 -67 27
-15 136 -6 153 13 7 7 60 105 118 216 57 112 107 199 111 194 3 -5 -8 -61 -24
-123 -16 -63 -46 -188 -66 -279 -20 -91 -38 -175 -41 -186 -4 -17 -15 -23 -56
-28 -65 -9 -143 -43 -162 -70 -19 -27 -19 -70 0 -86 35 -29 152 7 210 66 26
26 36 51 60 145 36 148 125 483 129 487 2 2 19 -11 37 -27 18 -17 56 -43 84
-58 l51 -26 -16 -81 -16 -81 -47 3 c-54 4 -77 -9 -77 -43 0 -29 19 -45 64 -52
73 -12 79 -5 116 123 l34 116 35 -6 c20 -3 52 -6 71 -6 34 0 36 -1 33 -32 -28
-287 -42 -377 -62 -397 -46 -46 -53 -110 -16 -146 29 -30 64 -32 96 -6 32 26
34 106 3 148 -16 22 -19 35 -13 63 4 19 19 111 33 204 14 92 28 171 31 174 3
4 26 14 50 23 l44 17 19 -47 c11 -25 30 -83 42 -128 12 -45 28 -87 36 -94 22
-18 121 -6 146 18 42 43 -18 86 -93 66 l-38 -10 -25 111 c-15 61 -26 117 -26
124 0 20 18 14 36 -13 44 -68 225 -187 337 -221 64 -20 60 -11 97 -181 10 -46
26 -93 35 -103 28 -31 116 -63 177 -64 50 -1 61 3 85 26 23 24 26 31 17 55 -5
15 -23 35 -40 45 -40 23 -151 34 -193 20 -28 -10 -31 -9 -36 11 -2 12 -12 53
-20 91 -8 38 -14 70 -13 71 2 2 32 -1 68 -6 218 -31 494 92 706 313 101 105
120 143 105 205 -41 160 -261 451 -422 559 -101 67 -163 86 -294 91 -208 9
-398 -58 -566 -198 l-46 -38 -29 30 c-16 17 -58 44 -94 62 -60 30 -73 32 -171
33 l-107 1 -33 38 c-19 21 -48 44 -66 52 -28 11 -33 18 -33 48 0 48 -34 133
-70 177 -45 54 -143 99 -230 106 -38 2 -70 8 -70 12 0 37 92 250 109 250 11 0
135 -93 200 -151 60 -54 135 -89 152 -72 16 16 -35 107 -89 159 -55 53 -167
110 -233 120 -44 6 -48 4 -72 -28z m138 -6 c16 -9 32 -17 35 -17 28 -5 49 -18
44 -27 -4 -7 -2 -8 4 -4 16 10 80 -51 104 -98 11 -23 25 -44 31 -47 5 -4 0
-10 -11 -13 -26 -8 -54 6 -105 51 -21 18 -73 60 -117 92 -43 32 -76 61 -73 64
3 3 -3 3 -14 1 -30 -9 -112 -206 -127 -306 -8 -50 -23 -69 -37 -47 -9 14 -5
32 14 79 5 14 11 32 13 40 2 8 7 23 13 35 5 11 20 44 32 73 12 28 26 52 31 52
5 0 7 4 4 9 -3 5 8 27 25 51 29 40 33 42 67 35 20 -4 50 -14 67 -23z m-828
-305 c-21 -32 -53 -147 -67 -236 -6 -40 -15 -82 -21 -92 -11 -22 -34 -15 -25
7 3 7 1 16 -4 19 -14 9 -11 103 5 150 7 22 13 33 14 25 1 -9 6 -5 14 10 18 35
27 60 21 60 -2 0 -9 -12 -15 -26 -5 -15 -12 -24 -15 -21 -8 8 25 67 37 67 6 0
8 4 4 9 -3 5 0 13 6 17 8 4 9 3 5 -4 -4 -7 -3 -12 2 -12 6 0 13 11 16 25 4 14
14 25 22 25 15 0 15 -2 1 -23z m548 -7 c-10 -33 4 -62 28 -58 16 2 25 13 32
42 l9 38 60 -7 c83 -9 148 -39 195 -90 22 -24 43 -40 47 -37 4 4 4 2 0 -5 -4
-7 0 -26 8 -42 9 -16 19 -54 22 -85 4 -34 12 -56 19 -56 7 0 18 -7 25 -15 7
-9 15 -13 18 -11 9 10 62 -35 56 -46 -4 -6 -2 -8 4 -4 19 12 52 -58 52 -113 0
-123 -86 -246 -238 -343 -51 -32 -37 -4 21 42 28 23 50 44 49 48 -2 3 3 9 12
14 9 5 16 13 16 19 0 5 11 21 24 35 27 29 61 131 53 160 -3 12 -5 8 -6 -12 -2
-65 -104 -223 -174 -270 -15 -11 -39 -38 -53 -62 -26 -44 -110 -102 -149 -102
-16 0 -17 -2 -6 -9 20 -13 -58 -3 -129 16 -30 8 -82 20 -115 28 -136 30 -244
88 -300 163 -59 76 -57 120 9 191 18 20 24 32 14 28 -11 -4 -20 3 -29 26 -8
18 -14 34 -15 37 0 3 -5 21 -11 41 -6 20 -8 53 -6 75 2 21 5 46 6 55 1 9 6 15
12 12 7 -2 12 3 12 11 0 8 -4 13 -9 10 -13 -8 -10 4 9 34 21 35 105 122 116
122 5 0 -11 -21 -37 -47 -56 -59 -81 -93 -66 -93 6 0 13 7 16 15 4 8 11 12 17
8 5 -3 7 -1 3 5 -3 6 13 31 37 56 41 44 44 45 65 30 13 -9 29 -13 37 -10 22 8
18 42 -7 58 -22 15 -22 16 38 46 39 20 70 29 85 26 17 -4 20 -3 11 4 -21 14
26 24 51 10 17 -9 19 -8 14 6 -5 14 -3 16 12 11 11 -3 22 -1 26 5 11 17 17 11
10 -10z m-390 -30 c71 -36 155 -94 155 -107 0 -21 -20 -15 -63 20 -54 42 -159
107 -174 107 -7 0 -13 4 -13 9 0 11 40 -1 95 -29z m2136 -290 c83 -28 159 -79
233 -155 79 -82 124 -133 137 -157 6 -11 20 -31 32 -44 12 -14 25 -37 28 -52
18 -74 2 -358 -21 -403 -6 -10 -37 -32 -70 -51 -33 -18 -60 -36 -60 -40 0 -3
20 5 45 19 49 27 57 25 25 -7 -11 -11 -20 -18 -20 -15 0 3 -28 -16 -62 -43
-54 -41 -156 -102 -171 -102 -2 0 7 30 20 67 60 164 88 395 81 654 -5 161 -4
177 11 172 40 -14 -47 58 -103 86 -93 45 -270 81 -251 51 4 -6 10 -8 15 -5 25
15 263 -58 289 -89 14 -17 31 -172 31 -287 0 -256 -64 -592 -126 -660 -17 -18
-89 -38 -156 -42 -16 -1 -28 -5 -28 -9 0 -7 -158 -4 -165 4 -2 2 8 22 23 44
26 39 28 40 67 32 35 -6 77 -4 153 7 35 6 135 36 131 40 -2 2 -29 -3 -59 -12
-53 -14 -260 -31 -260 -21 0 3 11 31 25 62 103 232 125 618 52 900 l-13 49
-69 -2 c-80 -3 -184 -22 -238 -45 l-37 -15 20 -50 c49 -126 73 -348 54 -508
l-7 -53 -23 25 c-28 31 -35 31 -131 0 -42 -13 -79 -22 -81 -20 -2 2 1 19 7 36
37 107 18 271 -45 374 -33 55 -33 59 -17 77 40 45 223 151 307 178 135 44 314
48 427 10z m-164 -75 c57 -217 56 -495 -3 -725 -25 -96 -102 -266 -134 -295
-16 -15 -19 -14 -29 16 -19 55 -15 66 22 63 l32 -3 -33 8 c-18 5 -35 11 -37
13 -9 8 -88 283 -88 303 0 11 6 64 13 117 9 76 10 120 0 198 -11 101 -42 236
-62 273 -5 10 -6 23 -1 27 13 13 93 39 87 28 -4 -6 4 -5 16 2 12 6 45 14 73
17 29 3 54 7 56 9 2 2 19 2 39 1 34 -2 36 -4 49 -52z m-755 -35 c103 -38 198
-143 233 -256 14 -46 20 -207 7 -228 -10 -18 -12 -85 -2 -91 6 -4 39 3 75 15
92 30 125 25 148 -24 39 -83 158 -539 144 -552 -3 -3 -12 23 -20 58 -37 148
-110 383 -144 461 -23 50 -43 73 -43 48 0 -5 -14 -14 -30 -21 -17 -7 -29 -15
-26 -17 2 -2 18 3 35 12 17 8 31 11 31 6 0 -14 -75 -40 -101 -35 -20 5 -21 4
-9 -6 12 -10 11 -11 -8 -7 -12 3 -20 2 -17 -2 5 -9 -193 -56 -201 -48 -5 5 50
39 124 76 23 12 40 26 37 31 -4 6 -12 4 -21 -5 -9 -8 -20 -15 -27 -15 -20 0
-137 -82 -131 -92 4 -6 27 -8 58 -4 l51 6 -45 -40 c-43 -38 -122 -74 -134 -62
-3 3 -6 -1 -6 -8 0 -7 -3 -10 -6 -7 -4 4 -6 46 -5 95 2 75 0 90 -14 96 -27 10
-91 -14 -120 -44 -50 -52 -11 -108 41 -59 13 12 25 21 27 18 2 -2 1 -30 -1
-61 l-4 -58 -85 6 c-89 5 -166 34 -221 82 -13 11 -32 26 -42 34 -14 9 -18 20
-14 36 l6 22 32 -23 c70 -54 166 -86 166 -57 0 25 -33 71 -85 119 -85 77 -120
80 -154 14 l-19 -38 -21 45 c-34 78 -35 92 -4 123 15 16 53 45 85 65 153 100
219 204 219 344 0 65 1 67 27 71 53 10 158 -2 214 -23z m1421 -405 c24 -49 47
-100 51 -112 9 -28 -15 -74 -59 -114 -19 -18 -32 -35 -30 -39 2 -4 -7 -18 -22
-31 -17 -15 -24 -18 -21 -8 17 47 29 179 26 286 -2 67 0 119 4 115 3 -4 27
-47 51 -97z m-1801 -182 c57 -48 115 -119 105 -129 -11 -11 -80 19 -105 45
-14 14 -22 19 -18 11 4 -8 0 -6 -8 4 -9 11 -16 16 -16 12 0 -5 -7 -3 -15 4 -8
7 -12 16 -9 21 3 5 1 9 -4 9 -22 0 -82 -186 -158 -493 -20 -81 -38 -146 -40
-144 -11 11 148 650 167 674 19 22 65 15 101 -14z m-220 -119 c-30 -57 -56
-103 -59 -101 -2 2 20 54 49 114 29 61 56 106 59 101 3 -5 -19 -56 -49 -114z
m1018 -18 c-16 -34 -45 -83 -65 -110 l-37 -47 -26 17 c-15 10 -55 45 -89 78
l-62 61 20 21 c11 11 45 27 75 33 31 7 86 25 123 40 l66 27 12 -29 c12 -26 10
-36 -17 -91z m-463 12 c-3 -46 -19 -175 -37 -288 -17 -113 -34 -223 -37 -244
-4 -25 -2 -37 4 -33 14 9 33 -37 33 -78 0 -34 -30 -75 -55 -75 -24 0 -45 37
-43 73 2 21 6 37 9 37 31 0 77 280 85 520 l5 145 -25 -30 c-14 -16 -25 -26
-26 -21 0 6 -6 2 -12 -7 -9 -11 -18 -14 -27 -8 -38 24 38 90 103 91 l29 0 -6
-82z m556 -165 c15 -58 21 -93 14 -93 -17 0 -81 24 -88 33 -3 5 -10 9 -15 9
-21 2 -64 21 -64 29 0 5 -7 9 -15 9 -16 0 -21 16 -7 22 15 5 77 100 97 147
l20 45 16 -55 c9 -30 28 -96 42 -146z m-354 -118 c-1 -12 -25 60 -45 135 -8
30 -22 60 -30 67 -14 10 -13 12 2 21 16 9 21 -1 46 -101 15 -62 27 -116 27
-122z m-829 145 c-6 -12 -14 -20 -17 -17 -2 3 1 14 8 26 17 26 24 19 9 -9z
m394 3 c-3 -16 -17 -65 -30 -110 -21 -72 -28 -84 -51 -89 -37 -10 -77 7 -81
33 -2 17 3 24 22 29 33 8 66 -4 66 -24 0 -24 16 -3 28 38 6 19 16 61 22 93 6
31 16 57 21 57 5 0 7 -12 3 -27z m550 -143 c33 -12 33 -34 1 -48 -38 -17 -80
-15 -105 6 l-23 18 29 12 c16 6 38 13 49 15 11 3 21 5 22 6 1 0 13 -3 27 -9z
m350 -192 c4 -17 2 -28 -4 -28 -5 0 -10 14 -10 32 0 36 4 35 14 -4z m226 -36
c46 -23 55 -68 15 -78 -59 -15 -219 21 -239 54 -24 40 154 59 224 24z m-1500
-53 c0 -18 -61 -70 -105 -90 -22 -10 -59 -19 -82 -19 -37 0 -43 3 -43 21 0 28
38 60 97 80 55 20 133 24 133 8z"/>
<path d="M897 2169 c7 -7 15 -10 18 -7 3 3 -2 9 -12 12 -14 6 -15 5 -6 -5z"/>
<path d="M981 2108 c30 -23 72 -58 94 -77 21 -20 33 -27 25 -16 -8 11 -27 32
-42 46 -15 14 -25 29 -20 33 4 4 3 6 -3 5 -19 -6 -55 12 -49 24 4 7 4 9 -1 5
-4 -4 -14 -1 -22 7 -8 8 -19 15 -25 15 -6 0 14 -19 43 -42z"/>
<path d="M32 1710 c0 -14 2 -19 5 -12 2 6 2 18 0 25 -3 6 -5 1 -5 -13z"/>
<path d="M590 1849 c0 -5 5 -7 10 -4 6 3 10 8 10 11 0 2 -4 4 -10 4 -5 0 -10
-5 -10 -11z"/>
<path d="M510 1826 l-25 -14 28 1 c15 1 29 8 32 15 6 15 -4 15 -35 -2z"/>
<path d="M463 1803 c-18 -7 -16 -20 2 -20 8 0 15 6 15 14 0 7 -1 13 -2 12 -2
0 -9 -3 -15 -6z"/>
<path d="M853 1781 c-149 -68 -119 -352 39 -368 51 -5 91 17 134 73 26 33 29
46 29 108 0 60 -5 79 -30 123 -25 44 -38 55 -74 68 -54 18 -47 19 -98 -4z
m113 -30 c66 -40 93 -175 49 -250 -61 -104 -166 -99 -223 10 -19 36 -23 55
-19 101 11 125 104 193 193 139z"/>
<path d="M880 1687 c-64 -32 -79 -151 -25 -207 49 -51 106 -36 144 37 29 56
-2 153 -55 173 -32 12 -34 12 -64 -3z m66 -25 c72 -50 48 -190 -33 -192 -27 0
-73 54 -73 87 0 32 29 95 41 87 5 -3 9 2 9 10 0 17 36 22 56 8z"/>
<path d="M910 1625 c10 -12 9 -16 -3 -21 -9 -3 -20 -3 -25 0 -24 15 -29 -55
-6 -89 19 -29 64 -34 84 -10 20 24 17 90 -4 114 -23 25 -66 31 -46 6z m43 -44
c3 -12 -4 -28 -19 -42 -13 -12 -21 -26 -18 -30 3 -5 -2 -6 -11 -3 -20 8 -33
56 -15 62 7 3 20 12 29 22 19 20 27 18 34 -9z m1 -72 c-3 -5 -10 -7 -15 -3 -5
3 -7 10 -3 15 3 5 10 7 15 3 5 -3 7 -10 3 -15z"/>
<path d="M350 1602 c-19 -9 -45 -33 -58 -52 -34 -50 -27 -131 18 -193 92 -129
245 -86 243 68 -1 126 -113 223 -203 177z m100 -22 c76 -39 114 -155 75 -230
-19 -36 -43 -50 -87 -50 -53 0 -96 33 -125 96 -37 81 -21 157 39 191 32 17 53
16 98 -7z"/>
<path d="M379 1519 c-18 -18 -21 -30 -17 -77 4 -47 10 -60 37 -84 60 -54 131
-25 131 54 0 99 -93 165 -151 107z m101 -26 c19 -18 32 -41 35 -63 l5 -35 -11
30 c-18 47 -39 65 -73 64 -17 0 -25 -3 -18 -6 19 -7 14 -31 -7 -35 -18 -3 -18
-5 -6 -35 19 -44 59 -63 83 -40 10 11 12 17 4 17 -7 0 -12 5 -12 10 0 16 17
12 24 -6 9 -23 -11 -44 -41 -44 -30 0 -83 51 -83 80 0 11 7 36 14 55 18 43 44
45 86 8z m0 -52 c-1 -20 -23 -51 -38 -51 -21 0 -23 20 -6 49 18 30 44 32 44 2z"/>
<path d="M1150 1537 c0 -4 7 -19 16 -32 9 -14 22 -48 29 -77 7 -29 13 -44 14
-33 1 38 -19 106 -39 128 -11 11 -20 18 -20 14z"/>
<path d="M1010 1393 c0 -5 7 -19 16 -32 16 -23 16 -25 -7 -43 -100 -79 -254
-158 -280 -143 -8 6 -10 4 -4 -5 6 -10 1 -12 -18 -8 -16 3 -24 1 -20 -5 4 -6
-4 -8 -20 -5 -15 3 -24 2 -22 -2 10 -16 -180 -26 -242 -14 -25 5 -29 10 -27
32 3 22 2 21 -6 -5 -6 -18 -20 -38 -31 -44 -11 -6 -18 -13 -15 -16 3 -4 15 2
26 12 19 18 21 17 77 -32 171 -148 286 -191 391 -147 85 35 135 113 192 296
32 104 33 106 57 97 30 -11 33 -11 33 1 0 6 -9 10 -21 10 -12 0 -34 14 -50 31
-16 17 -29 27 -29 22z m-7 -168 l-18 -49 -52 3 c-50 2 -114 -20 -153 -55 -9
-7 -31 -15 -50 -16 -36 -3 -54 -14 -102 -63 -17 -16 -34 -30 -38 -30 -5 0 -11
-3 -15 -7 -10 -9 -36 2 -29 13 3 5 -2 9 -10 9 -8 0 -26 10 -40 23 -13 12 -34
29 -45 37 -12 8 -21 17 -21 21 0 3 35 7 78 7 43 1 114 9 157 18 44 9 88 17 97
18 9 0 14 4 12 8 -3 4 2 8 11 8 23 0 153 66 194 99 43 35 49 24 24 -44z m-23
-75 c0 -6 -13 -37 -30 -70 -57 -112 -132 -159 -233 -146 -51 7 -117 34 -117
48 0 20 79 85 119 96 50 16 58 11 43 -23 -6 -14 -8 -25 -4 -25 4 1 16 20 27
43 15 31 32 48 65 65 45 23 130 31 130 12z"/>
<path d="M926 1105 c-9 -26 -7 -32 5 -12 6 10 9 21 6 23 -2 3 -7 -2 -11 -11z"/>
<path d="M1780 941 c0 -11 4 -22 9 -25 4 -3 6 6 3 19 -5 30 -12 33 -12 6z"/>
<path d="M2640 619 c-30 -16 -44 -27 -30 -23 26 6 90 42 90 50 0 5 3 7 -60
-27z"/>
<path d="M2565 580 c-3 -5 -1 -10 4 -10 6 0 11 5 11 10 0 6 -2 10 -4 10 -3 0
-8 -4 -11 -10z"/>
<path d="M1350 1432 c0 -5 -15 -7 -32 -6 l-33 3 30 -8 c17 -4 43 -3 58 2 16 5
52 7 80 3 31 -4 47 -3 39 2 -18 12 -142 15 -142 4z"/>
<path d="M1169 1133 c-13 -16 -12 -17 4 -4 16 13 21 21 13 21 -2 0 -10 -8 -17
-17z"/>
<path d="M1099 1057 c-84 -83 -87 -87 -80 -145 0 -7 5 -11 9 -8 5 3 7 19 4 35
-4 27 5 40 64 101 79 82 81 94 3 17z"/>
<path d="M1707 877 l-17 -32 20 24 c17 20 26 41 18 41 -2 0 -11 -15 -21 -33z"/>
<path d="M1510 740 c-13 -9 -13 -10 0 -10 8 0 22 5 30 10 13 9 13 10 0 10 -8
0 -22 -5 -30 -10z"/>
<path d="M1260 716 c0 -10 28 -13 41 -5 10 6 7 9 -13 9 -16 0 -28 -2 -28 -4z"/>
<path d="M1809 743 c13 -42 44 -103 53 -103 4 0 -4 21 -17 46 -14 26 -25 53
-25 60 0 7 -4 15 -9 19 -6 3 -7 -6 -2 -22z"/>
<path d="M1900 610 c0 -5 5 -10 11 -10 5 0 7 5 4 10 -3 6 -8 10 -11 10 -2 0
-4 -4 -4 -10z"/>
<path d="M1940 596 c0 -9 61 -38 67 -32 3 3 -7 10 -22 16 -15 6 -32 13 -36 16
-5 3 -9 3 -9 0z"/>
</g>
</svg>
