<?xml version="1.0" standalone="no"?>
<!DOCTYPE svg PUBLIC "-//W3C//DTD SVG 20010904//EN"
 "http://www.w3.org/TR/2001/REC-SVG-20010904/DTD/svg10.dtd">
<svg version="1.0" xmlns="http://www.w3.org/2000/svg"
 width="342.000000pt" height="135.000000pt" viewBox="0 0 342.000000 135.000000"
 preserveAspectRatio="xMidYMid meet">
<metadata>
Created by potrace 1.10, written by Peter Selinger 2001-2011
</metadata>
<g transform="translate(0.000000,135.000000) scale(0.100000,-0.100000)"
fill="#000000" stroke="none">
<path d="M827 893 c-11 -19 -16 -69 -8 -81 4 -8 17 -12 27 -10 26 5 28 91 2
96 -9 2 -18 -1 -21 -5z"/>
<path d="M990 860 c-45 -44 -47 -56 -31 -219 10 -103 18 -121 52 -121 38 0 55
63 19 73 -17 4 -20 14 -20 71 l0 66 30 0 c17 0 30 5 30 10 0 6 1 13 2 18 1 4
-11 9 -28 12 -23 4 -29 10 -29 30 0 23 4 25 45 25 34 0 45 4 48 17 2 10 -5 19
-17 23 -12 3 -21 10 -21 15 0 4 -9 10 -20 13 -15 4 -32 -6 -60 -33z"/>
<path d="M1793 889 c-13 -13 -6 -39 14 -54 9 -7 13 -49 14 -158 l1 -148 42 3
c35 3 42 7 44 27 2 15 -3 28 -12 33 -26 15 -22 99 7 126 30 28 48 28 75 -1 26
-27 31 -111 8 -124 -31 -19 -22 -73 12 -73 25 0 62 28 62 47 0 9 -7 21 -16 28
-14 9 -14 16 -5 33 16 30 4 87 -26 123 -23 27 -28 29 -78 23 l-54 -7 -3 64 -3
64 -35 3 c-19 2 -40 -2 -47 -9z"/>
<path d="M338 815 c-10 -13 -18 -33 -18 -45 0 -11 -7 -23 -15 -26 -8 -4 -15
-16 -15 -29 0 -12 -7 -28 -15 -35 -8 -7 -15 -20 -15 -29 0 -9 -9 -29 -20 -46
-24 -36 -26 -73 -5 -81 19 -8 54 33 55 63 0 12 9 27 20 33 29 16 111 9 120
-10 4 -8 16 -32 26 -53 25 -50 50 -46 47 7 -2 22 -10 47 -18 56 -8 9 -15 24
-15 32 0 9 -7 21 -15 28 -8 7 -15 23 -15 35 0 13 -7 25 -15 29 -8 3 -15 16
-15 28 -1 23 -31 68 -47 68 -4 0 -16 -11 -25 -25z m42 -74 c0 -10 7 -24 15
-31 21 -18 9 -30 -30 -30 -39 0 -51 12 -30 30 8 7 15 20 15 30 0 9 3 20 6 23
11 10 24 -3 24 -22z"/>
<path d="M1285 829 c-4 -6 -8 -77 -9 -158 -1 -145 0 -146 22 -149 40 -6 49 11
41 80 -9 74 -3 80 61 72 52 -6 76 6 66 31 -5 15 -15 17 -59 13 -68 -7 -77 -3
-77 38 0 37 -2 36 80 38 48 1 55 4 55 21 0 18 -8 20 -87 23 -57 2 -89 -1 -93
-9z"/>
<path d="M2784 829 c-11 -18 -8 -289 4 -301 5 -5 19 -7 31 -3 17 5 21 14 21
51 0 37 3 44 20 44 13 0 25 -11 33 -27 30 -66 86 -93 121 -57 32 32 9 77 -24
48 -13 -11 -19 -9 -40 7 l-25 19 34 32 c29 26 35 39 39 84 4 49 2 56 -26 84
-29 28 -35 30 -106 30 -44 0 -78 -5 -82 -11z m149 -54 c35 -33 34 -46 -4 -90
-22 -25 -39 -35 -60 -35 -16 0 -29 3 -29 8 -1 4 -2 32 -4 62 -2 30 1 61 6 68
17 20 61 14 91 -13z"/>
<path d="M557 773 c-7 -12 0 -230 7 -242 13 -20 53 -12 71 15 18 28 13 40 -20
46 -17 3 -20 11 -20 58 l0 55 40 0 c36 0 40 -3 43 -27 4 -30 26 -38 36 -12 3
9 6 35 6 59 0 56 -24 67 -77 34 l-36 -23 -15 22 c-15 23 -28 28 -35 15z"/>
<path d="M774 765 c-5 -11 -1 -21 9 -27 14 -7 17 -26 17 -107 0 -94 1 -99 22
-104 41 -11 68 2 68 33 0 16 -7 30 -15 34 -12 4 -15 24 -15 91 0 83 0 85 -24
85 -13 0 -31 3 -40 6 -10 4 -18 -1 -22 -11z"/>
<path d="M1570 774 c-28 -9 -50 -53 -56 -112 l-7 -60 44 -41 c50 -47 87 -53
118 -19 18 19 21 19 27 5 8 -23 57 -22 77 1 24 26 21 42 -8 42 -24 0 -25 3
-25 54 0 30 5 67 10 82 6 15 7 31 3 35 -10 9 -162 19 -183 13z m103 -57 c41
-34 38 -88 -6 -121 -19 -15 -37 -26 -41 -26 -4 0 -23 15 -43 34 -41 38 -41 64
1 109 31 33 55 34 89 4z"/>
<path d="M2133 773 c-10 -3 -13 -38 -13 -124 0 -111 1 -119 19 -119 11 0 26
-3 34 -6 14 -5 47 20 47 36 0 5 -9 18 -21 28 -16 16 -20 29 -17 68 3 42 6 49
26 52 15 2 30 -6 48 -27 14 -17 30 -29 35 -25 14 8 11 114 -3 115 -32 3 -64
-4 -79 -17 -13 -12 -17 -11 -32 6 -17 20 -23 22 -44 13z"/>
<path d="M2365 774 c-6 -2 -10 -46 -10 -104 0 -107 5 -116 64 -141 25 -10 88
-3 97 12 3 5 12 2 21 -7 27 -26 36 -1 40 114 4 123 -2 136 -59 130 -25 -2 -34
-8 -36 -25 -2 -15 2 -23 12 -23 31 0 48 -70 26 -109 -5 -10 -21 -26 -35 -35
-24 -16 -27 -16 -55 4 -40 29 -46 59 -21 106 12 21 21 46 21 55 0 23 -35 36
-65 23z"/>
<path d="M3074 586 c-11 -28 0 -61 21 -61 16 0 20 7 20 35 0 25 -5 36 -18 38
-9 2 -20 -3 -23 -12z"/>
</g>
</svg>
