<?xml version="1.0" standalone="no"?>
<!DOCTYPE svg PUBLIC "-//W3C//DTD SVG 20010904//EN"
 "http://www.w3.org/TR/2001/REC-SVG-20010904/DTD/svg10.dtd">
<svg version="1.0" xmlns="http://www.w3.org/2000/svg"
 width="480.000000pt" height="129.000000pt" viewBox="0 0 480.000000 129.000000"
 preserveAspectRatio="xMidYMid meet">
<metadata>
Created by potrace 1.10, written by Peter Selinger 2001-2011
</metadata>
<g transform="translate(0.000000,129.000000) scale(0.100000,-0.100000)"
fill="#000000" stroke="none">
<path d="M1758 964 c-32 -17 -36 -39 -11 -53 16 -9 16 -13 4 -43 -7 -18 -17
-51 -21 -73 -12 -57 -31 -124 -46 -168 -8 -20 -14 -45 -14 -55 0 -10 -13 -32
-30 -50 -16 -18 -30 -38 -30 -43 0 -6 43 -9 108 -7 89 3 106 5 103 18 -9 31
-2 114 12 149 23 59 38 104 47 141 5 19 15 53 24 75 33 87 12 125 -70 125 -27
-1 -61 -8 -76 -16z"/>
<path d="M2421 959 c-32 -19 -32 -21 -16 -39 18 -20 17 -58 -3 -115 -6 -16
-18 -57 -27 -90 -9 -33 -21 -73 -27 -90 -6 -16 -13 -44 -15 -62 -3 -17 -16
-42 -29 -54 -13 -12 -24 -26 -24 -31 0 -4 47 -8 104 -8 l104 0 -5 60 c-4 35
-1 65 5 72 5 7 14 31 18 53 10 55 33 84 67 85 22 0 27 -4 27 -24 0 -13 -7 -37
-15 -52 -8 -16 -15 -36 -15 -44 0 -8 -7 -24 -15 -34 -38 -50 8 -116 81 -116
32 0 49 7 73 29 36 34 39 47 11 56 -22 7 -24 16 -11 43 20 41 34 90 39 136 4
44 1 51 -24 72 -16 13 -42 23 -57 24 -25 0 -87 -34 -95 -52 -2 -5 -10 -8 -18
-8 -15 0 -20 35 -5 44 10 6 41 97 41 119 0 48 -106 64 -169 26z"/>
<path d="M2159 922 c-89 -2 -97 -4 -102 -24 -4 -12 -4 -25 -1 -30 3 -4 54 -8
114 -8 89 0 109 3 114 16 16 42 -4 50 -125 46z"/>
<path d="M603 902 c-43 -23 -63 -51 -117 -167 -76 -160 -90 -183 -126 -207
-37 -25 -49 -52 -27 -61 7 -3 44 -3 81 0 l67 6 -7 43 c-4 32 -2 50 12 73 16
28 23 31 66 31 26 0 49 -4 52 -9 8 -13 -19 -73 -43 -95 -43 -39 -29 -47 82
-44 l102 3 -3 42 c-2 23 2 52 9 65 7 13 16 41 20 63 5 22 16 72 25 111 9 39
14 83 10 97 -14 59 -132 87 -203 49z m60 -85 c5 -13 -16 -107 -28 -127 -8 -13
-105 -13 -105 0 0 5 13 31 28 57 16 26 31 56 35 66 8 20 62 24 70 4z"/>
<path d="M2889 903 c-18 -21 -42 -110 -34 -124 14 -22 53 -7 92 36 35 39 45
45 81 45 22 0 43 -3 45 -7 3 -5 -60 -75 -139 -157 -213 -220 -211 -226 46
-226 l178 0 21 36 c12 20 23 53 24 73 2 32 -1 36 -24 39 -20 2 -34 -7 -65 -42
-36 -42 -43 -46 -85 -46 -25 0 -49 3 -52 7 -4 3 65 80 154 170 156 158 161
164 147 185 -15 22 -21 23 -195 26 -162 2 -181 1 -194 -15z"/>
<path d="M890 807 c-14 -12 -32 -35 -40 -50 -13 -27 -13 -30 10 -47 20 -15 24
-28 28 -87 3 -75 27 -140 55 -149 24 -8 21 -29 -8 -48 -13 -9 -27 -16 -30 -16
-2 0 -17 18 -31 40 -30 45 -54 56 -83 39 -39 -25 -34 -97 9 -122 101 -60 279
44 359 210 17 34 31 74 31 87 0 14 5 28 10 31 14 8 13 78 -2 110 -14 30 -57
34 -81 7 -22 -24 -23 -114 -2 -132 21 -17 19 -42 -6 -85 -16 -26 -27 -35 -43
-33 -19 3 -22 11 -27 88 -7 99 -23 156 -49 170 -30 16 -73 11 -100 -13z"/>
<path d="M1363 805 c-50 -23 -113 -90 -113 -120 0 -7 -7 -26 -16 -44 -57 -115
122 -219 259 -150 51 26 117 96 117 124 0 12 4 25 9 31 20 21 21 69 3 104 -42
79 -155 102 -259 55z m124 -77 c-4 -43 -15 -78 -49 -155 -14 -34 -23 -43 -43
-43 -23 0 -25 4 -25 43 1 23 7 53 15 67 8 14 14 33 15 42 0 9 9 33 21 52 15
26 28 36 46 36 23 0 25 -3 20 -42z"/>
<path d="M2037 816 c-50 -18 -67 -34 -67 -60 0 -30 18 -46 53 -46 41 0 67 17
67 45 0 30 14 39 40 25 25 -13 26 -57 3 -99 -19 -32 -41 -39 -60 -20 -16 16
-82 16 -120 0 -37 -15 -73 -66 -73 -103 0 -14 13 -37 33 -56 42 -41 92 -43
135 -7 l30 25 36 -25 c20 -14 50 -25 67 -25 57 0 116 67 74 84 -19 7 -19 55 0
80 22 29 20 121 -3 144 -40 39 -155 60 -215 38z m63 -196 c13 -8 13 -13 -2
-37 -18 -31 -56 -42 -69 -21 -13 19 -11 26 11 48 22 22 37 25 60 10z"/>
<path d="M3320 792 c-43 -42 -51 -71 -21 -79 14 -3 20 -17 25 -51 14 -113 32
-167 59 -182 31 -18 34 -28 10 -46 -26 -19 -63 -17 -70 4 -10 27 -45 62 -63
62 -23 0 -60 -42 -60 -67 0 -12 14 -35 31 -52 64 -64 180 -33 289 78 141 143
191 371 81 371 -19 0 -34 -8 -43 -22 -28 -43 -30 -65 -8 -113 14 -31 19 -56
15 -75 -7 -32 -38 -64 -56 -58 -14 5 -37 116 -38 184 -1 50 -33 84 -79 84 -23
0 -42 -11 -72 -38z"/>
<path d="M3800 766 c-9 -12 -7 -17 9 -25 11 -6 21 -22 23 -36 4 -35 22 -32 28
5 5 34 23 42 29 13 4 -21 51 -67 51 -51 0 32 -26 78 -49 87 -52 19 -79 21 -91
7z"/>
<path d="M3821 626 c-20 -21 -21 -27 -11 -48 56 -106 98 -141 141 -116 38 21
58 51 58 83 0 23 -8 35 -35 53 -20 12 -43 22 -52 22 -9 1 -28 7 -42 15 -33 19
-33 19 -59 -9z"/>
<path d="M3998 473 c-13 -3 -18 -14 -18 -37 0 -37 15 -56 45 -56 29 0 42 11
50 41 11 43 -23 66 -77 52z"/>
<path d="M4150 423 c-58 -21 -80 -37 -80 -58 0 -28 13 -39 70 -57 33 -11 49
-23 60 -47 15 -32 48 -48 76 -37 27 10 9 31 -29 34 -20 2 -37 7 -37 13 0 14
38 49 55 49 17 0 30 40 21 67 -9 28 -95 51 -136 36z"/>
<path d="M3950 365 c0 -11 -11 -15 -40 -15 -41 0 -60 -18 -60 -59 0 -16 -8
-20 -42 -23 -35 -2 -43 -7 -43 -23 0 -17 8 -20 45 -23 44 -3 46 -2 70 42 16
30 28 42 34 36 18 -18 36 -10 36 15 0 14 7 28 15 31 8 4 15 12 15 20 0 8 -7
14 -15 14 -8 0 -15 -7 -15 -15z"/>
<path d="M4037 269 c-3 -23 -3 -48 0 -56 7 -19 49 -12 44 7 -2 8 -7 30 -10 49
-9 49 -27 49 -34 0z"/>
</g>
</svg>
