<?xml version="1.0" standalone="no"?>
<!DOCTYPE svg PUBLIC "-//W3C//DTD SVG 20010904//EN"
 "http://www.w3.org/TR/2001/REC-SVG-20010904/DTD/svg10.dtd">
<svg version="1.0" xmlns="http://www.w3.org/2000/svg"
 width="249.000000pt" height="37.000000pt" viewBox="0 0 249.000000 37.000000"
 preserveAspectRatio="xMidYMid meet">
<metadata>
Created by potrace 1.10, written by Peter Selinger 2001-2011
</metadata>
<g transform="translate(0.000000,37.000000) scale(0.100000,-0.100000)"
fill="#2d51ff" stroke="none">
<path d="M918 303 c7 -3 16 -2 19 1 4 3 -2 6 -13 5 -11 0 -14 -3 -6 -6z"/>
<path d="M788 203 c4 -88 10 -103 45 -103 23 0 22 16 -3 23 -18 5 -20 14 -20
86 0 58 -4 81 -12 81 -10 0 -12 -22 -10 -87z"/>
<path d="M1030 195 c0 -57 4 -95 10 -95 6 0 10 22 10 48 0 51 12 72 42 72 15
0 18 -9 18 -60 0 -47 3 -60 15 -60 11 0 15 12 15 51 0 28 -5 59 -10 70 -12 21
-50 25 -68 7 -9 -9 -12 -4 -12 25 0 20 -4 37 -10 37 -6 0 -10 -38 -10 -95z"/>
<path d="M371 203 c-17 -43 -31 -84 -31 -90 0 -23 18 -14 24 12 6 22 12 25 51
25 39 0 45 -3 51 -25 6 -24 15 -31 26 -19 10 9 -59 169 -75 172 -10 2 -24 -22
-46 -75z m62 10 l17 -43 -34 0 -34 0 16 44 c9 25 17 44 18 43 0 -1 8 -21 17
-44z"/>
<path d="M1170 270 c0 -5 20 -10 46 -10 l45 0 -45 -64 c-63 -87 -61 -96 14
-96 48 0 60 3 60 16 0 13 -9 15 -45 12 -53 -4 -53 -3 5 82 22 32 40 61 40 64
0 4 -27 6 -60 6 -33 0 -60 -4 -60 -10z"/>
<path d="M498 234 c-4 -3 7 -34 23 -70 23 -51 27 -69 19 -85 -6 -11 -17 -18
-25 -17 -7 2 -14 -1 -15 -7 -2 -18 29 -16 48 3 24 24 74 170 61 177 -10 7 -14
-2 -34 -67 l-13 -43 -21 48 c-12 27 -21 53 -21 58 0 10 -14 12 -22 3z"/>
<path d="M650 220 c-43 -43 -10 -125 47 -118 35 4 68 49 59 81 -14 56 -68 75
-106 37z m76 -25 c15 -23 15 -27 0 -50 -19 -29 -38 -32 -60 -9 -19 18 -20 38
-6 65 15 27 46 24 66 -6z"/>
<path d="M887 222 c-29 -32 -31 -67 -4 -98 23 -27 28 -28 56 -17 19 7 33 7 37
2 3 -5 10 -6 16 -3 6 4 6 10 -1 17 -6 6 -11 34 -11 62 l0 52 -39 1 c-25 1 -43
-4 -54 -16z m71 -49 c3 -35 0 -42 -18 -48 -28 -9 -50 11 -50 44 0 33 18 53 45
49 16 -2 21 -12 23 -45z"/>
<path d="M1308 234 c-4 -3 7 -34 23 -70 23 -51 27 -69 19 -85 -6 -11 -17 -18
-25 -17 -7 2 -14 -1 -15 -7 -2 -15 23 -17 43 -3 23 17 80 169 67 182 -10 10
-14 3 -35 -66 l-13 -43 -21 48 c-12 27 -21 53 -21 58 0 10 -14 12 -22 3z"/>
</g>
</svg>
