<?xml version="1.0" standalone="no"?>
<!DOCTYPE svg PUBLIC "-//W3C//DTD SVG 20010904//EN"
 "http://www.w3.org/TR/2001/REC-SVG-20010904/DTD/svg10.dtd">
<svg version="1.0" xmlns="http://www.w3.org/2000/svg"
 width="432.000000pt" height="135.000000pt" viewBox="0 0 432.000000 135.000000"
 preserveAspectRatio="xMidYMid meet">
<metadata>
Created by potrace 1.10, written by Peter Selinger 2001-2011
</metadata>
<g transform="translate(0.000000,135.000000) scale(0.100000,-0.100000)"
fill="#000000" stroke="none">
<path d="M2432 903 c-38 -47 -24 -76 34 -71 32 2 40 7 42 26 3 22 -31 72 -48
72 -3 0 -16 -12 -28 -27z"/>
<path d="M1278 904 l-28 -15 0 -208 c0 -145 3 -210 11 -213 6 -2 26 -2 43 0
l32 4 -3 106 c-2 59 0 113 5 120 13 20 82 28 93 11 15 -24 10 -38 -26 -70 -36
-33 -45 -62 -22 -76 10 -6 30 -41 53 -91 1 -2 18 -5 38 -8 49 -6 55 15 18 56
-45 49 -46 76 -6 118 38 39 42 61 17 103 -16 27 -22 29 -75 29 -31 0 -69 -5
-83 -10 -23 -9 -26 -8 -21 6 3 8 9 47 12 85 6 63 5 69 -12 69 -10 -1 -31 -8
-46 -16z"/>
<path d="M2608 902 c-15 -16 -17 -44 -17 -225 l-1 -207 28 0 c15 0 41 -4 57
-8 50 -14 112 5 139 41 37 50 46 105 31 182 -14 67 -32 84 -93 85 -38 0 -54
-4 -58 -15 -4 -8 -13 -15 -21 -15 -12 0 -14 16 -12 88 3 80 2 87 -16 89 -11 1
-28 -6 -37 -15z m172 -277 c0 -70 -1 -74 -31 -100 -21 -17 -41 -25 -58 -23
-26 3 -26 5 -29 88 l-2 85 37 26 c34 25 39 25 60 12 20 -14 23 -23 23 -88z"/>
<path d="M730 858 c-11 -23 -20 -49 -20 -59 0 -9 -7 -22 -15 -29 -8 -7 -15
-28 -15 -47 0 -21 -6 -36 -15 -39 -8 -4 -15 -18 -15 -34 0 -15 -7 -33 -15 -40
-8 -7 -15 -26 -15 -42 0 -16 -6 -31 -14 -34 -37 -14 -29 -74 9 -74 32 0 65 37
65 72 l0 28 90 0 90 0 0 -34 c0 -44 24 -62 78 -57 17 1 15 46 -3 61 -8 7 -15
28 -15 47 0 21 -6 36 -15 39 -8 4 -15 18 -15 34 0 15 -7 33 -15 40 -8 7 -15
25 -15 40 0 15 -7 33 -15 40 -8 7 -15 23 -15 36 0 34 -39 94 -61 94 -12 0 -26
-15 -39 -42z m71 -147 c3 -25 11 -47 17 -49 7 -2 12 -12 12 -23 0 -17 -8 -19
-60 -19 -52 0 -60 2 -60 19 0 10 7 24 15 31 8 7 15 27 15 45 0 38 7 47 35 43
16 -2 21 -13 26 -47z"/>
<path d="M2213 893 c-38 -3 -66 -9 -73 -18 -7 -8 -21 -15 -31 -15 -11 0 -19
-6 -19 -14 0 -7 -7 -19 -15 -26 -8 -7 -15 -24 -15 -39 0 -14 -7 -35 -15 -45
-19 -26 -19 -115 0 -140 8 -11 15 -31 15 -45 1 -14 12 -39 25 -56 23 -27 28
-29 96 -29 56 0 74 4 84 17 17 23 35 21 35 -4 0 -26 -45 -86 -71 -94 -23 -7
-24 -21 -5 -41 8 -7 17 -19 19 -26 4 -9 11 -7 24 7 10 12 26 24 36 28 9 3 22
18 27 32 5 14 14 25 20 25 7 0 10 45 8 133 -3 129 -3 132 -26 135 -34 5 -55
-17 -48 -50 3 -15 1 -30 -4 -33 -6 -3 -10 -19 -10 -36 0 -25 -4 -29 -28 -29
-15 0 -33 -5 -39 -11 -7 -7 -21 0 -47 27 -36 37 -36 38 -36 124 0 64 4 91 14
100 8 6 16 21 18 33 3 19 10 22 52 25 34 2 53 -2 66 -13 21 -19 55 -13 65 13
4 11 -4 25 -26 44 -17 15 -32 27 -33 26 0 -1 -29 -3 -63 -5z"/>
<path d="M981 766 c-7 -8 -10 -24 -6 -36 5 -17 15 -20 66 -20 44 0 59 -4 59
-14 0 -8 -7 -16 -15 -20 -8 -3 -15 -13 -15 -23 0 -10 -14 -31 -30 -47 -17 -16
-30 -37 -30 -46 0 -10 -7 -23 -15 -30 -8 -7 -15 -22 -15 -35 0 -21 5 -22 102
-28 108 -7 132 0 111 31 -11 17 -19 18 -83 11 -29 -3 -35 -1 -38 16 -2 13 9
33 27 50 17 17 31 38 31 48 0 10 7 20 15 23 8 4 15 12 15 19 0 7 7 18 15 25 8
7 15 28 15 46 l0 34 -84 0 c-46 0 -91 2 -99 5 -7 3 -19 -1 -26 -9z"/>
<path d="M2913 773 c-18 -7 -16 -58 3 -74 13 -10 15 -32 13 -118 -2 -89 0
-106 14 -115 12 -8 22 -8 34 0 15 9 17 25 14 103 -2 84 -1 93 21 116 13 14 35
25 49 25 31 0 52 21 47 47 -5 26 -71 18 -105 -13 -28 -26 -43 -24 -43 6 0 14
-23 34 -33 29 -1 0 -8 -3 -14 -6z"/>
<path d="M1600 751 c-38 -44 -50 -80 -50 -149 0 -100 18 -129 86 -138 59 -7
94 1 94 22 0 8 7 14 15 14 8 0 15 -7 15 -15 0 -8 8 -15 18 -15 9 0 27 -3 39
-6 29 -8 45 24 20 38 -15 8 -17 28 -17 138 l0 130 -102 -1 c-85 -1 -106 -4
-118 -18z m125 -38 c14 -14 16 -28 10 -92 -7 -79 -30 -120 -67 -121 -19 0 -58
74 -58 113 0 33 32 87 62 104 30 16 34 16 53 -4z"/>
<path d="M2420 640 c0 -148 8 -166 76 -172 31 -2 39 1 42 15 2 10 -7 28 -20
40 -22 21 -23 27 -18 125 3 56 4 107 2 112 -2 6 -21 10 -43 10 l-39 0 0 -130z"/>
<path d="M3163 745 c-13 -12 -23 -30 -23 -39 0 -9 -7 -19 -15 -22 -11 -5 -15
-23 -15 -79 0 -52 4 -76 15 -85 8 -7 15 -20 15 -30 0 -12 11 -19 38 -24 65
-10 91 -7 112 17 19 20 23 20 33 6 14 -18 53 -30 73 -22 19 7 18 29 -1 37 -12
4 -15 29 -15 136 l0 130 -97 -1 c-87 -1 -100 -4 -120 -24z m131 -30 c16 -12
19 -25 17 -62 -1 -27 -6 -52 -12 -57 -5 -6 -9 -20 -9 -31 0 -27 -43 -68 -66
-63 -24 4 -37 67 -29 144 6 61 13 69 75 82 3 1 14 -5 24 -13z"/>
<path d="M3439 763 c-1 -5 -1 -12 0 -18 2 -5 4 -68 6 -139 l4 -131 33 -7 c18
-3 36 -4 40 -2 5 3 8 50 8 105 0 86 3 102 20 119 25 25 62 26 85 0 15 -17 17
-31 11 -119 l-8 -100 27 -7 c44 -11 48 4 46 141 -3 153 -10 165 -96 165 -49 0
-57 -3 -77 -30 -12 -16 -25 -30 -30 -30 -4 0 -8 14 -8 30 0 27 -3 30 -30 30
-16 0 -31 -3 -31 -7z"/>
</g>
</svg>
