<?xml version="1.0" standalone="no"?>
<!DOCTYPE svg PUBLIC "-//W3C//DTD SVG 20010904//EN"
 "http://www.w3.org/TR/2001/REC-SVG-20010904/DTD/svg10.dtd">
<svg version="1.0" xmlns="http://www.w3.org/2000/svg"
 width="300.000000pt" height="200.000000pt" viewBox="0 0 300.000000 200.000000"
 preserveAspectRatio="xMidYMid meet">
<metadata>
Created by potrace 1.10, written by Peter Selinger 2001-2011
</metadata>
<g transform="translate(0.000000,200.000000) scale(0.100000,-0.100000)"
fill="#000000" stroke="none">
<path d="M818 1945 c165 -58 297 -126 439 -227 93 -66 180 -144 418 -380 417
-411 563 -529 774 -625 128 -58 188 -74 308 -82 89 -7 229 2 242 15 11 11 -9
11 -59 2 -79 -15 -251 -3 -340 22 -169 48 -351 156 -548 324 -62 53 -230 215
-375 360 -318 319 -442 418 -663 529 -82 41 -266 107 -297 106 -12 0 34 -20
101 -44z"/>
<path d="M1554 1918 c9 -13 20 -32 25 -43 27 -60 317 -305 360 -305 6 0 11 -4
11 -10 0 -5 7 -10 15 -10 9 0 30 -8 48 -17 18 -9 34 -18 37 -18 3 0 34 -10 70
-22 36 -12 81 -25 100 -28 19 -4 39 -10 45 -13 21 -13 369 -19 417 -8 15 3 30
2 33 -4 5 -8 11 -7 21 1 8 6 17 9 21 6 3 -4 15 -2 26 4 13 7 17 7 13 1 -3 -6
-2 -14 4 -17 6 -4 9 -1 8 7 -2 7 4 13 12 13 8 0 14 -6 12 -13 -1 -8 2 -11 8
-7 8 5 7 11 -1 21 -9 11 -6 14 17 16 43 2 48 3 62 12 7 4 19 2 28 -5 12 -10
15 -10 12 2 -2 8 4 14 12 14 8 0 14 -7 12 -15 -2 -8 0 -12 4 -7 4 4 9 16 11
26 2 18 0 18 -75 0 -287 -69 -588 -64 -817 12 -204 68 -407 214 -517 372 -23
31 -43 57 -46 57 -2 0 3 -10 12 -22z"/>
<path d="M1670 1926 c0 -39 214 -249 319 -313 125 -77 334 -145 433 -142 21 1
12 5 -27 10 -270 39 -502 169 -657 368 -65 83 -68 87 -68 77z"/>
<path d="M2508 1463 c17 -2 47 -2 65 0 17 2 3 4 -33 4 -36 0 -50 -2 -32 -4z"/>
<path d="M85 1419 c-91 -12 -109 -21 -25 -13 36 4 135 10 220 14 l155 7 -140
0 c-77 0 -171 -4 -210 -8z"/>
<path d="M468 1413 c12 -2 32 -2 45 0 12 2 2 4 -23 4 -25 0 -35 -2 -22 -4z"/>
<path d="M2526 1408 c3 -5 10 -6 15 -3 13 9 11 12 -6 12 -8 0 -12 -4 -9 -9z"/>
<path d="M2866 1412 c-3 -5 1 -9 9 -9 8 0 12 4 9 9 -3 4 -7 8 -9 8 -2 0 -6 -4
-9 -8z"/>
<path d="M563 1403 c9 -2 23 -2 30 0 6 3 -1 5 -18 5 -16 0 -22 -2 -12 -5z"/>
<path d="M131 1384 c-56 -8 -110 -19 -120 -24 -12 -8 -7 -9 19 -5 358 59 649
33 965 -88 44 -16 83 -35 87 -41 4 -6 8 -8 8 -3 0 4 15 0 33 -10 17 -9 34 -18
37 -18 15 -3 126 -64 275 -150 55 -32 125 -72 155 -90 30 -17 66 -38 80 -47
35 -23 103 -61 182 -104 37 -20 78 -46 91 -58 13 -12 33 -22 45 -22 12 0 22 1
22 2 0 1 -39 23 -87 49 -49 26 -189 107 -313 180 -124 73 -255 149 -293 169
-37 21 -65 41 -63 45 3 4 -5 7 -17 7 -12 -1 -21 4 -20 11 2 8 -4 10 -14 6 -11
-4 -14 -3 -9 5 5 8 1 10 -10 5 -12 -4 -15 -3 -10 5 5 8 1 10 -10 5 -13 -5 -15
-3 -9 7 6 9 4 11 -4 5 -17 -10 -112 35 -104 48 3 6 1 7 -6 3 -6 -4 -28 -2 -47
4 -27 9 -33 15 -23 21 9 6 4 8 -16 3 -24 -4 -27 -3 -15 6 13 10 12 11 -3 6
-10 -3 -30 -3 -44 0 -19 5 -22 9 -11 16 9 7 7 8 -8 3 -11 -3 -60 4 -109 15
-206 49 -432 61 -634 34z"/>
<path d="M628 1393 c6 -2 18 -2 25 0 6 3 1 5 -13 5 -14 0 -19 -2 -12 -5z"/>
<path d="M678 1383 c6 -2 18 -2 25 0 6 3 1 5 -13 5 -14 0 -19 -2 -12 -5z"/>
<path d="M728 1373 c7 -3 16 -2 19 1 4 3 -2 6 -13 5 -11 0 -14 -3 -6 -6z"/>
<path d="M2676 1368 c3 -5 10 -6 15 -3 13 9 11 12 -6 12 -8 0 -12 -4 -9 -9z"/>
<path d="M2716 1372 c-3 -5 1 -9 9 -9 8 0 12 4 9 9 -3 4 -7 8 -9 8 -2 0 -6 -4
-9 -8z"/>
<path d="M2906 1372 c-3 -5 1 -9 9 -9 8 0 12 4 9 9 -3 4 -7 8 -9 8 -2 0 -6 -4
-9 -8z"/>
<path d="M808 1353 c7 -3 16 -2 19 1 4 3 -2 6 -13 5 -11 0 -14 -3 -6 -6z"/>
<path d="M2716 1328 c3 -5 10 -6 15 -3 13 9 11 12 -6 12 -8 0 -12 -4 -9 -9z"/>
<path d="M2906 1328 c3 -5 10 -6 15 -3 13 9 11 12 -6 12 -8 0 -12 -4 -9 -9z"/>
<path d="M2866 1301 c-4 -5 -2 -12 3 -15 5 -4 12 -2 15 3 4 5 2 12 -3 15 -5 4
-12 2 -15 -3z"/>
<path d="M2945 1301 c-3 -5 -2 -12 3 -15 5 -3 9 1 9 9 0 17 -3 19 -12 6z"/>
<path d="M2826 1262 c-3 -5 1 -9 9 -9 8 0 12 4 9 9 -3 4 -7 8 -9 8 -2 0 -6 -4
-9 -8z"/>
<path d="M2875 1261 c-3 -5 -2 -12 3 -15 5 -3 9 1 9 9 0 17 -3 19 -12 6z"/>
<path d="M2906 1262 c-3 -5 1 -9 9 -9 8 0 12 4 9 9 -3 4 -7 8 -9 8 -2 0 -6 -4
-9 -8z"/>
<path d="M2985 1261 c-3 -5 -2 -12 3 -15 5 -3 9 1 9 9 0 17 -3 19 -12 6z"/>
<path d="M2866 1178 c3 -5 10 -6 15 -3 13 9 11 12 -6 12 -8 0 -12 -4 -9 -9z"/>
<path d="M2906 1182 c-3 -5 1 -9 9 -9 8 0 12 4 9 9 -3 4 -7 8 -9 8 -2 0 -6 -4
-9 -8z"/>
<path d="M1350 1127 c0 -9 657 -367 673 -367 4 0 32 -12 64 -26 56 -25 87 -38
146 -63 53 -21 269 -81 290 -80 12 1 -9 9 -48 18 -222 55 -463 159 -828 360
-78 43 -177 97 -219 120 -43 24 -78 41 -78 38z"/>
<path d="M2985 1071 c-3 -5 -2 -12 3 -15 5 -3 9 1 9 9 0 17 -3 19 -12 6z"/>
<path d="M75 714 c39 -26 110 -66 160 -90 88 -42 289 -114 316 -114 8 1 -38
18 -101 39 -120 40 -289 119 -376 177 -28 19 -55 34 -60 34 -5 0 23 -21 61
-46z"/>
<path d="M1885 700 c-8 -13 5 -13 25 0 13 8 13 10 -2 10 -9 0 -20 -4 -23 -10z"/>
<path d="M2041 706 c10 -9 69 -36 69 -32 0 6 -55 36 -66 36 -4 0 -5 -2 -3 -4z"/>
<path d="M1805 670 c-8 -13 5 -13 25 0 13 8 13 10 -2 10 -9 0 -20 -4 -23 -10z"/>
<path d="M2150 650 c19 -11 40 -19 45 -19 6 0 -6 8 -25 19 -19 11 -39 19 -45
19 -5 0 6 -8 25 -19z"/>
<path d="M1740 645 c-33 -19 -21 -19 21 0 19 8 27 14 19 14 -8 0 -26 -6 -40
-14z"/>
<path d="M1680 620 c-8 -5 -10 -10 -5 -10 6 0 17 5 25 10 8 5 11 10 5 10 -5 0
-17 -5 -25 -10z"/>
<path d="M2215 623 c22 -22 325 -118 325 -103 0 4 -17 11 -37 15 -32 6 -201
61 -278 90 -13 5 -17 5 -10 -2z"/>
<path d="M1630 600 c-8 -5 -10 -10 -5 -10 6 0 17 5 25 10 8 5 11 10 5 10 -5 0
-17 -5 -25 -10z"/>
<path d="M1580 580 c-8 -5 -10 -10 -5 -10 6 0 17 5 25 10 8 5 11 10 5 10 -5 0
-17 -5 -25 -10z"/>
<path d="M2575 581 c42 -13 165 -29 160 -21 -3 4 -33 11 -67 14 -35 4 -76 9
-93 12 l-30 4 30 -9z"/>
<path d="M1520 560 c-18 -12 -2 -12 25 0 13 6 15 9 5 9 -8 0 -22 -4 -30 -9z"/>
<path d="M2810 550 c36 -4 94 -7 130 -7 l65 0 -70 7 c-38 4 -97 7 -130 7 l-60
0 65 -7z"/>
<path d="M1378 513 c7 -3 16 -2 19 1 4 3 -2 6 -13 5 -11 0 -14 -3 -6 -6z"/>
<path d="M2554 513 c4 -5 11 -8 14 -9 7 0 167 -22 209 -28 12 -2 20 1 17 5 -3
5 -20 9 -37 9 -18 0 -70 7 -117 15 -99 17 -95 17 -86 8z"/>
<path d="M575 504 c24 -9 146 -31 138 -24 -4 4 -35 12 -67 19 -58 11 -91 13
-71 5z"/>
<path d="M1328 503 c6 -2 18 -2 25 0 6 3 1 5 -13 5 -14 0 -19 -2 -12 -5z"/>
<path d="M1278 493 c6 -2 18 -2 25 0 6 3 1 5 -13 5 -14 0 -19 -2 -12 -5z"/>
<path d="M1238 483 c7 -3 16 -2 19 1 4 3 -2 6 -13 5 -11 0 -14 -3 -6 -6z"/>
<path d="M743 473 c9 -2 25 -2 35 0 9 3 1 5 -18 5 -19 0 -27 -2 -17 -5z"/>
<path d="M1153 473 c9 -2 23 -2 30 0 6 3 -1 5 -18 5 -16 0 -22 -2 -12 -5z"/>
<path d="M2813 474 c3 -4 45 -6 92 -6 47 0 89 2 92 6 4 3 -38 6 -92 6 -54 0
-96 -3 -92 -6z"/>
<path d="M828 463 c12 -2 32 -2 45 0 12 2 2 4 -23 4 -25 0 -35 -2 -22 -4z"/>
<path d="M953 463 c32 -2 81 -2 110 0 29 2 3 3 -58 3 -60 0 -84 -1 -52 -3z"/>
<path d="M559 397 c4 -4 39 -7 77 -5 l69 3 -77 5 c-42 3 -73 1 -69 -3z"/>
<path d="M328 393 c23 -2 59 -2 80 0 20 2 1 4 -43 4 -44 0 -61 -2 -37 -4z"/>
<path d="M463 393 c9 -2 23 -2 30 0 6 3 -1 5 -18 5 -16 0 -22 -2 -12 -5z"/>
<path d="M734 388 c-3 -4 15 -8 40 -8 25 0 46 2 46 4 0 8 -82 11 -86 4z"/>
<path d="M178 383 c12 -2 32 -2 45 0 12 2 2 4 -23 4 -25 0 -35 -2 -22 -4z"/>
<path d="M88 373 c12 -2 30 -2 40 0 9 3 -1 5 -23 4 -22 0 -30 -2 -17 -4z"/>
<path d="M945 359 c292 -51 513 -147 700 -305 39 -32 64 -51 58 -43 -7 9 -9
19 -5 23 4 4 3 6 -3 4 -5 -1 -31 17 -56 41 -26 24 -50 42 -54 41 -13 -4 -64
53 -58 64 4 6 0 5 -9 -2 -10 -8 -19 -9 -22 -3 -7 11 -113 63 -186 90 -25 10
-54 21 -65 26 -11 4 -29 10 -39 12 -11 2 -38 10 -61 18 -54 18 -248 55 -283
54 -15 0 23 -9 83 -20z"/>
<path d="M8 363 c7 -3 16 -2 19 1 4 3 -2 6 -13 5 -11 0 -14 -3 -6 -6z"/>
<path d="M728 363 c7 -3 16 -2 19 1 4 3 -2 6 -13 5 -11 0 -14 -3 -6 -6z"/>
<path d="M2536 362 c-3 -5 1 -9 9 -9 8 0 12 4 9 9 -3 4 -7 8 -9 8 -2 0 -6 -4
-9 -8z"/>
<path d="M2435 349 c-3 -4 2 -6 10 -5 21 3 28 13 10 13 -9 0 -18 -4 -20 -8z"/>
<path d="M858 343 c7 -3 16 -2 19 1 4 3 -2 6 -13 5 -11 0 -14 -3 -6 -6z"/>
<path d="M2355 339 c-3 -4 2 -6 10 -5 21 3 28 13 10 13 -9 0 -18 -4 -20 -8z"/>
<path d="M908 333 c7 -3 16 -2 19 1 4 3 -2 6 -13 5 -11 0 -14 -3 -6 -6z"/>
<path d="M988 313 c7 -3 16 -2 19 1 4 3 -2 6 -13 5 -11 0 -14 -3 -6 -6z"/>
<path d="M2795 301 c-3 -6 -10 -9 -15 -6 -4 3 -7 -3 -6 -12 2 -10 7 -18 12
-18 5 0 14 -3 20 -7 7 -5 10 2 10 17 -2 29 -11 41 -21 26z m12 -14 c0 -8 -6
-14 -14 -14 -9 0 -10 4 -2 14 6 7 12 13 14 13 1 0 2 -6 2 -13z"/>
<path d="M2265 291 c-3 -6 -3 -10 2 -9 4 2 9 -1 11 -7 1 -5 -2 -10 -7 -10 -5
0 -12 -2 -15 -5 -3 -4 5 -6 18 -6 24 0 29 17 9 37 -8 8 -13 8 -18 0z"/>
<path d="M2519 297 c-12 -26 3 -59 16 -37 4 6 10 8 15 5 4 -3 7 2 6 12 -2 12
-32 29 -37 20z m31 -12 c0 -2 -6 -8 -13 -14 -10 -8 -14 -7 -14 2 0 8 6 14 14
14 7 0 13 -1 13 -2z"/>
<path d="M2599 284 c-7 -8 -7 -14 1 -19 5 -3 10 -3 10 1 0 3 6 2 13 -4 10 -9
13 -6 13 12 0 25 -20 30 -37 10z m25 -2 c3 -5 -1 -9 -9 -9 -8 0 -12 4 -9 9 3
4 7 8 9 8 2 0 6 -4 9 -8z"/>
<path d="M2684 286 c4 -25 18 -37 30 -27 7 6 15 8 19 5 3 -3 4 2 3 12 -2 12
-12 19 -28 19 -14 1 -25 -3 -24 -9z m35 -13 c-6 -7 -15 -10 -20 -7 -13 8 -3
21 15 21 12 0 13 -4 5 -14z"/>
<path d="M2947 292 c-9 -19 0 -37 18 -37 25 0 28 37 3 41 -10 1 -19 -1 -21 -4z
m30 -17 c0 -6 -6 -12 -12 -12 -6 0 -12 6 -12 12 0 6 6 12 12 12 6 0 12 -6 12
-12z"/>
<path d="M2083 276 c0 -15 22 -15 34 0 4 5 4 6 -1 2 -5 -4 -14 -3 -21 2 -8 7
-12 5 -12 -4z"/>
<path d="M2180 275 c5 -7 8 -14 5 -17 -3 -2 2 -5 10 -5 10 0 12 4 5 12 -5 7
-8 14 -5 17 3 2 -2 5 -10 5 -10 0 -12 -4 -5 -12z"/>
<path d="M2374 276 c1 -8 5 -18 8 -22 4 -3 5 1 4 10 -1 8 -5 18 -8 22 -4 3 -5
-1 -4 -10z"/>
<path d="M2423 273 c0 -7 3 -11 5 -8 3 3 11 0 19 -6 7 -6 13 -10 14 -8 6 32 5
35 -16 35 -12 0 -22 -6 -22 -13z"/>
<path d="M2855 271 c1 -9 13 -16 28 -16 20 -2 24 1 17 10 -5 6 -8 14 -5 16 2
3 -6 5 -19 5 -15 0 -23 -5 -21 -15z m29 1 c3 -5 -1 -9 -9 -9 -8 0 -12 4 -9 9
3 4 7 8 9 8 2 0 6 -4 9 -8z"/>
<path d="M2011 266 c-10 -11 -9 -14 1 -12 14 2 23 15 15 22 -2 2 -10 -2 -16
-10z"/>
<path d="M2343 265 c0 -8 4 -12 9 -9 5 3 6 10 3 15 -9 13 -12 11 -12 -6z"/>
<path d="M1220 227 c98 -49 186 -108 249 -167 24 -23 45 -39 47 -37 6 6 -77
81 -136 122 -58 41 -216 125 -234 125 -6 0 27 -19 74 -43z"/>
<path d="M1916 248 c3 -5 10 -6 15 -3 13 9 11 12 -6 12 -8 0 -12 -4 -9 -9z"/>
<path d="M1833 213 c4 -6 3 -14 -3 -18 -15 -9 -3 -24 17 -21 9 2 17 11 19 20
1 10 0 15 -3 12 -4 -3 -13 0 -21 7 -11 8 -14 8 -9 0z m21 -21 c3 -5 -1 -9 -9
-9 -8 0 -12 4 -9 9 3 4 7 8 9 8 2 0 6 -4 9 -8z"/>
<path d="M1935 210 c-4 -6 -10 -8 -15 -5 -19 11 -18 -13 0 -30 11 -10 21 -15
21 -12 1 4 2 10 3 15 1 4 5 12 9 19 4 6 3 14 -2 17 -5 4 -12 2 -16 -4z m6 -13
c-6 -8 -7 -18 -3 -23 4 -4 -1 -2 -10 5 -19 14 -25 26 -9 16 5 -3 12 -1 16 5 3
5 9 10 12 10 3 0 0 -6 -6 -13z"/>
<path d="M1998 203 c-9 -11 -8 -13 2 -11 8 2 15 -3 16 -9 1 -7 2 -16 3 -19 0
-4 8 -1 16 6 11 9 12 16 5 25 -5 6 -8 14 -5 17 3 2 -2 5 -10 5 -8 0 -21 -7
-27 -14z m31 -7 c9 -11 9 -16 -1 -22 -7 -4 -10 -4 -6 1 4 4 3 14 -3 22 -6 7
-9 13 -6 13 2 0 10 -6 16 -14z"/>
<path d="M2094 208 c-22 -35 -6 -58 20 -29 14 16 15 20 2 30 -11 9 -16 9 -22
-1z m20 -7 c3 -5 -1 -14 -8 -20 -12 -10 -14 -9 -11 6 2 10 4 19 4 21 2 5 10 2
15 -7z"/>
<path d="M2167 212 c-8 -17 0 -35 15 -38 10 -1 16 3 15 9 -1 7 5 11 13 9 12
-3 12 -1 3 9 -14 14 -41 21 -46 11z m33 -7 c0 -2 -6 -8 -13 -14 -10 -8 -14 -7
-14 2 0 8 6 14 14 14 7 0 13 -1 13 -2z"/>
<path d="M2256 212 c-3 -6 -2 -13 4 -17 6 -4 8 -10 5 -15 -6 -10 21 -7 32 3 4
4 8 14 9 23 2 11 -1 12 -10 5 -9 -7 -16 -7 -23 0 -7 7 -13 7 -17 1z m39 -14
c5 4 5 1 1 -6 -6 -10 -11 -10 -22 -1 -8 6 -14 14 -14 16 0 3 6 0 13 -6 8 -6
18 -7 22 -3z"/>
<path d="M2864 208 c-12 -18 -14 -39 -4 -33 5 3 11 1 15 -5 4 -6 11 -8 16 -4
6 3 5 12 -3 21 -7 9 -11 18 -10 20 2 3 1 7 -1 9 -3 3 -9 -1 -13 -8z m13 -5
c-4 -3 -1 -13 6 -22 11 -14 10 -14 -5 -2 -16 12 -16 31 -1 31 4 0 3 -3 0 -7z"/>
<path d="M1659 208 c-8 -26 -4 -34 17 -34 22 0 22 1 7 18 -15 17 -22 21 -24
16z"/>
<path d="M1734 194 c2 -12 12 -19 28 -19 24 -2 26 0 19 34 -1 2 -7 -1 -14 -8
-10 -8 -16 -8 -25 1 -8 8 -10 6 -8 -8z"/>
<path d="M2354 198 c-3 -5 -11 -5 -17 -2 -8 5 -8 3 0 -6 7 -8 20 -15 29 -16 9
-1 13 0 10 3 -3 4 -1 11 4 18 7 8 5 12 -6 12 -8 0 -17 -4 -20 -9z"/>
<path d="M2424 199 c-3 -5 -2 -9 3 -8 4 1 10 0 13 -1 3 -1 13 -3 24 -5 14 -3
16 -1 7 8 -14 14 -39 18 -47 6z"/>
<path d="M2519 207 c-9 -20 -3 -33 16 -33 26 0 28 28 2 32 -9 1 -17 2 -18 1z
m31 -13 c0 -8 -19 -13 -24 -6 -3 5 1 9 9 9 8 0 15 -2 15 -3z"/>
<path d="M2594 192 c2 -8 10 -16 18 -18 10 -1 15 4 14 14 -2 8 -10 16 -18 18
-10 1 -15 -4 -14 -14z"/>
<path d="M2684 193 c4 -28 22 -34 41 -13 10 11 16 20 14 21 -30 7 -56 4 -55
-8z m35 -10 c-6 -7 -15 -10 -20 -7 -13 8 -3 21 15 21 12 0 13 -4 5 -14z"/>
<path d="M2775 191 c1 -9 6 -16 11 -16 5 0 14 -3 20 -7 6 -4 10 2 10 16 0 16
-6 22 -22 22 -14 0 -21 -6 -19 -15z m29 1 c3 -5 -1 -9 -9 -9 -8 0 -12 4 -9 9
3 4 7 8 9 8 2 0 6 -4 9 -8z"/>
<path d="M2954 196 c3 -25 12 -28 27 -9 7 10 9 15 5 11 -5 -4 -15 -3 -22 3 -9
7 -12 6 -10 -5z"/>
<path d="M1591 186 c-8 -10 -9 -16 -1 -21 6 -4 9 -1 8 7 -2 7 3 12 10 10 8 -1
11 2 7 8 -8 13 -10 13 -24 -4z"/>
<path d="M1676 120 c5 -8 9 -18 9 -22 0 -3 3 -9 7 -13 3 -4 5 0 4 9 -1 9 -8
22 -16 29 -10 10 -11 9 -4 -3z"/>
<path d="M1764 121 c8 -12 -19 -33 -30 -23 -4 4 -2 -1 5 -11 13 -16 15 -16 32
-1 14 13 16 20 8 31 -13 15 -23 18 -15 4z m16 -15 c0 -2 -8 -10 -17 -17 -16
-13 -17 -12 -4 4 13 16 21 21 21 13z"/>
<path d="M1994 106 c0 -18 5 -22 25 -21 14 0 25 8 27 17 1 10 -4 15 -15 13 -9
-1 -21 1 -26 6 -7 5 -11 0 -11 -15z m42 -8 c3 -4 -1 -5 -10 -4 -8 1 -18 5 -22
8 -3 4 1 5 10 4 8 -1 18 -5 22 -8z"/>
<path d="M2275 120 c-4 -6 -10 -8 -15 -5 -4 3 -7 -3 -6 -12 4 -23 38 -23 42
-1 3 21 -12 33 -21 18z m12 -13 c0 -8 -6 -14 -14 -14 -9 0 -10 4 -2 14 6 7 12
13 14 13 1 0 2 -6 2 -13z"/>
<path d="M2347 122 c-9 -19 0 -37 18 -37 25 0 28 37 3 41 -10 1 -19 -1 -21 -4z
m30 -17 c0 -6 -6 -12 -12 -12 -6 0 -12 6 -12 12 0 6 6 12 12 12 6 0 12 -6 12
-12z"/>
<path d="M2426 102 c1 -15 2 -29 3 -31 1 -2 10 4 21 14 18 17 19 30 2 30 -4 0
-12 3 -18 7 -7 5 -10 -2 -8 -20z m34 3 c0 -2 -6 -8 -13 -14 -10 -8 -14 -7 -14
2 0 8 6 14 14 14 7 0 13 -1 13 -2z"/>
<path d="M2630 115 c-10 -12 -16 -13 -29 -3 -14 11 -14 11 -4 -3 7 -9 9 -20 5
-25 -4 -4 0 -3 9 4 9 6 19 10 22 7 4 -3 5 -2 2 2 -3 3 0 12 6 20 6 7 9 13 6
13 -2 0 -10 -7 -17 -15z"/>
<path d="M2946 122 c2 -3 -1 -11 -7 -19 -6 -7 -10 -13 -8 -14 31 -6 38 -5 36
4 -1 7 3 11 9 10 6 -1 11 5 11 12 0 10 -4 12 -12 5 -6 -5 -16 -6 -22 -1 -5 5
-8 6 -7 3z"/>
<path d="M1842 116 c4 -5 3 -15 -3 -22 -7 -9 -6 -12 6 -10 8 1 20 8 25 14 6 7
7 10 4 7 -4 -3 -14 1 -23 7 -9 7 -13 8 -9 4z"/>
<path d="M1915 101 c1 -8 10 -15 19 -17 10 -1 15 0 12 3 -3 4 -2 11 4 18 6 8
2 11 -14 11 -15 0 -23 -5 -21 -15z"/>
<path d="M2089 116 c0 -1 -2 -8 -4 -17 -2 -11 3 -16 13 -15 19 3 25 33 6 33
-8 0 -14 -1 -15 -1z"/>
<path d="M2165 101 c1 -9 10 -16 20 -16 10 0 19 7 20 16 2 10 -5 15 -20 15
-15 0 -22 -5 -20 -15z m29 1 c3 -5 -1 -9 -9 -9 -8 0 -12 4 -9 9 3 4 7 8 9 8 2
0 6 -4 9 -8z"/>
<path d="M2510 105 c6 -7 8 -14 5 -16 -2 -3 7 -5 20 -5 17 0 21 3 15 11 -6 7
-8 14 -5 16 2 3 -7 5 -20 5 -17 0 -21 -3 -15 -11z"/>
<path d="M2684 102 c3 -17 33 -25 41 -12 3 5 0 12 -7 17 -22 13 -36 11 -34 -5z
m30 0 c3 -5 -1 -9 -9 -9 -8 0 -12 4 -9 9 3 4 7 8 9 8 2 0 6 -4 9 -8z"/>
<path d="M2764 109 c-2 -4 1 -11 8 -16 16 -9 42 -14 34 -6 -3 4 -2 11 4 18 6
8 2 11 -16 11 -14 0 -27 -3 -30 -7z m36 -5 c0 -8 -19 -13 -24 -6 -3 5 1 9 9 9
8 0 15 -2 15 -3z"/>
<path d="M2859 117 c-10 -23 -3 -33 20 -31 37 3 36 3 23 16 -10 10 -40 20 -43
15z m37 -19 c3 -4 -1 -5 -10 -4 -8 1 -18 5 -22 8 -3 4 1 5 10 4 8 -1 18 -5 22
-8z"/>
<path d="M2549 38 c-5 -18 -6 -38 -1 -34 7 8 12 36 6 36 -2 0 -4 -1 -5 -2z"/>
<path d="M2596 31 c-4 -5 -2 -12 3 -15 5 -4 12 -2 15 3 4 5 2 12 -3 15 -5 4
-12 2 -15 -3z"/>
<path d="M2866 32 c-3 -5 1 -9 9 -9 8 0 12 4 9 9 -3 4 -7 8 -9 8 -2 0 -6 -4
-9 -8z"/>
<path d="M2256 18 c3 -5 10 -6 15 -3 13 9 11 12 -6 12 -8 0 -12 -4 -9 -9z"/>
</g>
</svg>
