<?xml version="1.0" standalone="yes"?>
<svg width="249" height="37">
<path style="fill:#ffffff; stroke:none;" d="M0 0L0 37L249 37L249 0L0 0z"/>
<path style="fill:#c0c0c0; stroke:none;" d="M176 1L176 2L180 2L176 1z"/>
<path style="fill:#fbbf67; stroke:none;" d="M22 12L51 12C45.3638 -0.0447083 26.7238 -1.77102 22 12z"/>
<path style="fill:#000000; stroke:none;" d="M168 13C170.719 19.0758 169.514 43.3377 180 32L175 31L175 16L181 16L181 13L175 13C175.2 6.8858 177.278 6.1355 183 7C180.433 -7.783 170.288 11.5168 168 13z"/>
<path style="fill:#848484; stroke:none;" d="M181 2L182 3L181 2z"/>
<path style="fill:#fde3bc; stroke:none;" d="M208 2L208 3L212 3L208 2z"/>
<path style="fill:#fbbf67; stroke:none;" d="M195 13L225 12C218.16 0.420109 200.319 -0.614265 195 13z"/>
<path style="fill:#bcbcbc; stroke:none;" d="M98 4L98 5L102 5L98 4z"/>
<path style="fill:#000000; stroke:none;" d="M95 20C87.2932 22.7717 87.9504 32.3354 96.0039 34.5664C106.215 37.3949 117.154 25.8577 105 20C120.08 1.10776 79.324 1.46375 95 20z"/>
<path style="fill:#838383; stroke:none;" d="M104 5L105 6L104 5z"/>
<path style="fill:#6d6d6d; stroke:none;" d="M177.667 5.33333L178.333 5.66667L177.667 5.33333z"/>
<path style="fill:#747474; stroke:none;" d="M183 5L184 6L183 5z"/>
<path style="fill:#656565; stroke:none;" d="M93 6L94 7L93 6z"/>
<path style="fill:#7c7c7c; stroke:none;" d="M175 6L176 7L175 6z"/>
<path style="fill:#a9a9a9; stroke:none;" d="M107 7L108 8L107 7z"/>
<path style="fill:#8c8c8c; stroke:none;" d="M91 8L92 9L91 8z"/>
<path style="fill:#a1a1a1; stroke:none;" d="M98 8L98 9L102 9L98 8z"/>
<path style="fill:#c1c1c1; stroke:none;" d="M170 8L170 12L171 12L170 8z"/>
<path style="fill:#ffffff; stroke:none;" d="M96.6227 10.0285C92.8268 13.2009 99.8029 18.7975 103.238 15.2539C107.024 11.3489 99.928 7.26616 96.6227 10.0285z"/>
<path style="fill:#868686; stroke:none;" d="M103 9L104 10L103 9z"/>
<path style="fill:#939393; stroke:none;" d="M90 11L90 14L91 14L90 11z"/>
<path style="fill:#3c3c3c; stroke:none;" d="M134.667 11.3333L135.333 11.6667L134.667 11.3333z"/>
<path style="fill:#4a4a4a; stroke:none;" d="M160.667 11.3333L161.333 11.6667L160.667 11.3333z"/>
<path style="fill:#25333a; stroke:none;" d="M21 12C23.0418 23.2654 33.7362 23.7839 35 12L21 12z"/>
<path style="fill:#56717f; stroke:none;" d="M34 15L38 16L39 13L34 15z"/>
<path style="fill:#25333a; stroke:none;" d="M38 12L42 21L49 15L43 22C48.1576 20.5391 50.4165 17.2383 51 12L38 12z"/>
<path style="fill:#000000; stroke:none;" d="M83 28C75.3327 29.9668 71.7498 33.8967 66 26L83 23C82.1918 8.23881 62.1867 9.67653 62.1867 24C62.1867 35.8219 81.0359 40.0671 83 28z"/>
<path style="fill:#5d5d5d; stroke:none;" d="M76 12L77 13L76 12z"/>
<path style="fill:#000000; stroke:none;" d="M137 28C133.052 29.0336 129.174 32.7417 125.059 30.2145C119.663 26.9015 120.163 17.7153 127.012 16.5424C130.555 15.9357 133.731 19.0897 137 20L137 12C133.175 12.1376 128.701 11.4485 125 12.4367C100.422 18.9993 133.614 49.4121 137 28z"/>
<path style="fill:#6b6b6b; stroke:none;" d="M131 12L132 13L131 12z"/>
<path style="fill:#000000; stroke:none;" d="M163 28C159.227 28.9678 155.045 32.6306 151.108 30.6381C145.101 27.5978 146.178 17.7123 153.012 16.5424C156.555 15.9359 159.731 19.0897 163 20L163 12C159.119 12.1397 154.792 11.5488 151.001 12.3974C125.751 18.0495 159.543 49.8616 163 28z"/>
<path style="fill:#808080; stroke:none;" d="M157 12L158 13L157 12z"/>
<path style="fill:#4e4e4e; stroke:none;" d="M169.667 12.3333L170.333 12.6667L169.667 12.3333z"/>
<path style="fill:#3d3d3d; stroke:none;" d="M175 12L175 13L180 13L175 12z"/>
<path style="fill:#7e6d4c; stroke:none;" d="M196 12L196 13L209 13L196 12z"/>
<path style="fill:#87734e; stroke:none;" d="M211 12L211 13L225 13L211 12z"/>
<path style="fill:#fbbf67; stroke:none;" d="M51 13C47.9437 21.9833 42.3979 21.9955 37 15L35 15C30.5541 23.3573 25.3769 20.8239 21 14L20 14C20.0035 19.3169 19.9207 24.5674 23.419 28.9568C34.4991 42.8594 59.7742 29.533 51 13z"/>
<path style="fill:#999999; stroke:none;" d="M67 13L68 14L67 13z"/>
<path style="fill:#25333a; stroke:none;" d="M195 13C196.92 22.8959 209.449 24.4259 208 13L206 13L199 19L205 14L195 13z"/>
<path style="fill:#516a78; stroke:none;" d="M205 13L199 19L205 13z"/>
<path style="fill:#56717f; stroke:none;" d="M208 13L208 15L213 15L213 13L208 13z"/>
<path style="fill:#25333a; stroke:none;" d="M211 15L211 16C214.369 21.1286 220.135 24.49 223 17L216 21L224 16C225.996 10.7056 213.451 13.6689 211 15z"/>
<path style="fill:#939393; stroke:none;" d="M95 14L96 15L95 14z"/>
<path style="fill:#727272; stroke:none;" d="M120 14L121 15L120 14z"/>
<path style="fill:#fbbf67; stroke:none;" d="M194 14C194.001 19.6603 193.746 25.2437 197.558 29.8951C204.349 38.1827 218.279 37.1444 223.772 27.9846C226.339 23.7025 225.999 18.7972 226 14L225 14C220.983 22.3661 215.975 22.7355 211 15L209 15C203.937 24.6429 199.408 20.1699 194 14z"/>
<path style="fill:#526c7a; stroke:none;" d="M223 14L216 21L224 18L223 14z"/>
<path style="fill:#546e7b; stroke:none;" d="M26 18L30 15L26 18z"/>
<path style="fill:#56717f; stroke:none;" d="M42 22L43 22L49 15L42 22z"/>
<path style="fill:#a5a5a5; stroke:none;" d="M96 15L97 16L96 15z"/>
<path style="fill:#595959; stroke:none;" d="M119 15L120 16L119 15z"/>
<path style="fill:#717171; stroke:none;" d="M70 16L71 17L70 16z"/>
<path style="fill:#ffffff; stroke:none;" d="M66 23L79 20C74.2433 14.2938 68.328 16.3177 66 23z"/>
<path style="fill:#a7a7a7; stroke:none;" d="M102 16L103 17L102 16z"/>
<path style="fill:#909090; stroke:none;" d="M118 16L119 17L118 16z"/>
<path style="fill:#dadada; stroke:none;" d="M175 16L175 17L180 17L175 16z"/>
<path style="fill:#a1a1a1; stroke:none;" d="M92 17L93 18L92 17z"/>
<path style="fill:#a4a4a4; stroke:none;" d="M99.6667 17.3333L100.333 17.6667L99.6667 17.3333z"/>
<path style="fill:#818181; stroke:none;" d="M123 17L124 18L123 17z"/>
<path style="fill:#636363; stroke:none;" d="M158 17L159 18L158 17z"/>
<path style="fill:#fde4c0; stroke:none;" d="M193 17L193 21L194 21L193 17z"/>
<path style="fill:#fce6c5; stroke:none;" d="M226 17L226 21L227 21L226 17z"/>
<path style="fill:#787878; stroke:none;" d="M122 18L123 19L122 18z"/>
<path style="fill:#616161; stroke:none;" d="M94 19L95 20L94 19z"/>
<path style="fill:#575757; stroke:none;" d="M62 20L63 21L62 20z"/>
<path style="fill:#808080; stroke:none;" d="M78 20L79 21L78 20z"/>
<path style="fill:#616161; stroke:none;" d="M83.3333 20.6667L83.6667 21.3333L83.3333 20.6667z"/>
<path style="fill:#656565; stroke:none;" d="M92 20L93 21L92 20z"/>
<path style="fill:#a7a7a7; stroke:none;" d="M121 20L122 21L121 20z"/>
<path style="fill:#5f5f5f; stroke:none;" d="M142 20L142 23L143 23L142 20z"/>
<path style="fill:#5c5c5c; stroke:none;" d="M73.6667 21.3333L74.3333 21.6667L73.6667 21.3333z"/>
<path style="fill:#595959; stroke:none;" d="M98.6667 21.3333L99.3333 21.6667L98.6667 21.3333z"/>
<path style="fill:#898989; stroke:none;" d="M108 21L109 22L108 21z"/>
<path style="fill:#404040; stroke:none;" d="M116 21L116 26L117 26L116 21z"/>
<path style="fill:#ffffff; stroke:none;" d="M96.1528 23.0316C89.5955 26.8945 98.4648 33.8357 103.768 30.6813C110.545 26.6501 101.214 20.0499 96.1528 23.0316z"/>
<path style="fill:#6f6f6f; stroke:none;" d="M109 22L110 23L109 22z"/>
<path style="fill:#b1b1b1; stroke:none;" d="M80.6667 23.3333L81.3333 23.6667L80.6667 23.3333z"/>
<path style="fill:#a3a3a3; stroke:none;" d="M89 23L90 24L89 23z"/>
<path style="fill:#8f8f8f; stroke:none;" d="M94 23L95 24L94 23z"/>
<path style="fill:#656565; stroke:none;" d="M104 23L105 24L104 23z"/>
<path style="fill:#5a5a5a; stroke:none;" d="M146.333 23.6667L146.667 24.3333L146.333 23.6667z"/>
<path style="fill:#c0c0c0; stroke:none;" d="M76.6667 24.3333L77.3333 24.6667L76.6667 24.3333z"/>
<path style="fill:#633d19; stroke:none;" d="M29 25C32.1041 30.3134 40.0051 30.4312 43 25L29 25z"/>
<path style="fill:#a7a7a7; stroke:none;" d="M71.6667 25.3333L72.3333 25.6667L71.6667 25.3333z"/>
<path style="fill:#909090; stroke:none;" d="M106 25L107 26L106 25z"/>
<path style="fill:#4b4b4b; stroke:none;" d="M66 26L66 28L68 26L66 26z"/>
<path style="fill:#633d19; stroke:none;" d="M203 26C207.263 30.8307 212.737 30.8307 217 26L203 26z"/>
<path style="fill:#5e5e5e; stroke:none;" d="M62 27L63 28L62 27z"/>
<path style="fill:#6f6f6f; stroke:none;" d="M121 27L122 28L121 27z"/>
<path style="fill:#646464; stroke:none;" d="M106 28L107 29L106 28z"/>
<path style="fill:#966933; stroke:none;" d="M34 29L34 30L39 30L34 29z"/>
<path style="fill:#6e6e6e; stroke:none;" d="M89 29L90 30L89 29z"/>
<path style="fill:#a1a1a1; stroke:none;" d="M94 29L95 30L94 29z"/>
<path style="fill:#575757; stroke:none;" d="M133 29L134 30L133 29z"/>
<path style="fill:#989898; stroke:none;" d="M137.333 29.6667L137.667 30.3333L137.333 29.6667z"/>
<path style="fill:#929292; stroke:none;" d="M143 29L144 30L143 29z"/>
<path style="fill:#585858; stroke:none;" d="M148 29L149 30L148 29z"/>
<path style="fill:#959595; stroke:none;" d="M95 30L96 31L95 30z"/>
<path style="fill:#5d5d5d; stroke:none;" d="M70 31L71 32L70 31z"/>
<path style="fill:#838383; stroke:none;" d="M75 31L76 32L75 31z"/>
<path style="fill:#9f9f9f; stroke:none;" d="M90 31L91 32L90 31z"/>
<path style="fill:#9b9b9b; stroke:none;" d="M102 31L103 32L102 31z"/>
<path style="fill:#676767; stroke:none;" d="M151 31L152 32L151 31z"/>
<path style="fill:#717171; stroke:none;" d="M91 32L92 33L91 32z"/>
<path style="fill:#7f7f7f; stroke:none;" d="M108 32L109 33L108 32z"/>
<path style="fill:#999999; stroke:none;" d="M136 32L137 33L136 32z"/>
<path style="fill:#9e9e9e; stroke:none;" d="M80 33L81 34L80 33z"/>
<path style="fill:#a4a4a4; stroke:none;" d="M92 33L93 34L92 33z"/>
<path style="fill:#a2a2a2; stroke:none;" d="M107 33L108 34L107 33z"/>
<path style="fill:#a8a8a8; stroke:none;" d="M135 33L136 34L135 33z"/>
<path style="fill:#6d6d6d; stroke:none;" d="M179 33L180 34L179 33z"/>
<path style="fill:#9d9d9d; stroke:none;" d="M67 34L68 35L67 34z"/>
<path style="fill:#727272; stroke:none;" d="M78 34L79 35L78 34z"/>
<path style="fill:#6e6e6e; stroke:none;" d="M94 34L95 35L94 34z"/>
<path style="fill:#6f6f6f; stroke:none;" d="M105 34L106 35L105 34z"/>
<path style="fill:#8e8e8e; stroke:none;" d="M122 34L123 35L122 34z"/>
<path style="fill:#5f5f5f; stroke:none;" d="M133 34L134 35L133 34z"/>
<path style="fill:#717171; stroke:none;" d="M148 34L149 35L148 34z"/>
<path style="fill:#7b7b7b; stroke:none;" d="M159 34L160 35L159 34z"/>
<path style="fill:#8b8b8b; stroke:none;" d="M178 34L179 35L178 34z"/>
<path style="fill:#323232; stroke:none;" d="M70 35L70 36L76 36L70 35z"/>
<path style="fill:#353535; stroke:none;" d="M97 35L97 36L103 36L97 35z"/>
<path style="fill:#363636; stroke:none;" d="M125 35L125 36L131 36L125 35z"/>
<path style="fill:#3b3b3b; stroke:none;" d="M151 35L151 36L157 36L151 35z"/>
</svg>
