<?xml version="1.0" standalone="no"?>
<!DOCTYPE svg PUBLIC "-//W3C//DTD SVG 20010904//EN"
 "http://www.w3.org/TR/2001/REC-SVG-20010904/DTD/svg10.dtd">
<svg version="1.0" xmlns="http://www.w3.org/2000/svg"
 width="342.000000pt" height="135.000000pt" viewBox="0 0 342.000000 135.000000"
 preserveAspectRatio="xMidYMid meet">
<metadata>
Created by potrace 1.10, written by Peter Selinger 2001-2011
</metadata>
<g transform="translate(0.000000,135.000000) scale(0.100000,-0.100000)"
fill="#000000" stroke="none">
<path d="M1609 863 c0 -10 -1 -36 -2 -58 -2 -37 -4 -40 -29 -37 -43 4 -118
-51 -118 -87 0 -10 -7 -24 -15 -31 -8 -7 -15 -23 -15 -35 0 -12 7 -28 15 -35
8 -7 15 -27 15 -45 0 -30 3 -33 38 -39 64 -10 92 -7 109 14 l18 20 16 -21 c11
-15 22 -19 37 -14 26 7 29 30 6 39 -13 5 -15 28 -13 162 1 85 -2 159 -7 163
-5 5 -19 12 -31 16 -18 5 -23 2 -24 -12z m1 -220 c0 -59 -4 -71 -25 -91 -33
-32 -57 -25 -67 18 -7 32 -1 115 9 133 2 4 22 7 44 7 l39 0 0 -67z"/>
<path d="M835 859 c-4 -6 -7 -88 -7 -182 0 -147 2 -173 16 -182 11 -7 22 -6
33 1 15 9 17 23 15 83 l-4 71 77 0 77 0 -4 -71 c-3 -76 9 -100 46 -86 14 6 16
29 18 172 0 91 1 170 2 176 2 21 -32 35 -51 23 -15 -9 -17 -23 -15 -83 l4 -71
-77 0 -77 0 3 68 c2 37 0 73 -4 80 -10 15 -43 16 -52 1z"/>
<path d="M2183 859 c-7 -7 -9 -32 -6 -65 4 -34 0 -70 -10 -101 -23 -72 -26
-183 -6 -196 9 -6 24 -7 33 -4 13 5 16 23 16 112 0 87 3 105 15 105 10 0 15
-10 15 -34 0 -18 7 -39 15 -46 8 -7 15 -23 15 -35 0 -12 6 -28 14 -35 8 -6 16
-23 18 -38 2 -16 10 -28 21 -30 24 -5 67 42 67 72 0 13 7 26 15 30 10 3 15 19
15 46 0 28 4 40 15 40 11 0 15 -19 17 -92 3 -92 3 -93 28 -93 l25 0 0 185 c0
181 0 185 -21 188 -25 4 -64 -54 -64 -94 0 -13 -7 -27 -15 -30 -8 -4 -15 -18
-15 -33 0 -14 -7 -35 -15 -45 -8 -11 -15 -32 -15 -48 0 -15 -5 -28 -11 -28
-20 0 -48 45 -49 78 0 20 -6 35 -15 38 -8 4 -15 18 -15 34 0 16 -7 30 -15 34
-10 3 -15 19 -15 45 0 26 -5 41 -16 45 -22 8 -28 8 -41 -5z"/>
<path d="M1340 755 c-9 -10 -11 -36 -8 -80 4 -46 2 -68 -7 -75 -7 -6 -16 -22
-19 -35 -8 -32 -42 -42 -67 -19 -16 15 -19 31 -19 116 l0 99 -27 -3 -28 -3 -3
-105 c-2 -101 -1 -106 23 -132 33 -36 94 -39 124 -6 18 19 21 19 27 5 4 -10
17 -17 34 -17 l28 0 -2 125 c-1 100 -4 128 -16 135 -20 13 -26 12 -40 -5z"/>
<path d="M1820 760 c0 -5 -12 -13 -27 -16 -49 -13 -62 -40 -63 -127 0 -72 2
-80 26 -102 37 -35 124 -34 124 1 0 22 27 17 33 -6 6 -24 39 -26 58 -4 11 13
9 22 -11 58 -19 37 -22 53 -18 104 l6 61 -35 21 c-35 21 -93 27 -93 10z m60
-122 c-1 -66 -3 -75 -26 -91 -45 -33 -59 -20 -62 57 -3 79 12 106 60 106 l28
0 0 -72z"/>
<path d="M2593 555 c-48 -34 -9 -83 50 -62 24 8 28 14 25 41 -2 25 -8 32 -28
34 -14 1 -35 -4 -47 -13z"/>
</g>
</svg>
