<?xml version="1.0" standalone="no"?>
<!DOCTYPE svg PUBLIC "-//W3C//DTD SVG 20010904//EN"
 "http://www.w3.org/TR/2001/REC-SVG-20010904/DTD/svg10.dtd">
<svg version="1.0" xmlns="http://www.w3.org/2000/svg"
 width="300.000000pt" height="187.000000pt" viewBox="0 0 300.000000 187.000000"
 preserveAspectRatio="xMidYMid meet">
<metadata>
Created by potrace 1.10, written by Peter Selinger 2001-2011
</metadata>
<g transform="translate(0.000000,187.000000) scale(0.100000,-0.100000)"
fill="#000000" stroke="none">
<path d="M1636 1735 c-3 -8 -1 -25 4 -37 8 -20 9 -18 9 15 1 39 -3 47 -13 22z"/>
<path d="M1575 1720 c-18 -8 -17 -9 8 -9 15 -1 27 4 27 9 0 12 -8 12 -35 0z"/>
<path d="M1522 1698 c-7 -7 -12 -16 -12 -20 0 -15 15 -8 28 12 13 22 3 27 -16
8z"/>
<path d="M1686 1696 c6 -16 34 -30 34 -18 0 5 -5 13 -12 20 -16 16 -29 15 -22
-2z"/>
<path d="M1809 1680 c-15 -20 -26 -27 -34 -20 -12 10 -55 3 -55 -9 0 -4 14 -6
30 -3 24 3 30 1 30 -14 0 -20 1 -19 45 49 23 36 11 35 -16 -3z"/>
<path d="M1460 1697 c0 -14 24 -57 32 -57 5 0 1 12 -9 28 -22 35 -23 36 -23
29z"/>
<path d="M942 1645 c-53 -36 -61 -45 -39 -45 11 1 108 79 97 80 -3 0 -29 -16
-58 -35z"/>
<path d="M1420 1646 c-6 -8 -10 -25 -7 -38 4 -20 4 -20 6 5 1 19 8 31 24 37
15 6 17 9 6 9 -9 1 -22 -6 -29 -13z"/>
<path d="M875 1630 c4 -6 11 -8 16 -5 14 9 11 15 -7 15 -8 0 -12 -5 -9 -10z"/>
<path d="M2422 1608 c-7 -7 -12 -20 -12 -30 0 -15 5 -17 25 -12 19 5 25 2 25
-11 0 -10 -5 -14 -12 -9 -7 4 -5 -2 5 -12 15 -16 19 -17 27 -4 6 9 5 19 0 24
-6 6 -10 15 -10 21 0 5 4 3 10 -5 15 -24 24 -2 10 25 -14 27 -48 33 -68 13z"/>
<path d="M1557 1595 c-121 -45 -162 -147 -94 -234 68 -90 78 -106 89 -149 9
-36 13 -41 21 -27 15 28 -11 88 -65 152 -59 69 -67 87 -58 128 15 69 86 113
191 120 75 5 136 -18 165 -63 20 -30 25 -119 7 -130 -5 -4 -15 -17 -22 -30 -7
-12 -17 -20 -23 -16 -6 4 -9 3 -6 -2 6 -10 -26 -76 -34 -69 -2 2 -9 -18 -14
-45 -8 -39 -8 -50 3 -54 8 -3 13 2 13 14 0 33 31 103 60 135 46 52 60 78 60
118 0 67 -44 127 -114 154 -42 16 -133 15 -179 -2z"/>
<path d="M1805 1601 c-3 -7 3 -11 15 -11 16 0 20 -5 16 -15 -3 -8 -1 -15 5
-15 6 0 9 10 7 22 -3 24 -32 36 -43 19z"/>
<path d="M926 1591 c-4 -7 -5 -15 -2 -18 9 -9 19 4 14 18 -4 11 -6 11 -12 0z"/>
<path d="M1352 1567 l-23 -13 27 -13 c24 -11 26 -10 14 3 -11 15 -7 20 13 17
4 0 7 4 7 9 0 13 -10 12 -38 -3z"/>
<path d="M2330 1565 c10 -12 10 -15 -1 -15 -9 -1 -8 -4 4 -11 10 -6 21 -9 24
-6 7 8 -16 47 -29 47 -7 0 -6 -5 2 -15z"/>
<path d="M491 1540 c-18 -17 -29 -30 -24 -30 11 1 66 50 61 55 -2 3 -19 -9
-37 -25z"/>
<path d="M1713 1552 c15 -10 24 -22 20 -26 -4 -4 0 -4 9 -1 13 5 20 -3 32 -42
8 -26 15 -43 15 -38 1 6 6 3 11 -5 8 -13 10 -12 10 3 0 34 -33 89 -64 108 -40
24 -70 25 -33 1z"/>
<path d="M1923 1549 c-38 -24 -38 -25 -17 -33 8 -3 12 -2 9 4 -3 5 5 15 19 22
14 6 26 15 26 20 0 11 0 11 -37 -13z"/>
<path d="M1172 1544 c-13 -9 -30 -13 -38 -10 -8 3 -26 1 -40 -4 -22 -9 -24
-13 -14 -25 7 -8 18 -15 24 -15 6 0 3 7 -7 14 -16 13 -14 14 25 19 24 3 60 9
80 15 28 7 42 6 57 -5 13 -9 21 -10 21 -3 0 12 -42 30 -68 30 -10 0 -28 -7
-40 -16z"/>
<path d="M2497 1535 c-15 -21 -24 -24 -52 -19 -27 4 -35 2 -35 -9 0 -21 25
-28 55 -17 22 8 25 7 25 -13 0 -12 -4 -29 -10 -37 -6 -9 -5 -17 3 -22 19 -12
25 -10 33 14 6 20 8 20 25 -13 18 -35 17 -37 -7 -113 -29 -92 -30 -117 -5
-133 15 -10 21 -29 26 -97 6 -75 10 -86 26 -86 16 0 19 8 19 53 0 31 -6 61
-16 75 -22 32 -8 27 25 -10 20 -23 33 -29 46 -24 16 6 14 11 -20 46 l-38 39
21 98 c12 54 22 105 22 113 0 43 -89 181 -117 180 -4 0 -16 -12 -26 -25z m66
-44 c15 -22 27 -44 27 -50 0 -5 8 -14 18 -20 15 -8 14 -11 -11 -20 -37 -14
-35 -15 -39 17 -2 17 -12 31 -26 37 -12 5 -20 15 -18 21 2 6 -1 17 -7 23 -9 9
-8 14 3 21 22 14 22 13 53 -29z m51 -127 c3 -8 2 -12 -4 -9 -6 3 -9 -2 -7 -12
4 -30 -35 -173 -46 -166 -14 9 -3 133 17 171 18 35 31 40 40 16z"/>
<path d="M1319 1523 c-13 -16 -12 -17 4 -4 9 7 17 15 17 17 0 8 -8 3 -21 -13z"/>
<path d="M544 1522 c-6 -4 -14 -19 -17 -33 -6 -21 -2 -30 18 -43 30 -20 36
-20 29 -1 -4 10 0 13 15 10 12 -2 25 -6 30 -9 8 -5 21 15 21 34 0 4 -12 11
-27 15 -16 3 -35 13 -43 20 -9 8 -20 11 -26 7z"/>
<path d="M1940 1515 c7 -8 17 -15 22 -15 6 0 5 7 -2 15 -7 8 -17 15 -22 15 -6
0 -5 -7 2 -15z"/>
<path d="M1983 1501 c0 -11 5 -17 9 -15 11 7 10 34 -1 34 -6 0 -9 -9 -8 -19z"/>
<path d="M2340 1508 c-14 -5 -37 -7 -52 -4 -25 5 -28 3 -27 -22 l1 -27 7 25
c5 17 9 21 14 12 5 -6 4 -20 -2 -29 -6 -11 -6 -24 0 -35 11 -21 39 -24 39 -5
0 17 58 60 70 52 6 -3 10 -13 10 -21 0 -8 5 -14 10 -14 14 0 12 17 -6 45 -19
30 -33 35 -64 23z m-30 -74 c0 -14 -3 -14 -15 -4 -8 7 -15 14 -15 16 0 2 7 4
15 4 8 0 15 -7 15 -16z"/>
<path d="M447 1465 c-4 -8 -2 -17 3 -20 6 -4 10 0 10 9 0 8 6 17 13 19 7 4 6
6 -4 6 -9 1 -19 -6 -22 -14z"/>
<path d="M1070 1460 c0 -19 46 -33 66 -20 16 10 17 11 2 6 -22 -7 -50 3 -42
15 3 5 -2 9 -10 9 -9 0 -16 -5 -16 -10z"/>
<path d="M2010 1460 c13 -8 12 -10 -4 -10 -11 0 -17 -3 -13 -6 9 -9 57 5 57
16 0 6 -12 10 -27 10 -22 0 -25 -2 -13 -10z"/>
<path d="M2432 1448 c5 -15 28 -23 28 -10 0 5 -7 13 -16 16 -10 4 -14 1 -12
-6z"/>
<path d="M1900 1440 c-34 -7 -34 -7 13 -9 26 0 47 4 47 9 0 11 -8 11 -60 0z"/>
<path d="M415 1429 c-11 -17 1 -21 15 -4 8 9 8 15 2 15 -6 0 -14 -5 -17 -11z"/>
<path d="M1631 1431 c-9 -6 -12 -19 -8 -39 4 -20 2 -32 -6 -35 -7 -2 3 -4 21
-4 17 0 35 -2 38 -6 3 -3 3 -49 -1 -101 -7 -91 -8 -96 -30 -96 -25 0 -28 8
-41 140 -3 36 -12 75 -20 88 -15 23 -38 29 -49 12 -9 -15 13 -40 35 -40 15 0
19 -15 27 -97 5 -54 6 -99 1 -101 -4 -2 -8 -21 -8 -41 0 -94 123 -69 138 28 3
21 0 23 -24 18 l-27 -5 7 52 c3 28 6 70 6 93 0 36 4 44 27 55 35 16 43 48 14
48 -12 0 -26 -9 -33 -20 -7 -11 -21 -20 -30 -20 -21 0 -22 4 -6 30 10 16 10
22 -2 34 -10 10 -20 12 -29 7z m19 -31 c0 -11 -4 -20 -10 -20 -5 0 -10 9 -10
20 0 11 5 20 10 20 6 0 10 -9 10 -20z m-80 -20 c8 -5 12 -12 9 -15 -8 -8 -39
5 -39 16 0 11 11 11 30 -1z m170 1 c0 -5 -7 -12 -16 -15 -24 -9 -28 -7 -14 9
14 17 30 20 30 6z m-40 -261 c0 -22 -31 -34 -74 -28 l-27 3 21 23 c27 29 80
31 80 2z"/>
<path d="M335 1420 c-15 -7 -11 -8 17 -7 21 1 38 5 38 10 0 9 -30 8 -55 -3z"/>
<path d="M610 1419 c0 -5 5 -7 10 -4 6 3 10 8 10 11 0 2 -4 4 -10 4 -5 0 -10
-5 -10 -11z"/>
<path d="M666 1423 c-11 -11 -6 -21 14 -26 11 -3 20 -3 20 0 0 10 -28 32 -34
26z"/>
<path d="M1193 1423 c31 -2 83 -2 115 0 31 2 5 3 -58 3 -63 0 -89 -1 -57 -3z"/>
<path d="M317 1388 c-15 -10 109 -8 143 1 15 4 -7 7 -53 7 -43 -1 -84 -4 -90
-8z"/>
<path d="M533 1393 c-14 -5 -16 -52 -4 -93 4 -14 2 -45 -5 -70 -6 -25 -13 -75
-16 -112 l-4 -68 56 0 55 0 -29 23 -29 24 24 61 c16 41 29 61 39 59 12 -2 14
8 12 46 l-3 49 30 -7 c20 -4 31 -3 31 5 0 14 49 -21 50 -36 0 -18 -62 -71 -67
-56 -3 6 -9 12 -14 12 -6 0 -8 -4 -5 -9 4 -5 0 -11 -6 -13 -7 -3 -1 -7 14 -10
21 -4 34 2 63 32 36 37 37 38 20 63 -11 18 -30 29 -58 34 -30 6 -43 14 -45 28
-5 24 -21 45 -34 45 -6 0 -8 -11 -6 -25 3 -14 2 -25 -3 -25 -11 0 -39 29 -39
41 0 10 -8 10 -27 2z m34 -44 c5 -5 8 -21 5 -35 -5 -28 -17 -32 -18 -6 -1 9
-4 25 -9 35 -8 19 5 23 22 6z m28 -93 c-7 -55 -19 -68 -42 -45 -5 5 -8 21 -5
35 3 19 9 24 23 21 16 -4 19 1 19 26 0 17 3 28 6 25 3 -4 3 -31 -1 -62z m25
-16 c0 -5 -4 -10 -10 -10 -5 0 -10 5 -10 10 0 6 5 10 10 10 6 0 10 -4 10 -10z
m-68 -87 c-10 -28 -10 -28 -11 12 -1 28 2 36 10 28 8 -8 8 -19 1 -40z"/>
<path d="M1011 1364 c-40 -45 -85 -47 -126 -4 -16 17 -33 30 -38 30 -4 0 -31
-10 -58 -21 -39 -17 -49 -26 -47 -42 2 -11 10 -23 18 -25 13 -5 13 -3 1 12
-16 20 -18 18 37 39 50 20 66 21 56 5 -4 -6 -3 -8 4 -4 6 3 18 -4 26 -16 24
-33 99 -27 135 11 23 26 29 27 54 17 15 -7 24 -16 20 -21 -5 -4 -3 -5 4 -2 25
15 43 -5 43 -46 0 -58 38 -97 96 -97 40 0 42 -2 62 -47 l20 -47 -29 -29 c-24
-24 -29 -37 -29 -78 0 -27 3 -49 8 -49 4 -1 18 -9 30 -20 23 -19 23 -21 8 -51
-9 -18 -16 -38 -16 -46 0 -14 -9 -16 -54 -13 -20 1 -38 -8 -62 -31 -28 -27
-34 -41 -34 -73 0 -39 -2 -42 -46 -60 l-45 -19 -28 27 c-15 14 -35 26 -44 26
-9 0 -17 6 -17 13 0 9 -3 8 -9 -2 -5 -7 -13 -11 -19 -7 -6 3 -13 2 -17 -4 -4
-6 9 -10 34 -10 32 0 44 -6 65 -31 l26 -31 61 24 61 23 -5 42 c-6 56 29 93 90
93 41 0 42 1 68 57 l26 58 -30 25 c-20 17 -30 36 -33 62 -3 32 1 43 28 69 l31
30 -23 57 -23 57 -44 -3 c-36 -2 -47 2 -71 27 -25 26 -28 35 -22 69 l6 39 -60
26 -59 25 -30 -34z"/>
<path d="M2680 1258 c0 -19 2 -20 10 -8 13 19 13 30 0 30 -5 0 -10 -10 -10
-22z"/>
<path d="M935 1252 c-69 -7 -109 -25 -156 -69 -27 -25 -46 -49 -43 -54 3 -5 1
-9 -5 -9 -5 0 -12 -18 -16 -40 -4 -22 -12 -40 -18 -40 -8 0 -8 -3 0 -11 6 -6
8 -23 3 -43 -5 -21 -3 -36 6 -44 8 -7 17 -25 20 -40 4 -15 19 -38 34 -52 14
-14 25 -32 22 -40 -2 -11 -1 -12 5 -3 5 7 14 9 22 4 11 -7 7 -19 -18 -55 -18
-25 -33 -46 -35 -46 -2 0 -2 11 -1 25 2 17 -7 33 -31 55 -41 36 -52 37 -64 8
-5 -13 -9 -18 -9 -13 -1 12 -41 18 -41 7 0 -4 -23 -7 -50 -8 -36 -1 -50 3 -50
13 0 19 -28 16 -33 -4 -3 -10 -5 -1 -6 19 0 20 -4 43 -7 52 -4 11 0 16 15 16
17 0 20 -4 15 -30 -4 -19 -2 -30 5 -30 6 0 11 14 11 30 0 27 3 30 34 30 28 0
35 -4 42 -27 4 -16 6 -34 5 -40 -1 -7 3 -13 9 -13 14 0 13 7 -7 63 l-17 48 27
24 c25 21 28 29 24 72 l-3 48 -2 -47 c-2 -56 -18 -65 -20 -12 -1 20 -4 40 -8
43 -3 3 -4 -15 -3 -41 2 -34 -2 -52 -15 -67 -10 -11 -15 -25 -11 -30 4 -7 -5
-11 -23 -11 l-29 0 13 58 c18 74 17 89 -1 89 -19 0 -29 -36 -30 -99 0 -43 -2
-48 -22 -48 -13 0 -23 -6 -23 -13 0 -7 -9 -108 -19 -223 -30 -325 -34 -380
-26 -372 8 7 45 395 45 472 0 102 11 31 31 -215 12 -140 26 -258 31 -264 7 -7
8 4 4 33 l-6 42 46 0 47 0 -6 -35 c-3 -19 -2 -35 4 -35 5 0 9 16 9 36 l0 35
43 -3 c39 -3 42 -5 49 -38 4 -19 4 6 1 55 -3 50 -7 93 -10 98 -2 4 -20 7 -40
7 -28 0 -34 3 -29 16 3 9 6 29 6 45 0 24 4 29 25 29 22 0 25 -4 25 -39 0 -34
3 -39 29 -44 16 -3 40 -9 54 -12 22 -6 25 -4 20 14 -7 26 0 27 23 3 17 -16 18
-16 11 2 -5 13 -3 17 7 13 9 -4 13 -1 10 6 -5 15 -85 17 -95 3 -4 -4 -10 -3
-13 3 -4 6 -2 11 3 11 6 0 11 5 11 11 0 5 -4 7 -10 4 -16 -10 -12 11 5 25 8 7
25 10 40 6 14 -4 25 -2 25 4 0 5 -7 10 -16 10 -10 0 -14 6 -10 15 3 8 1 15 -4
15 -6 0 -10 -5 -10 -11 0 -7 -9 -9 -24 -5 -22 5 -24 2 -32 -42 l-8 -47 -7 59
c-19 159 -21 236 -6 236 30 0 57 -45 57 -93 0 -26 4 -47 9 -47 5 0 17 -7 25
-16 20 -20 21 -4 1 22 -19 25 -19 31 4 37 10 2 21 17 25 32 7 29 44 75 60 75
4 0 6 -10 3 -21 -5 -17 -3 -19 6 -10 13 13 0 42 -23 49 -7 3 -10 0 -6 -7 12
-18 -14 -13 -46 11 -43 30 -78 110 -78 177 0 104 64 187 168 217 63 19 108 13
173 -23 105 -57 146 -180 95 -288 -34 -75 -115 -135 -180 -135 -14 0 -28 -5
-32 -11 -5 -9 4 -10 32 -5 67 12 118 38 149 76 17 21 34 35 39 32 5 -3 6 0 2
6 -4 7 -3 12 1 12 10 0 11 7 19 117 5 68 3 85 -10 99 -9 8 -13 20 -10 26 4 7
2 8 -4 4 -11 -6 -16 6 -13 27 0 4 -6 7 -14 7 -8 0 -15 4 -15 10 0 13 -85 61
-123 69 -18 3 -45 5 -62 3z m-299 -498 c-3 -9 -6 -29 -6 -45 l0 -29 -74 0 -74
0 -4 45 -3 45 83 0 c73 0 83 -2 78 -16z m21 -73 c-14 -6 -16 3 -9 49 l7 45 5
-45 c3 -25 1 -47 -3 -49z m-31 -33 c-3 -13 -6 -34 -6 -48 0 -24 -2 -25 -65
-25 l-65 0 0 32 c0 17 -3 38 -6 47 -5 14 5 16 71 16 75 0 77 -1 71 -22z m44
-28 c0 -44 -2 -50 -21 -50 -17 0 -20 4 -15 23 3 12 6 34 6 50 0 17 5 27 15 27
11 0 15 -12 15 -50z m-54 -82 c-3 -13 -6 -33 -6 -45 0 -21 -5 -23 -55 -23 -54
0 -55 0 -55 29 0 16 -3 36 -6 45 -5 14 4 16 61 16 65 0 67 -1 61 -22z m-10
-109 c-3 -17 -6 -39 -6 -48 0 -12 -10 -16 -45 -16 -35 0 -45 4 -45 16 0 9 -3
31 -6 48 l-6 31 57 0 58 0 -7 -31z m82 -20 l3 -46 -33 2 c-38 2 -38 2 -38 56
0 39 1 40 33 37 30 -3 32 -5 35 -49z"/>
<path d="M2410 1250 c-42 -9 -39 -10 21 -13 38 -2 44 0 33 10 -7 7 -14 12 -16
12 -2 -1 -19 -5 -38 -9z"/>
<path d="M2710 1240 c0 -6 5 -8 12 -4 7 4 8 3 4 -4 -4 -7 -25 -12 -46 -12 -21
0 -41 -3 -43 -7 -3 -5 29 -6 70 -5 63 3 73 6 62 17 -20 19 -59 29 -59 15z"/>
<path d="M2391 1221 c-11 -7 -5 -11 21 -16 20 -4 44 -5 55 -2 10 3 4 5 -14 6
-18 0 -33 6 -33 11 0 12 -10 13 -29 1z"/>
<path d="M881 1206 c-118 -39 -176 -178 -120 -293 29 -60 33 -49 7 19 -27 74
-19 132 26 191 40 52 86 76 150 77 110 1 196 -82 196 -187 0 -100 -60 -176
-155 -197 -29 -6 -30 -6 -10 11 11 10 27 32 35 48 8 17 16 33 18 37 2 4 -11 0
-28 -9 -22 -11 -28 -18 -20 -23 20 -12 -35 -59 -60 -53 -11 3 -20 9 -20 14 0
5 -6 9 -12 9 -7 -1 -2 -10 12 -22 14 -11 24 -24 23 -28 -3 -12 78 0 114 17 47
22 100 85 113 135 43 159 -112 304 -269 254z"/>
<path d="M1442 1183 c-26 -10 -33 -42 -16 -68 20 -31 37 -33 29 -2 -6 21 -6
21 14 -3 16 -20 23 -22 32 -13 10 10 10 17 0 35 -6 13 -9 15 -7 6 5 -18 -5
-24 -17 -11 -4 3 0 14 9 24 26 29 -2 49 -44 32z"/>
<path d="M1560 1128 c0 -36 4 -35 14 5 4 16 2 27 -4 27 -5 0 -10 -14 -10 -32z"/>
<path d="M2040 1135 l-55 -23 -1 -52 c-1 -73 -34 -105 -105 -105 l-51 0 -26
-64 -26 -65 37 -31 c31 -27 37 -39 37 -71 0 -30 -7 -46 -36 -75 l-35 -36 24
-59 c24 -57 26 -59 67 -62 23 -2 39 1 36 6 -3 5 -18 7 -35 4 -24 -3 -30 0 -36
20 -3 12 -14 38 -23 55 -16 32 -16 33 15 65 25 26 32 43 34 82 3 44 0 51 -29
77 l-33 30 18 52 19 52 49 3 c71 4 113 45 117 115 l3 50 52 20 52 19 27 -31
c23 -27 32 -31 77 -31 44 0 56 5 83 31 l33 32 56 -24 56 -23 -7 -39 c-6 -36
-3 -42 32 -78 28 -28 41 -36 50 -28 7 6 27 9 44 7 28 -3 34 -9 56 -63 l24 -60
-35 -32 c-30 -26 -35 -38 -35 -74 0 -36 6 -49 35 -79 l35 -36 -21 -52 -22 -52
-47 0 c-43 0 -51 -4 -84 -40 l-36 -40 -187 1 c-228 1 -269 -3 -108 -11 155 -7
155 -24 0 -28 -77 -2 -115 -6 -115 -14 0 -8 56 -9 206 -4 202 7 206 7 211 -14
10 -37 21 -20 17 28 -2 40 1 51 23 75 22 23 35 27 78 27 l52 0 25 64 26 64
-34 33 c-28 27 -34 40 -34 74 0 34 6 47 34 74 l34 33 -26 62 c-38 88 -57 103
-101 80 -23 -12 -28 -11 -53 13 -21 20 -28 37 -30 77 l-3 50 -62 24 -61 25
-32 -37 c-28 -31 -38 -36 -76 -36 -37 0 -46 4 -70 35 -14 19 -31 35 -38 34 -6
0 -36 -11 -66 -24z m358 -732 c-21 -2 -57 -2 -80 0 -24 2 -7 4 37 4 44 0 63
-2 43 -4z"/>
<path d="M876 1119 c-47 -29 -63 -70 -57 -146 1 -7 5 -13 10 -13 5 0 7 17 5
38 -6 45 23 98 62 112 52 20 94 12 130 -24 19 -19 34 -43 34 -54 0 -12 5 -24
12 -28 19 -12 2 63 -22 94 -12 15 -32 29 -43 30 -67 11 -104 8 -131 -9z"/>
<path d="M2842 1070 c2 -13 11 -33 22 -43 14 -15 15 -21 6 -27 -7 -4 -9 -13
-5 -20 5 -8 11 -5 21 9 9 12 21 18 32 15 16 -5 16 -5 0 6 -10 6 -21 10 -24 9
-4 0 -18 16 -31 38 -20 32 -24 34 -21 13z"/>
<path d="M1473 1073 c-28 -2 -56 -10 -63 -17 -18 -23 -24 -110 -9 -123 10 -8
13 -32 11 -86 -3 -65 -6 -76 -23 -80 -17 -5 -20 -13 -18 -56 2 -28 -1 -54 -6
-58 -4 -5 -5 1 -1 12 4 11 4 16 0 12 -4 -4 -8 -40 -9 -80 -1 -39 -3 -92 -4
-116 l-1 -44 -25 23 c-15 14 -31 21 -45 17 -20 -5 -46 23 -33 37 3 3 1 6 -5 6
-18 0 -14 18 8 40 26 26 27 83 0 108 -17 16 -18 22 -8 50 10 27 18 32 43 32
38 0 75 36 75 73 0 15 9 32 22 41 26 18 20 20 -17 6 -23 -9 -27 -15 -23 -40 6
-40 -29 -75 -68 -67 -23 4 -28 0 -46 -40 l-19 -44 25 -20 c34 -27 34 -67 1
-94 -26 -20 -26 -20 -9 -62 16 -40 20 -43 54 -43 57 0 64 -15 56 -128 -4 -53
-10 -114 -13 -134 -4 -25 -2 -38 6 -38 6 0 11 16 11 35 0 34 1 35 40 35 35 0
40 -3 40 -22 0 -13 5 -30 11 -38 8 -11 9 -6 7 23 l-4 37 43 0 43 0 1 -42 2
-43 8 45 c4 25 8 71 8 104 1 50 3 57 15 47 11 -9 20 -9 34 -2 18 10 20 5 26
-82 7 -85 11 -107 19 -96 2 2 -3 80 -11 172 -15 167 -15 168 6 206 12 21 22
53 22 70 0 35 -22 95 -38 105 -6 3 -1 -16 10 -42 22 -52 20 -102 -6 -137 -11
-16 -14 -5 -20 86 -10 138 -13 149 -42 149 l-24 0 0 126 c0 117 2 127 22 143
23 19 17 42 -10 39 -9 -1 -40 -3 -69 -5z m30 -95 c-1 -47 2 -75 10 -80 19 -12
-2 -23 -43 -23 -46 0 -57 9 -40 30 10 12 10 19 2 27 -16 16 -15 105 1 111 6 3
26 6 42 6 l31 1 -3 -72z m4 -153 c2 -19 -2 -35 -7 -35 -6 0 -10 10 -10 22 0
12 -3 19 -6 15 -3 -3 -6 -41 -5 -83 0 -52 -3 -81 -12 -86 -9 -6 -9 -8 1 -8 8
0 12 -16 12 -45 0 -39 -3 -45 -21 -45 -24 0 -24 1 0 212 4 37 3 64 -1 62 -4
-3 -8 -12 -8 -20 0 -8 -4 -14 -10 -14 -5 0 -10 14 -10 30 0 28 2 30 38 30 35
0 37 -2 39 -35z m3 -55 c0 -5 -5 -10 -11 -10 -5 0 -7 5 -4 10 3 6 8 10 11 10
2 0 4 -4 4 -10z m-104 -62 c-16 -132 -18 -148 -27 -148 -12 0 -11 87 1 95 6 3
10 28 10 56 0 29 4 49 11 49 7 0 9 -17 5 -52z m164 35 c0 -10 5 -58 10 -108 5
-49 13 -134 16 -188 l7 -99 -24 4 c-21 3 -25 10 -30 58 -3 30 -2 57 2 60 4 3
9 55 12 115 4 61 4 102 1 93 -3 -10 -12 -18 -20 -18 -10 0 -14 13 -14 50 0 43
3 50 20 50 12 0 20 -7 20 -17z m-14 -135 c-8 -50 -4 -45 -41 -52 -17 -3 -23
-3 -15 0 22 10 30 25 30 62 0 23 5 32 16 32 14 0 15 -7 10 -42z m-131 -58 c-4
-6 -11 -8 -16 -5 -5 4 -12 -1 -15 -9 -3 -9 -11 -13 -18 -9 -6 4 -4 -1 4 -12
12 -14 16 -15 18 -4 1 8 16 20 33 28 26 11 35 11 57 0 20 -11 26 -11 29 -1 3
6 11 12 19 12 11 0 14 -10 12 -37 -3 -35 -6 -38 -30 -36 -19 1 -28 -3 -28 -13
0 -19 -59 -19 -66 1 -4 8 -12 15 -20 15 -8 0 -14 -7 -14 -15 0 -8 -7 -15 -15
-15 -11 0 -15 11 -15 38 0 20 4 42 8 48 13 20 69 33 57 14z m-16 -172 c1 -24
-3 -28 -28 -28 -23 0 -28 4 -26 23 1 12 3 32 4 44 1 29 34 35 43 8 3 -11 6
-32 7 -47z m129 21 l-3 -49 -57 0 -56 0 -4 48 -3 47 63 1 63 1 -3 -48z m-128
-71 c0 -7 3 -29 6 -48 l6 -35 -42 0 c-41 0 -41 0 -36 29 3 15 6 37 6 47 0 14
7 19 30 19 17 0 30 -5 30 -12z m118 -34 l-3 -46 -47 -2 -48 -2 0 48 0 48 51 0
50 0 -3 -46z"/>
<path d="M1450 526 c0 -2 9 -6 20 -9 11 -3 18 -1 14 4 -5 9 -34 13 -34 5z"/>
<path d="M1437 479 c7 -7 15 -10 18 -7 3 3 -2 9 -12 12 -14 6 -15 5 -6 -5z"/>
<path d="M1463 383 c-26 -10 -12 -19 22 -15 19 2 35 8 35 13 0 9 -36 11 -57 2z"/>
<path d="M2664 1072 c-16 -10 -36 -52 -26 -52 10 0 52 43 52 53 0 9 -12 9 -26
-1z"/>
<path d="M2149 991 c-20 -4 -49 -17 -66 -29 -17 -12 -33 -19 -37 -17 -3 3 -4
3 -2 0 2 -3 -16 -25 -39 -48 -23 -23 -40 -48 -37 -55 2 -6 0 -12 -5 -12 -6 0
-10 -6 -11 -12 0 -7 -3 -39 -7 -70 -3 -32 -2 -66 4 -76 7 -13 7 -22 -1 -30
-12 -12 -1 -35 13 -27 5 4 9 1 9 -6 0 -6 -8 -9 -20 -6 -11 3 -20 1 -20 -4 0
-5 7 -9 15 -9 7 0 18 -6 22 -12 4 -7 15 -14 24 -14 15 -1 14 6 -7 50 -81 174
41 365 234 366 78 0 136 -26 190 -84 118 -128 81 -322 -78 -406 -14 -7 -52
-17 -85 -20 -48 -6 -35 -8 68 -9 78 0 126 3 122 8 -3 6 -21 8 -40 7 -42 -5
-45 7 -7 31 63 41 102 127 102 226 0 65 -30 148 -63 176 -9 7 -14 17 -11 22 3
5 2 9 -3 7 -12 -3 -83 34 -79 41 2 3 -8 7 -22 8 -15 1 -49 4 -77 7 -27 3 -66
1 -86 -3z"/>
<path d="M1015 968 c-27 -12 -52 -25 -55 -28 -3 -4 -17 -10 -32 -14 -21 -5
-28 -3 -28 8 0 31 -80 17 -93 -16 -12 -33 -2 -61 26 -71 32 -10 49 -1 27 14
-10 7 -11 12 -4 15 7 3 10 14 7 24 -4 16 0 20 17 20 15 0 20 -5 17 -14 -5 -11
11 -9 61 10 114 42 122 46 122 60 0 18 -6 17 -65 -8z"/>
<path d="M2114 936 c-105 -49 -158 -170 -123 -285 17 -57 42 -85 67 -76 29 8
28 22 0 21 -32 -1 -62 63 -61 130 0 60 39 140 82 172 154 114 362 9 361 -183
0 -49 -35 -129 -51 -119 -7 4 -9 3 -5 -4 14 -23 -55 -70 -127 -88 -48 -11 -49
-12 -16 -13 51 -1 133 43 168 91 73 99 61 227 -31 315 -70 67 -172 82 -264 39z"/>
<path d="M2881 934 c0 -11 3 -14 6 -6 3 7 2 16 -1 19 -3 4 -6 -2 -5 -13z"/>
<path d="M1548 876 c-10 -19 -10 -20 5 -8 25 21 71 -5 75 -43 5 -43 39 -75 78
-75 27 0 34 -5 43 -32 10 -27 8 -34 -9 -50 -26 -25 -26 -75 1 -104 14 -15 18
-29 13 -48 -3 -14 -11 -23 -17 -19 -6 3 -7 1 -3 -5 5 -8 -2 -12 -22 -12 -39 0
-75 -40 -76 -85 -1 -19 2 -35 7 -35 4 0 7 15 7 33 0 42 26 67 67 67 27 0 33 5
47 41 16 40 16 43 -4 64 -26 27 -26 73 0 100 19 20 19 23 3 64 -16 40 -19 42
-46 37 -41 -8 -67 16 -67 63 0 34 -3 37 -45 52 -44 16 -46 16 -57 -5z"/>
<path d="M2722 884 c-12 -8 -22 -21 -22 -27 0 -7 5 -4 11 6 5 9 17 17 24 17 8
0 15 5 15 10 0 13 -2 13 -28 -6z"/>
<path d="M936 875 c4 -8 10 -15 15 -15 5 0 9 7 9 15 0 8 -7 15 -15 15 -9 0
-12 -6 -9 -15z"/>
<path d="M2770 880 c8 -5 20 -10 25 -10 6 0 3 5 -5 10 -8 5 -19 10 -25 10 -5
0 -3 -5 5 -10z"/>
<path d="M2169 863 c-8 -9 1 -12 39 -11 87 2 147 -59 139 -140 -5 -51 -34 -86
-92 -113 l-40 -19 35 2 c33 2 58 21 107 81 10 13 11 78 2 116 -15 58 -159 122
-190 84z"/>
<path d="M2806 835 c8 -37 14 -45 14 -19 0 10 -5 26 -10 34 -8 11 -9 7 -4 -15z"/>
<path d="M2072 838 c-14 -14 -16 -44 -2 -53 6 -3 7 1 4 9 -3 9 -2 16 2 16 17
-1 54 -39 52 -51 -4 -18 33 -24 43 -7 14 21 11 44 -8 66 -22 25 -74 37 -91 20z"/>
<path d="M2697 820 c3 -11 7 -20 9 -20 2 0 4 9 4 20 0 11 -4 20 -9 20 -5 0 -7
-9 -4 -20z"/>
<path d="M895 773 c0 -34 -3 -38 -37 -48 -40 -11 -66 -31 -55 -42 7 -6 20 -1
87 31 27 13 35 35 26 72 -9 36 -21 29 -21 -13z"/>
<path d="M2876 795 c-9 -26 -7 -32 5 -12 6 10 9 21 6 23 -2 3 -7 -2 -11 -11z"/>
<path d="M2640 781 c0 -10 19 -25 25 -20 1 2 -3 10 -11 17 -8 7 -14 8 -14 3z"/>
<path d="M2700 786 c0 -2 7 -9 15 -16 13 -11 14 -10 9 4 -5 14 -24 23 -24 12z"/>
<path d="M2790 781 c0 -5 -14 -14 -30 -21 -17 -7 -29 -15 -26 -17 6 -6 63 24
71 37 3 5 1 10 -4 10 -6 0 -11 -4 -11 -9z"/>
<path d="M836 761 c-4 -7 -5 -15 -2 -18 9 -9 19 4 14 18 -4 11 -6 11 -12 0z"/>
<path d="M2057 759 c7 -7 15 -10 18 -7 3 3 -2 9 -12 12 -14 6 -15 5 -6 -5z"/>
<path d="M1600 751 c0 -5 7 -15 17 -22 9 -8 25 -34 36 -58 21 -49 17 -96 -13
-148 -12 -20 -14 -30 -6 -27 21 8 46 72 46 116 0 27 -10 58 -31 94 -28 49 -49
68 -49 45z"/>
<path d="M2839 743 c-13 -17 -13 -17 6 -3 11 8 22 16 24 17 2 2 0 3 -6 3 -6 0
-17 -8 -24 -17z"/>
<path d="M2073 706 c0 -19 5 -32 9 -30 10 6 7 64 -3 64 -4 0 -7 -15 -6 -34z"/>
<path d="M2126 717 c-22 -16 -40 -108 -21 -100 7 2 16 -4 19 -14 4 -10 3 -19
-3 -21 -5 -2 -8 -9 -5 -16 6 -17 -14 -22 -95 -25 -47 -2 -68 -7 -77 -19 -21
-29 -92 -222 -83 -227 12 -8 44 30 64 75 10 22 22 40 27 40 4 0 8 -25 8 -55 0
-40 4 -55 14 -55 18 0 26 31 26 110 l0 65 87 -3 c49 -1 93 1 100 6 25 16 12
202 -16 236 -16 19 -22 20 -45 3z m38 -24 c7 -25 -7 -86 -22 -91 -8 -2 -12 11
-12 46 0 27 3 52 7 55 11 12 21 8 27 -10z m29 -145 c-6 -11 -63 -10 -63 1 0 5
10 21 22 34 l23 25 11 -26 c6 -15 9 -30 7 -34z m-27 -44 c-12 -8 -42 -11 -91
-8 -59 3 -74 1 -79 -12 -3 -8 -10 -13 -15 -9 -5 3 -11 -7 -13 -22 -2 -18 -10
-29 -22 -31 -16 -3 -18 0 -12 23 14 57 33 73 84 71 26 -1 60 1 77 4 16 3 43 4
59 2 27 -4 28 -6 12 -18z"/>
<path d="M1326 677 c-17 -44 -19 -84 -7 -127 5 -17 9 -21 15 -12 4 6 4 17 1
22 -11 18 -8 89 5 120 7 17 10 33 8 36 -3 2 -13 -15 -22 -39z"/>
<path d="M812 655 c-7 -8 -9 -15 -4 -15 4 0 6 -15 4 -34 -4 -31 -1 -35 28 -41
20 -4 30 -12 26 -20 -3 -8 -10 -32 -16 -54 -9 -34 -14 -39 -35 -38 -23 2 -28
-6 -61 -98 -41 -114 -45 -138 -24 -143 12 -2 32 31 72 115 31 65 60 128 63
141 3 12 9 22 13 22 4 0 23 -23 44 -50 27 -38 42 -74 59 -145 21 -86 25 -95
46 -95 13 0 23 1 23 3 0 2 -9 52 -20 111 -17 92 -26 119 -70 193 -27 46 -50
93 -50 103 0 13 -6 16 -24 13 -31 -6 -67 13 -60 32 8 19 3 19 -14 0z m59 -56
c11 -5 17 -14 14 -20 -4 -5 -1 -9 4 -9 6 0 11 -6 11 -14 0 -7 6 -19 14 -25 18
-15 69 -111 63 -118 -3 -2 -8 5 -12 16 -4 13 -11 19 -18 15 -7 -4 -9 -4 -5 1
8 8 -44 65 -59 65 -5 0 -8 13 -5 30 3 22 0 32 -14 37 -11 5 -20 14 -21 21 -4
15 2 15 28 1z m-63 -190 c-6 -16 -12 -28 -14 -26 -5 5 13 57 20 57 3 0 0 -14
-6 -31z"/>
<path d="M890 656 c0 -9 7 -16 16 -16 17 0 14 22 -4 28 -7 2 -12 -3 -12 -12z"/>
<path d="M1867 654 c-9 -9 51 -124 64 -124 8 0 8 4 1 13 -6 7 -22 36 -35 65
-13 28 -27 49 -30 46z"/>
<path d="M1908 643 c7 -3 16 -2 19 1 4 3 -2 6 -13 5 -11 0 -14 -3 -6 -6z"/>
<path d="M1342 615 c0 -16 2 -22 5 -12 2 9 2 23 0 30 -3 6 -5 -1 -5 -18z"/>
<path d="M2027 322 c11 -10 22 -24 25 -32 5 -13 37 -16 211 -18 116 -2 208 1
211 7 3 5 -41 7 -109 5 -110 -3 -115 -3 -115 17 0 19 6 20 110 18 61 -1 113 1
116 4 12 12 -76 17 -266 16 -192 -1 -203 -2 -183 -17z m203 -17 c-9 -11 -17
-12 -32 -4 -11 6 -44 9 -73 7 -30 -2 -51 0 -48 5 3 4 36 7 73 5 38 -1 72 1 76
5 13 13 17 -2 4 -18z"/>
<path d="M538 313 c6 -2 18 -2 25 0 6 3 1 5 -13 5 -14 0 -19 -2 -12 -5z"/>
<path d="M643 313 c9 -2 23 -2 30 0 6 3 -1 5 -18 5 -16 0 -22 -2 -12 -5z"/>
<path d="M820 299 c0 -11 51 -17 79 -9 21 6 17 8 -27 11 -28 2 -52 1 -52 -2z"/>
<path d="M268 293 c7 -3 16 -2 19 1 4 3 -2 6 -13 5 -11 0 -14 -3 -6 -6z"/>
<path d="M185 281 c-10 -17 17 -24 99 -27 62 -3 73 -1 47 5 -19 5 -40 7 -48 4
-7 -3 -30 -2 -51 3 l-37 7 30 7 30 8 -32 1 c-17 0 -34 -3 -38 -8z"/>
<path d="M1827 264 c-24 -33 -22 -34 23 -16 42 18 48 34 14 37 -11 1 -28 -9
-37 -21z"/>
<path d="M1930 269 l-25 -21 34 6 c18 3 40 6 47 6 8 0 14 7 14 15 0 22 -40 18
-70 -6z"/>
<path d="M1673 244 c9 -10 87 -11 87 -2 0 4 -21 8 -47 8 -25 0 -44 -3 -40 -6z"/>
<path d="M2037 238 c2 -5 58 -8 124 -8 109 0 120 -2 117 -17 -3 -16 -17 -18
-115 -18 -62 0 -115 -4 -119 -8 -9 -9 74 -9 279 0 153 6 158 7 155 27 -3 20
-9 21 -225 26 -121 3 -219 2 -216 -2z"/>
<path d="M2608 227 c36 -10 41 -14 30 -26 -11 -12 -10 -13 5 -7 10 3 21 6 23
6 2 0 4 4 4 10 0 10 -64 31 -90 29 -8 -1 4 -6 28 -12z"/>
<path d="M840 220 l-45 -7 47 -1 c26 -1 50 3 53 8 3 6 3 9 -2 8 -4 0 -28 -4
-53 -8z"/>
<path d="M920 219 c0 -5 9 -9 20 -9 11 0 20 2 20 4 0 2 -9 6 -20 9 -11 3 -20
1 -20 -4z"/>
<path d="M428 213 c6 -2 18 -2 25 0 6 3 1 5 -13 5 -14 0 -19 -2 -12 -5z"/>
<path d="M517 213 c18 -2 50 -2 70 0 21 2 7 4 -32 4 -38 0 -55 -2 -38 -4z"/>
<path d="M700 198 c0 -12 79 -42 88 -34 4 5 -41 32 -65 40 -16 5 -23 3 -23 -6z"/>
<path d="M1273 190 c-27 -11 -30 -25 -7 -34 26 -10 29 -7 8 9 -17 13 -17 14
-2 15 9 0 20 5 23 10 7 12 7 12 -22 0z"/>
<path d="M929 181 c12 -8 51 -4 51 5 0 2 -15 4 -32 4 -23 0 -29 -3 -19 -9z"/>
<path d="M1030 180 c-8 -5 -12 -11 -10 -14 9 -8 90 6 90 15 0 12 -61 11 -80
-1z"/>
<path d="M2598 183 c7 -3 16 -2 19 1 4 3 -2 6 -13 5 -11 0 -14 -3 -6 -6z"/>
<path d="M286 165 c-8 -8 -25 -15 -38 -14 -23 1 -23 1 2 10 17 6 2 7 -45 4
-38 -3 -71 -5 -73 -5 -2 0 0 -4 3 -10 8 -13 52 -13 60 0 4 7 12 7 25 0 21 -11
139 -11 185 0 37 9 20 16 -52 24 -38 4 -57 1 -67 -9z m44 -5 c0 -5 -4 -10 -10
-10 -5 0 -10 5 -10 10 0 6 5 10 10 10 6 0 10 -4 10 -10z"/>
<path d="M836 172 c-3 -5 8 -6 25 -4 16 2 29 6 29 8 0 8 -49 4 -54 -4z"/>
<path d="M1130 154 c-25 -14 -24 -14 15 -14 49 0 85 9 85 21 0 14 -72 9 -100
-7z m63 -1 c-7 -2 -21 -2 -30 0 -10 3 -4 5 12 5 17 0 24 -2 18 -5z"/>
<path d="M2024 162 c3 -5 0 -13 -6 -15 -9 -4 -10 -6 -1 -6 17 -1 25 16 12 25
-7 4 -9 3 -5 -4z"/>
<path d="M2168 153 c7 -3 16 -2 19 1 4 3 -2 6 -13 5 -11 0 -14 -3 -6 -6z"/>
<path d="M2655 150 c22 -5 57 -10 78 -11 57 -4 44 -17 -25 -26 -35 -4 -53 -9
-40 -11 29 -5 132 17 132 28 0 10 -35 17 -120 24 -53 4 -58 3 -25 -4z"/>
<path d="M848 143 c6 -2 18 -2 25 0 6 3 1 5 -13 5 -14 0 -19 -2 -12 -5z"/>
<path d="M910 138 c0 -4 21 -8 48 -7 52 1 48 6 -10 11 -21 2 -38 0 -38 -4z"/>
<path d="M1353 143 c9 -2 23 -2 30 0 6 3 -1 5 -18 5 -16 0 -22 -2 -12 -5z"/>
<path d="M1728 143 c6 -2 18 -2 25 0 6 3 1 5 -13 5 -14 0 -19 -2 -12 -5z"/>
<path d="M1953 143 c9 -2 25 -2 35 0 9 3 1 5 -18 5 -19 0 -27 -2 -17 -5z"/>
<path d="M2058 138 c9 -9 15 -9 24 0 9 9 7 12 -12 12 -19 0 -21 -3 -12 -12z"/>
<path d="M1555 131 c-6 -11 13 -26 22 -17 4 3 1 6 -6 6 -7 0 -9 5 -6 10 3 6 4
10 1 10 -3 0 -7 -4 -11 -9z"/>
<path d="M1618 103 c6 -2 18 -2 25 0 6 3 1 5 -13 5 -14 0 -19 -2 -12 -5z"/>
<path d="M1668 103 c6 -2 18 -2 25 0 6 3 1 5 -13 5 -14 0 -19 -2 -12 -5z"/>
<path d="M1818 103 c12 -2 32 -2 45 0 12 2 2 4 -23 4 -25 0 -35 -2 -22 -4z"/>
<path d="M1968 103 c7 -3 16 -2 19 1 4 3 -2 6 -13 5 -11 0 -14 -3 -6 -6z"/>
<path d="M2325 100 c-4 -6 7 -10 25 -10 18 0 29 4 25 10 -3 6 -15 10 -25 10
-10 0 -22 -4 -25 -10z"/>
<path d="M2023 93 c9 -2 25 -2 35 0 9 3 1 5 -18 5 -19 0 -27 -2 -17 -5z"/>
<path d="M2243 93 c15 -2 37 -2 50 0 12 2 0 4 -28 4 -27 0 -38 -2 -22 -4z"/>
<path d="M2618 83 c7 -3 16 -2 19 1 4 3 -2 6 -13 5 -11 0 -14 -3 -6 -6z"/>
</g>
</svg>
